<?xml version="1.0" standalone="no"?>
<!DOCTYPE svg PUBLIC "-//W3C//DTD SVG 1.1//EN" "http://www.w3.org/Graphics/SVG/1.1/DTD/svg11.dtd" >
<svg>
<metadata>
Created by FontForge 20120731 at Mon Jul  1 14:40:27 2019
 By www
Copyright (c) 1990 - 2007 Linotype GmbH, www.linotype.com. All rights reserved. This font software may not be reproduced, modified, disclosed or transferred without the express written approval of Linotype GmbH. Herculanum is a trademark of Linotype GmbH and may be registered in certain jurisdictions. This typeface is original artwork of Adrian Frutiger. The design may be protected in certain jurisdictions.
</metadata>
<defs>
<font id="HerculanumLTW01-Bold" horiz-adv-x="346" >
  <font-face 
    font-family="HerculanumLTW01-Bold"
    font-weight="400"
    font-stretch="normal"
    units-per-em="1000"
    panose-1="2 0 5 5 8 0 0 2 0 4"
    ascent="776"
    descent="-224"
    x-height="583"
    cap-height="605"
    bbox="-45 -214 1076 844"
    underline-thickness="50"
    underline-position="-100"
    unicode-range="U+0020-E308"
  />
<missing-glyph horiz-adv-x="290" 
 />
    <glyph glyph-name=".notdef" horiz-adv-x="290" 
 />
    <glyph glyph-name="glyph1" horiz-adv-x="0" 
 />
    <glyph glyph-name="glyph2" horiz-adv-x="0" 
 />
    <glyph glyph-name="space" unicode=" " horiz-adv-x="290" 
 />
    <glyph glyph-name="exclam" unicode="!" horiz-adv-x="382" 
d="M286 555q0 -13 -3.5 -25.5t-5.5 -25.5q-4 -22 -6 -43.5t-4 -43.5q-3 -48 -5.5 -94t-2.5 -94v-15t-2 -20t-6 -18t-11 -8q-11 0 -26.5 11t-23.5 19q-11 10 -15.5 18t-5.5 17t0 19t1 23v63t-1.5 71t-5.5 70t-12 61q-2 5 -3 9t-1 9q0 4 10.5 12t23.5 16t25.5 14t17.5 6
q6 0 16.5 -5.5t20.5 -13.5t17.5 -16.5t7.5 -15.5zM290 55q0 -8 -6 -19.5t-15 -22t-19.5 -17.5t-18.5 -7t-21 7t-26.5 17t-23 21t-9.5 19t7.5 20t18 23t22.5 19t20 8q7 0 19 -8t23.5 -19t20 -22.5t8.5 -18.5z" />
    <glyph glyph-name="quotedbl" unicode="&#x22;" horiz-adv-x="454" 
d="M194 586q0 -14 -3 -31.5t-6 -45t-6 -69t-3 -104.5q0 -11 -8 -17.5t-18.5 -10.5t-20.5 -5.5t-13 -1.5q-19 0 -19 19q0 24 -0.5 55t-2 61t-4.5 55.5t-7 38.5q-5 14 -9.5 22t-4.5 21q0 6 9 12.5t21 12.5t23 10t16 4q21 0 38.5 -7.5t17.5 -18.5zM385 586q0 -14 -4 -32t-9 -46
t-9 -70t-4 -105q0 -8 -7 -14t-16 -10t-18.5 -6t-15.5 -2q-11 0 -17.5 4.5t-6.5 15.5q0 15 1 34t1.5 41t1.5 45t1 44q0 31 -6.5 57t-6.5 40q0 15 15 22.5t39 7.5q8 0 18.5 -2t20 -5.5t16 -8t6.5 -10.5z" />
    <glyph glyph-name="numbersign" unicode="#" horiz-adv-x="517" 
d="M393 364l-24 -130h81l1 -62h-93l-32 -172h-72l31 172h-99l-32 -172h-72l31 172h-81v62h93l24 130h-81v62h93l32 173h72l-32 -173h99l33 173h72l-32 -173h81v-62h-93zM221 364l-24 -130h100l24 130h-100z" />
    <glyph glyph-name="dollar" unicode="$" horiz-adv-x="565" 
d="M503 167q0 -36 -17.5 -64t-45 -47.5t-60.5 -31t-64 -15.5q0 -8 -1 -16t-3 -16q-2 -13 -4 -24.5t-7.5 -20.5t-14.5 -14t-25 -5q-2 0 -2.5 0.5t-2.5 0.5v85q-29 2 -59.5 5.5t-56.5 16.5q-27 13 -31.5 31.5t-4.5 45.5q0 4 0.5 11t2 13.5t5 11t9.5 4.5q9 0 18 -6t17 -11
q46 -28 100 -42l-2 178q-31 15 -62 28t-56 30.5t-41 44t-16 68.5q0 37 15 64.5t39 46.5t55.5 29t64.5 13q0 7 -0.5 14t-0.5 14q0 9 1.5 17.5t9.5 15.5q7 6 22 13t24 7q11 0 13 -6.5t2 -15.5q0 -14 -1 -26.5t-2 -26.5q11 -1 36 -4.5t50.5 -10.5t45 -17.5t19.5 -24.5
q0 -12 -8.5 -25t-21 -24t-26.5 -18.5t-25 -7.5q-9 0 -13.5 7t-10.5 16t-16.5 18t-32.5 12q-3 -38 -3.5 -77t-0.5 -77v-18l12 -5q28 -11 59 -24t57.5 -32.5t43.5 -45.5t17 -62zM254 510q-13 -3 -26.5 -9.5t-24 -15.5t-17 -21t-6.5 -27q0 -14 7.5 -26.5t18.5 -23t24 -18.5
t24 -14v155zM395 155q0 37 -24 56.5t-56 30.5q0 -42 3 -83t1 -83q35 8 55.5 24t20.5 55z" />
    <glyph glyph-name="percent" unicode="%" horiz-adv-x="873" 
d="M817 168q0 -16 -6.5 -28.5t-14.5 -25.5q-12 -20 -26.5 -41.5t-32.5 -39.5t-39.5 -29.5t-47.5 -11.5q-11 0 -27.5 5t-34 12t-33 15t-24.5 14q-25 18 -31.5 46t-6.5 57q0 41 13.5 65t43.5 50q9 8 22 18.5t27 19.5t29 15.5t27 6.5q32 0 61 -10.5t51.5 -30t36 -47t13.5 -60.5
zM686 585q0 -6 -5 -13t-12.5 -13.5t-15 -12.5t-11.5 -11q-21 -24 -40 -50.5t-37 -52.5q-16 -23 -30 -47.5t-28 -48.5q-34 -56 -70.5 -109.5t-73.5 -107.5q-20 -28 -32.5 -58t-26.5 -61q-8 -16 -16.5 -23.5t-27.5 -7.5q-7 0 -18.5 3.5t-22 9t-18.5 13t-8 16.5q0 5 11.5 21
t26 34t28.5 34.5t19 22.5q42 54 78 110.5t70 115.5q20 35 43 68.5t46 67.5q6 9 11.5 18.5t12.5 17.5q-24 -2 -48.5 -3.5t-48.5 -1.5q-20 0 -45.5 1.5t-44.5 8.5q2 -16 3 -32t1 -32q0 -27 -7 -54t-29 -46q-12 -10 -29.5 -19t-37 -16t-39 -11t-34.5 -4q-29 0 -50 12t-34 32
t-19 44.5t-6 50.5q0 51 12.5 75.5t33.5 38.5t47.5 26.5t55.5 39.5q9 8 16 13.5t20 5.5q22 0 37.5 -10.5t32.5 -22.5q28 -20 61.5 -25t66.5 -5q29 0 58 2.5t58 4.5q11 10 24 18.5t28 8.5q6 0 17 -2.5t21.5 -7.5t18 -11.5t7.5 -14.5zM741 154q0 17 -9 33.5t-23 29t-31.5 20.5
t-33.5 8q-23 0 -35 -10t-17.5 -25.5t-6.5 -34t-1 -34.5q0 -17 2 -31t8.5 -24.5t18.5 -16.5t32 -6q31 0 51.5 11.5t33.5 40.5q4 8 7.5 18.5t3.5 20.5zM301 532q0 5 -7 12t-17 13t-19.5 10.5t-13.5 4.5q-5 0 -12 -4.5t-11 -7.5q-33 -23 -50.5 -48.5t-17.5 -67.5
q0 -23 13 -43.5t39 -20.5q22 0 40 17t30.5 41t19 50t6.5 44z" />
    <glyph glyph-name="ampersand" unicode="&#x26;" horiz-adv-x="815" 
d="M788 76q0 -7 -7.5 -20.5t-18.5 -27t-22.5 -23.5t-18.5 -10q-17 0 -49.5 15.5t-68.5 36.5t-68.5 42t-48.5 32q-17 -26 -40 -49t-50 -40.5t-57 -28t-62 -10.5q-42 0 -77.5 12.5t-65.5 42.5q-26 26 -43.5 59t-17.5 71q0 28 10 52.5t26 45t36 38.5t41 35q-15 15 -28.5 28
t-24.5 28t-17.5 33t-6.5 41q0 26 17 50.5t42.5 44t54.5 31.5t53 12q22 0 48.5 -8.5t49 -24t37.5 -36.5t15 -46q0 -22 -13 -44t-32 -41.5t-40 -36.5t-37 -29q35 -30 72.5 -56.5t76.5 -51.5q7 17 13 41.5t6 43.5q0 14 -3 22t-7 12.5t-7 8t-3 9.5q0 7 8.5 11.5t19.5 7t22.5 3
t16.5 0.5q23 0 36 -4.5t13 -32.5q0 -40 -13 -85t-30 -81q13 -9 43.5 -28t64.5 -38.5t64 -34t42 -14.5q9 0 18 1t18 1q13 0 13 -10zM337 494q0 12 -7 21t-17.5 15t-22 9.5t-21.5 3.5q-12 0 -25 -5.5t-23 -14.5t-16.5 -21t-6.5 -25q0 -15 6.5 -26.5t15.5 -21t19 -19t16 -20.5
q10 10 24 21.5t27 25t22 28t9 29.5zM419 164q-48 29 -93 61t-85 72q-22 -23 -41 -49.5t-19 -59.5q0 -21 8.5 -40t23 -34t33.5 -24t40 -9q41 0 75.5 26t57.5 57z" />
    <glyph glyph-name="quotesingle" unicode="'" horiz-adv-x="289" 
d="M207 586q0 -14 -3 -31.5t-6 -45t-6 -69t-3 -104.5q0 -11 -8 -17.5t-18.5 -10.5t-20.5 -5.5t-13 -1.5q-19 0 -19 19q0 24 -0.5 55t-2 61t-4.5 55.5t-7 38.5q-5 14 -9.5 22t-4.5 21q0 6 9 12.5t21 12.5t23 10t16 4q21 0 38.5 -7.5t17.5 -18.5z" />
    <glyph glyph-name="parenleft" unicode="(" horiz-adv-x="364" 
d="M336 628q0 -2 -11.5 -17.5t-28.5 -40.5t-37.5 -56.5t-37.5 -66.5t-28.5 -71.5t-11.5 -69.5q0 -75 20 -150q11 -41 31.5 -73.5t46.5 -64.5q3 -4 12 -14.5t18 -22.5t16 -22.5t7 -13.5q0 -7 -9 -11.5t-20.5 -7t-22.5 -3.5t-16 -1q-6 0 -12 4.5t-12 11t-11 13t-8 10.5
q-19 23 -46.5 58t-52.5 73t-43 76.5t-18 68.5q0 42 7.5 84t25.5 80q5 11 17.5 33.5t29 49.5t36 56t38 53t35 39t27.5 15q4 0 14 -1t20 -3t17.5 -5.5t7.5 -9.5z" />
    <glyph glyph-name="parenright" unicode=")" horiz-adv-x="364" 
d="M303 332q0 -42 -7.5 -84t-25.5 -80q-5 -11 -17.5 -33.5t-29.5 -49.5t-36 -56t-38 -53t-35 -39t-27 -15q-4 0 -14 1t-20 3t-17.5 5.5t-7.5 9.5q0 3 11.5 18t28.5 39.5t37.5 56.5t37.5 67t28.5 71t11.5 70q0 75 -20 150q-11 41 -31.5 73.5t-46.5 64.5q-3 4 -12 14.5
t-18 22.5t-16 22.5t-7 13.5q0 7 9 11.5t20.5 7t22.5 3.5t16 1q6 0 12 -4.5t12 -11t11 -13t8 -10.5q19 -23 46.5 -58t52.5 -73t43 -76.5t18 -68.5z" />
    <glyph glyph-name="asterisk" unicode="*" horiz-adv-x="434" 
d="M407 558q-11 -30 -21.5 -48t-25.5 -29t-35 -18.5t-49 -16.5q4 -6 19.5 -23.5t32.5 -37t30 -36t13 -19.5q0 -8 -8.5 -15.5t-20 -13t-23.5 -9t-19 -3.5q-2 0 -3 0.5t-3 0.5q-11 9 -23.5 23.5t-25.5 30t-23.5 31.5t-16.5 29q-5 -7 -21 -26.5t-35 -40t-35.5 -36.5t-22.5 -16
q-8 0 -15 9t-12 21t-7.5 24.5t-2.5 18.5q0 18 14.5 28t27.5 19t25.5 19t25.5 20q-7 3 -22 9t-30 13.5t-26.5 16t-11.5 16.5q0 4 1.5 13.5t4 19.5t6 17.5t8.5 7.5q7 0 23 -6.5t33.5 -14.5t33 -17t22.5 -13q-2 20 -3.5 38.5t-1.5 38.5q0 19 3 37q8 6 23 16.5t24 10.5
q15 0 21.5 -18t8 -41.5t0.5 -46.5t-1 -32q7 6 22.5 17.5t32.5 23.5t33 20.5t24 8.5q23 0 32 -21z" />
    <glyph glyph-name="plus" unicode="+" horiz-adv-x="592" 
d="M341 212v-212h-90v212h-211v84h211v211h90v-211h211v-84h-211z" />
    <glyph glyph-name="comma" unicode="," horiz-adv-x="291" 
d="M223 141q0 -11 -13 -41t-29.5 -64.5t-33 -66t-23.5 -44.5q-4 -2 -12 -5.5t-16.5 -7t-16 -6.5t-10.5 -3q-7 0 -14 2.5t-7 11.5q0 3 6 20t13.5 38t14 41t8.5 28q5 23 4.5 44.5t-0.5 44.5q0 8 9 16t21 15t24 12t18 8q5 -3 14.5 -7.5t19 -10t16.5 -12t7 -13.5z" />
    <glyph glyph-name="hyphen" unicode="-" horiz-adv-x="363" 
d="M309 258q0 -7 -6 -15.5t-11 -13.5q-8 -11 -14.5 -13.5t-19.5 -4.5q-32 -3 -65 -3.5t-65 -0.5h-19t-28.5 2t-25.5 6.5t-11 12.5q0 12 6.5 25t16 25t20.5 22.5t20 16.5q24 -10 49 -13t51 -3q43 0 85 6q5 -9 11 -24.5t6 -24.5z" />
    <glyph glyph-name="period" unicode="." horiz-adv-x="291" 
d="M226 79q-8 -32 -29.5 -50t-46.5 -35q-12 3 -27.5 6.5t-29.5 10t-23.5 17t-9.5 25.5q0 5 11 19.5t25 29.5t27.5 27t18.5 12q6 0 18 -8t25.5 -18.5t24.5 -20.5t16 -15z" />
    <glyph glyph-name="slash" unicode="/" horiz-adv-x="401" 
d="M394 605q-43 -61 -73 -130t-59 -137q-30 -70 -62 -138.5t-64 -137.5q-14 -30 -25 -60.5t-22 -61.5q-2 -8 -6 -14.5t-14 -6.5q-6 0 -19.5 1.5t-27 4.5t-24 8.5t-10.5 13.5q0 5 4.5 9t7.5 7q11 12 18 25t14 28q21 51 45 99.5t48 97.5q36 75 69 150.5t64 152.5q4 9 14 33.5
t23 50t26 45.5t22 20q8 0 16 -7t15 -16.5t12 -20t8 -16.5z" />
    <glyph glyph-name="zero" unicode="0" horiz-adv-x="629" 
d="M553 311q0 -52 -17 -107.5t-49.5 -102t-79 -76.5t-104.5 -30q-44 0 -79 18t-64 50q-42 46 -56 97.5t-14 111.5q0 51 14 106.5t43 101.5t73 75.5t104 29.5q50 0 92 -25.5t72.5 -65.5t47.5 -88.5t17 -94.5zM446 280q0 28 -7.5 65.5t-23.5 71.5t-41.5 57t-61.5 23
q-34 0 -56.5 -23.5t-36 -56.5t-19 -69t-5.5 -62t6 -61.5t20.5 -68t37.5 -55t56 -22.5q38 0 63 20t40 50t21.5 65.5t6.5 65.5z" />
    <glyph glyph-name="one" unicode="1" horiz-adv-x="403" 
d="M314 24q0 -6 -7 -15t-13 -9q-16 0 -31.5 2t-31.5 2q-23 0 -47 -1.5t-47 -3.5q-4 4 -9 9.5t-5 11.5q0 5 6 9.5t12.5 12.5t12.5 20t6 32v44.5t-0.5 68.5t-1.5 79t-3.5 77t-7 62.5t-10.5 35.5q-6 7 -15.5 14.5t-19.5 15t-17 15.5t-7 17q0 8 12.5 12.5t18.5 6.5t23.5 10.5
t36 18t33 17t16.5 7.5q4 0 7 -2t6 -3q6 -2 13 -4t14 -5.5t11.5 -8.5t4.5 -12q0 -23 -4 -47t-6 -47q-2 -29 -2.5 -57t-0.5 -57q0 -68 2 -135.5t7 -135.5q1 -13 3 -19.5t5.5 -11t10 -8.5t17.5 -10q2 -2 5 -3.5t3 -4.5z" />
    <glyph glyph-name="two" unicode="2" horiz-adv-x="559" 
d="M501 105q0 -9 -2.5 -26t-8 -34t-14 -29.5t-20.5 -12.5q-38 0 -76 3.5t-76 3.5h-82.5t-82.5 -2q-15 -1 -30.5 -4.5t-30.5 -3.5q-11 0 -13 9t-2 17q0 10 0.5 19.5t0.5 19.5q0 22 6 31t23 23q31 27 72.5 63.5t79 78.5t63 87.5t25.5 89.5q0 38 -26.5 57.5t-61.5 19.5
q-42 0 -59 -12t-23.5 -27t-11 -27t-20.5 -12h-14q-13 0 -17 5t-9 16q-2 5 -6 15.5t-8 21.5t-7 21t-3 15q0 18 24 29.5t55.5 18.5t62.5 9.5t44 2.5q33 0 68.5 -9.5t65 -28.5t48.5 -47.5t19 -66.5q0 -44 -20.5 -83.5t-51 -75.5t-65.5 -67.5l-65 -58.5q-16 -14 -32 -29.5
t-33 -28.5h110h59.5t59.5 5q12 2 21.5 7t17.5 10.5t14.5 9.5t11.5 4q14 0 17 -8t3 -19z" />
    <glyph glyph-name="three" unicode="3" horiz-adv-x="506" 
d="M422 493q0 -15 -18 -38.5t-40 -48t-40 -47.5t-18 -37q0 -15 18 -30.5t39.5 -33t39.5 -37.5t18 -44q0 -25 -16 -51.5t-41.5 -51.5t-57.5 -47.5t-65 -39.5t-64 -27t-53 -10q-19 0 -29.5 9.5t-21.5 22.5q-6 7 -14.5 17.5t-8.5 19.5q0 12 12.5 15t20.5 4q38 5 74 9.5t71 25.5
q21 13 40.5 34.5t19.5 48.5q0 24 -19 45t-41.5 39.5t-41 34t-18.5 28.5q0 5 9 17t22.5 27.5t29 33t29 33.5t22.5 28t9 18q0 7 -18 14.5t-41 13.5t-44.5 10t-28.5 4q-27 0 -42.5 -11t-21.5 -11q-11 0 -16 10t-5 19q0 10 2 28.5t7 36.5t13.5 31t22.5 13q10 0 30.5 -4.5
t46.5 -11.5t55 -15.5t55 -17t47 -16t31 -11.5q17 -8 28.5 -18.5t11.5 -30.5z" />
    <glyph glyph-name="four" unicode="4" horiz-adv-x="628" 
d="M607 196q0 -6 -7 -21.5t-16 -32.5t-18.5 -30t-14.5 -13q-2 0 -6 1t-6 2q-20 5 -39 6t-39 1h-27q0 -31 1.5 -62t5.5 -62q0 -2 0.5 -4t0.5 -4q0 -8 -6 -12.5t-13 -4.5q-8 0 -25.5 2t-35.5 6t-32.5 10t-15.5 14v3q0 29 8.5 57t8.5 58q-18 1 -36.5 1.5t-36.5 0.5
q-38 0 -75 -1.5t-74 -6.5q-2 0 -4 -0.5t-4 -0.5q-6 0 -15 7t-18.5 17t-17.5 19.5t-13 14.5q69 112 144.5 216t158.5 206q6 3 18.5 8.5t26 11.5t26 10t18.5 4q11 0 13.5 -8t2.5 -16q0 -23 -2 -44.5t-4 -43.5q-2 -23 -1.5 -44.5t-0.5 -44.5q-1 -30 -2 -59.5t-1 -59.5l1 -104
q5 -1 10 -1h10q30 0 59.5 3t58.5 8q5 1 10.5 2t10.5 1q13 0 13 -10zM337 335q0 24 -1 47.5t-1 47.5q-11 -12 -38.5 -44.5t-57 -69.5t-52 -69t-22.5 -44q0 -3 4 -4t9 -2t10 -1h7q30 0 59.5 -2.5t59.5 -2.5h21q0 22 1 43t1 43v58z" />
    <glyph glyph-name="five" unicode="5" horiz-adv-x="518" 
d="M473 570q0 -8 -8 -20.5t-12 -19.5q-8 -12 -12.5 -20t-10 -12.5t-14 -7t-23.5 -3.5q-18 -2 -35.5 -2h-35.5q-29 0 -58.5 2t-58.5 2q-4 0 -8.5 -4t-8 -10t-6 -12t-2.5 -10q0 -8 11.5 -18.5t26.5 -21.5t30 -20.5t22 -13.5q25 -16 50 -32.5t45 -36t32.5 -45t12.5 -59.5
q0 -29 -15 -62.5t-40 -66.5t-57.5 -63t-66.5 -53t-68.5 -37t-62.5 -14q-23 0 -25.5 11.5t-2.5 29.5q0 9 0.5 20.5t3.5 22t10 18t19 7.5q16 0 28.5 0.5t24 3t23 8t25.5 14.5q13 9 29 23.5t29 31.5t22 35t9 36q0 31 -16.5 57t-40.5 49.5t-53 43.5t-53 38.5t-40.5 36
t-16.5 35.5q0 6 7 29t16.5 48.5t19 47t13.5 26.5q5 5 9.5 8t11.5 3q11 0 21.5 -3t21.5 -6q13 -4 26 -4h27q51 0 102.5 2t102.5 2q6 0 13 -3t7 -11z" />
    <glyph glyph-name="six" unicode="6" horiz-adv-x="619" 
d="M532 185q0 -45 -16 -80t-43.5 -60t-64.5 -38t-80 -13q-53 0 -95 21t-71.5 56t-45 81t-15.5 96q0 67 24.5 116.5t66.5 99.5q16 19 41.5 47.5t55.5 55.5t61 46t57 19q6 0 21.5 -2t32 -5.5t29 -9.5t12.5 -14q0 -9 -7.5 -16t-18 -11.5t-21.5 -7.5t-18 -5q-23 -6 -39 -11.5
t-29.5 -13.5t-26 -20t-27.5 -31q-20 -26 -39 -57t-34 -65.5t-24.5 -69.5t-9.5 -68q0 -26 8 -53.5t23.5 -51t38 -38.5t51.5 -15q21 0 39.5 7.5t32.5 21t22 32t8 39.5q0 15 -4.5 35.5t-13.5 39t-23 31.5t-33 13q-20 0 -38.5 -5t-38.5 -5q-13 0 -21 7t-8 20q0 9 8.5 18.5t20 18
t23.5 15t20 10.5q44 -2 82.5 -12t66.5 -30.5t44 -54t16 -83.5z" />
    <glyph glyph-name="seven" unicode="7" horiz-adv-x="539" 
d="M487 536q0 -8 -7 -19t-12 -19q-25 -41 -56 -95t-60.5 -111.5t-52 -114t-31.5 -102.5q-2 -13 -4 -29.5t-15 -23.5q-20 -10 -43 -14.5t-44 -12.5q-4 2 -13.5 6.5t-19.5 9.5t-17.5 10.5t-7.5 10.5q0 7 6 14.5t11 12.5q26 30 44.5 65t36.5 70l149 285q-48 -3 -95 -3.5
t-95 -0.5q-18 0 -36 0.5t-36 0.5q-11 0 -16.5 3.5t-8.5 9.5t-4.5 13.5t-3.5 16.5q-2 6 -3 11.5t-1 11.5q0 5 4 14.5t9.5 19t12 16.5t11.5 7t11 -3.5t14.5 -7.5t19 -7.5t25.5 -3.5q42 0 83.5 -1t83.5 -1q27 0 52 3t51 8q2 0 3 0.5t3 0.5q4 0 12.5 -6.5t17.5 -15t15.5 -17
t6.5 -12.5z" />
    <glyph glyph-name="eight" unicode="8" horiz-adv-x="603" 
d="M527 493q0 -27 -14.5 -54t-36.5 -51.5t-46.5 -45.5t-44.5 -36q24 -14 43.5 -29t34 -33.5t22.5 -41t8 -52.5q0 -41 -19.5 -71t-49.5 -50t-67 -30t-73 -10q-30 0 -63 7t-61.5 22t-47 40t-18.5 61q0 29 13 53t33 43.5t44.5 34.5t48.5 26q-23 12 -43.5 26.5t-37 33.5t-26 42
t-9.5 50q0 54 29 87t71 60q8 5 16 9.5t18 4.5q5 0 12.5 -1t14 -3t11.5 -6.5t5 -11.5q0 -8 -11.5 -18.5t-25.5 -25t-25.5 -34t-11.5 -44.5q0 -21 9.5 -37.5t23.5 -29t31.5 -22.5t34.5 -18q16 12 33 26.5t31 31.5t23 36.5t9 41.5q0 29 -14.5 43.5t-32.5 21.5t-32.5 10.5
t-14.5 11.5q0 7 8.5 19.5t20 23.5t23.5 19.5t20 8.5q5 0 14.5 -6t14.5 -9q16 -11 34.5 -23t34.5 -27t26 -33.5t10 -40.5zM388 141q0 18 -8.5 34.5t-21.5 30t-29 24.5t-31 17q-16 -9 -33 -22.5t-30.5 -30.5t-22.5 -36t-9 -39q0 -17 8.5 -30t22 -21t29.5 -12t31 -4
q18 0 34.5 7t30 19t21.5 28.5t8 34.5z" />
    <glyph glyph-name="nine" unicode="9" horiz-adv-x="573" 
d="M494 401q0 -34 -10.5 -65.5t-27 -61t-35.5 -57.5t-37 -55q-26 -38 -48 -76t-43 -78q-9 -17 -17.5 -20.5t-26.5 -7.5q-18 -5 -36 -9t-36 -4t-18 18q0 7 17 29t42 55t54.5 73.5t54.5 84t42 88t17 85.5q0 51 -31 86t-84 35q-21 0 -40.5 -6.5t-34.5 -19t-24 -30t-9 -39.5
q0 -21 8.5 -34.5t22.5 -21t31.5 -10t35.5 -2.5q11 0 23 2t23 2q7 0 12 -2.5t5 -10.5t-6 -16.5t-11 -14.5q-18 -23 -42.5 -40.5t-54.5 -17.5q-31 0 -56.5 13.5t-44 36t-29 50.5t-10.5 57q0 47 16.5 81.5t45.5 56.5t67 32.5t82 10.5q35 0 68.5 -7t62.5 -29q17 -13 32 -31.5
t26 -40t17.5 -44.5t6.5 -45z" />
    <glyph glyph-name="colon" unicode=":" horiz-adv-x="380" 
d="M293 312q0 -10 -11.5 -23t-27 -24.5t-31.5 -19.5t-25 -8q-8 0 -19 11t-21.5 26t-17.5 30t-7 23q0 10 12 18t27.5 15t31 12t23.5 9q9 -6 20.5 -12.5t21.5 -15t17 -18.5t7 -23zM280 67q0 -9 -9.5 -21t-22.5 -23.5t-26.5 -19t-22.5 -7.5q-8 0 -21 5t-25.5 12.5t-21.5 17
t-9 18.5q0 14 9 29t22 29.5t27 26.5t24 20q8 -5 21 -15.5t25 -23t21 -25.5t9 -23z" />
    <glyph glyph-name="semicolon" unicode=";" horiz-adv-x="380" 
d="M294 309q0 -12 -11.5 -25t-27 -24t-32.5 -18.5t-27 -9.5q-7 8 -16 20t-17.5 25.5t-14.5 27t-6 23.5q0 6 10 14.5t23.5 16.5t26.5 14t19 9q9 -4 21.5 -12t24 -18t19.5 -21t8 -22zM269 117q0 -13 -7.5 -33t-18 -41t-21 -40.5l-17.5 -32.5q-9 -17 -18 -32t-28 -23
q-9 -4 -23 -6.5t-24 -2.5q-5 0 -10.5 2.5t-5.5 8.5q0 3 5.5 18.5t12 34t13 36t8.5 24.5q5 19 9 37.5t5 38.5q1 14 2.5 19t13.5 13l12.5 7.5t15.5 8t16 6.5t14 3q5 0 13 -5t15.5 -12.5t12.5 -15.5t5 -13z" />
    <glyph glyph-name="less" unicode="&#x3c;" horiz-adv-x="592" 
d="M40 209v89l512 199v-93l-400 -151l400 -150v-94z" />
    <glyph glyph-name="equal" unicode="=" horiz-adv-x="592" 
d="M40 315v84h512v-84h-512zM40 108v84h512v-84h-512z" />
    <glyph glyph-name="greater" unicode="&#x3e;" horiz-adv-x="592" 
d="M40 9v94l400 150l-400 151v93l512 -199v-89z" />
    <glyph glyph-name="question" unicode="?" horiz-adv-x="507" 
d="M455 411q0 -25 -5.5 -46t-21.5 -41q-14 -17 -35.5 -30t-40.5 -24q-27 -17 -51 -37.5t-49 -40.5q-5 -4 -12 -9t-14 -5q-6 0 -11 10t-8.5 23.5t-5 26t-1.5 18.5q0 10 24 23.5t52.5 32.5t52.5 43.5t24 55.5q0 19 -7 39t-19 36.5t-29.5 27t-38.5 10.5q-35 0 -48.5 -16
t-17.5 -48q-1 -9 -7.5 -14.5t-15.5 -8.5t-18.5 -3.5t-17.5 -0.5q-17 0 -25 4t-11.5 11.5t-4.5 17.5t-3 23q-1 5 -1.5 9t-0.5 9q0 18 21.5 34.5t50.5 29t58 19.5t44 7q27 0 57.5 -7t54.5 -19t39.5 -29t25 -38t13 -44.5t3.5 -48.5zM314 43q0 -25 -10 -37t-36 -12q-9 0 -25.5 3
t-32.5 9t-28 15t-12 21q0 6 8.5 21.5t19.5 32t22.5 29.5t17.5 13q4 0 11.5 -3.5t15 -8t14.5 -9.5t10 -8q15 -14 20 -30t5 -36z" />
    <glyph glyph-name="at" unicode="@" horiz-adv-x="846" 
d="M526 115q-8 7 -13 16t-8.5 17.5t-6 14t-5.5 5.5q-5 0 -9.5 -8t-21.5 -25q-22 -22 -44.5 -32.5t-55.5 -10.5q-23 0 -46.5 9.5t-43 29.5t-32 51.5t-12.5 75.5q0 37 17.5 76.5t60.5 70.5q32 23 61.5 31t66.5 8q31 0 55 -14t44 -49l5 24q2 10 12.5 17t38.5 7q11 0 22.5 -5
t11.5 -16q0 -7 -3 -18t-7.5 -24.5t-9 -28t-8.5 -27.5q-12 -45 -16.5 -71t-4.5 -41q0 -22 6.5 -34.5t20.5 -12.5q37 0 58.5 38.5t21.5 108.5q0 49 -15 99t-46 90.5t-77 66t-109 25.5q-42 0 -89.5 -15t-87 -49t-66 -88.5t-26.5 -133.5q0 -61 17 -115t46.5 -94.5t69.5 -64.5
t86 -24q23 0 35 4.5t27 18.5q23 20 31.5 26t19.5 6q6 0 16 -3.5t20 -9.5t17.5 -13.5t7.5 -15.5q0 -12 -12 -24t-33 -21t-50 -14.5t-63 -5.5q-88 0 -150.5 29.5t-102.5 77t-58.5 107.5t-18.5 121q0 71 27.5 135t77 112.5t116.5 77t147 28.5q88 0 152 -29t105 -75t61 -103
t20 -112q0 -37 -10.5 -75.5t-32.5 -70t-55.5 -52t-78.5 -20.5q-21 0 -39.5 4t-33.5 17zM389 163q15 0 35.5 17t38.5 46q10 16 14 38t4 31q0 34 -17.5 60.5t-42.5 26.5q-16 0 -32.5 -7.5t-30 -23.5t-22.5 -39.5t-9 -55.5q0 -41 13.5 -67t48.5 -26z" />
    <glyph glyph-name="A" unicode="A" horiz-adv-x="724" 
d="M688 40q0 -11 -7 -22.5t-20 -11.5q-6 0 -22.5 2t-34.5 5t-33.5 6t-18.5 6q-6 5 -7.5 9.5l-3.5 10.5q-12 35 -28 70.5t-37 66.5q-41 6 -81.5 10t-82.5 4q-19 0 -37.5 -1t-37.5 -4q-5 -8 -17 -30.5t-25 -48t-23 -47t-11 -26.5q-5 -14 -9 -21.5t-10 -10.5t-15 -3.5t-22 -0.5
q-20 0 -40.5 -2.5t-40.5 -2.5q-11 0 -12 9t-1 17q0 15 3.5 21t9.5 9t13.5 5t16.5 8t20 22.5t22 35t20.5 37t15.5 29.5q8 16 22.5 42t30.5 58t32.5 66t29.5 65t21.5 57t8.5 41q0 14 -5 26t-5 25q0 6 12 12.5t28 11t30.5 7.5t20.5 3q10 0 20.5 -12.5t19.5 -29t16.5 -33.5
t11.5 -25q28 -57 56 -115t58 -114.5t64 -110.5t73 -105q4 -5 7.5 -9.5t3.5 -10.5zM438 268q-20 40 -37.5 80.5t-39.5 78.5q-1 2 -5 8.5t-6 6.5q-4 0 -6 -5t-4 -8l-58 -129l-8 -16t-7 -16l3 -2h124q11 0 21.5 0.5t21.5 0.5z" />
    <glyph glyph-name="B" unicode="B" horiz-adv-x="510" 
d="M452 195q0 -32 -8 -57t-34 -47q-21 -18 -53 -34.5t-68 -29t-71.5 -20.5t-62.5 -8q-7 0 -19 0.5t-23.5 3t-20 8t-8.5 15.5q0 1 3 7t6.5 14l7 16t4.5 14q10 62 12.5 126t2.5 127q0 28 -2 55t-4 55q-1 11 -2.5 16t-4.5 7t-8.5 3.5t-15.5 5.5q-12 5 -17.5 9.5t-5.5 18.5
q0 11 6.5 16.5t14.5 10.5q12 7 35.5 21.5t49.5 28.5t49.5 24.5t35.5 10.5q27 0 60 -3.5t62.5 -15t49.5 -32.5t20 -57q0 -25 -11.5 -47t-28.5 -42t-36.5 -37.5t-35.5 -32.5q19 -14 40.5 -29t39.5 -33t29.5 -39.5t11.5 -48.5zM331 482q0 18 -9.5 30.5t-24 20.5t-31 11.5
t-31.5 3.5q-5 0 -11 -1.5t-10 -6.5q-2 -21 -3 -42.5t-1 -42.5v-90l10 -7.5t11 -4.5t11.5 5.5t10.5 8.5q12 10 26 23t25.5 27.5t19 31t7.5 33.5zM360 173q0 19 -13.5 38t-32.5 35.5t-39.5 30t-35.5 22.5q-8 -3 -16.5 -7t-13.5 -12q-1 -2 -1.5 -16t-1 -30.5t-1 -32t-0.5 -19.5
v-58v-10t1 -17t2.5 -16t4.5 -7q18 0 43.5 7t48.5 20t39 31.5t16 40.5z" />
    <glyph glyph-name="C" unicode="C" horiz-adv-x="582" 
d="M542 106q0 -11 -8 -21t-15 -17q-23 -26 -48.5 -41t-53 -22.5t-57.5 -10t-63 -2.5q-38 0 -69.5 14.5t-60.5 37.5q-29 22 -47 44t-28 46.5t-13.5 53t-3.5 63.5q0 52 8 97.5t27 83.5t51.5 69t82.5 54q43 20 85 30.5t90 10.5q23 0 39.5 -4.5t34.5 -17.5q7 -5 18 -14t11 -19
q0 -8 -8.5 -19t-20.5 -21.5t-24 -18t-19 -7.5q-11 0 -19.5 6t-18 12.5t-21.5 12.5t-28 6q-33 0 -58.5 -12.5t-44.5 -33.5t-32.5 -47.5t-22.5 -54.5q-8 -26 -14.5 -52.5t-6.5 -53.5q0 -30 9.5 -64t28 -62.5t45.5 -47t62 -18.5q32 0 63 12.5t55.5 27t41 27t19.5 12.5
q4 0 10 -4.5t11 -11t9 -13t4 -10.5z" />
    <glyph glyph-name="D" unicode="D" horiz-adv-x="605" 
d="M547 356q0 -45 -2.5 -85.5t-13 -77t-32 -69t-60.5 -60.5q-21 -16 -49 -30.5t-58 -26t-60 -18t-57 -6.5q-26 0 -51 4.5t-51 9.5q-9 2 -19.5 5t-10.5 16q0 3 4.5 10.5t10 17.5t10.5 19.5t7 17.5q10 47 9.5 98t-0.5 99q0 34 -0.5 67t-3.5 67q-2 20 -5.5 39t-5.5 39
q-6 3 -13.5 7t-14 9.5t-11.5 11.5t-5 14q0 11 7.5 15.5t15.5 8.5q17 7 44 15.5t56.5 15.5t57.5 11.5t46 4.5q24 0 51.5 -7.5t54.5 -20t51 -28.5t41 -33q30 -32 43.5 -74.5t13.5 -85.5zM436 327q0 42 -13.5 84t-43.5 73q-21 22 -51 38t-61 16q-12 0 -24 -4.5t-22 -12.5v-7
q0 -72 0.5 -143.5t0.5 -143.5q0 -40 -0.5 -80.5t2.5 -81.5q3 -1 6.5 -1h6.5q73 0 120 27.5t64 102.5q8 32 11.5 66t3.5 67z" />
    <glyph glyph-name="E" unicode="E" horiz-adv-x="506" 
d="M435 43q0 -5 -1.5 -8.5t-3.5 -7.5l-9 -25q-5 -14 -11 -17t-20 -6q-19 -4 -38 -5.5t-38 -1.5q-66 0 -111 16.5t-73 49t-40 80.5t-12 111q0 47 3 97.5t14.5 99t34 91t62.5 74.5q26 20 62.5 23.5t67.5 3.5q18 0 34 -1.5t28.5 -7.5t19.5 -18.5t7 -34.5q0 -11 -8.5 -14
t-17.5 -3q-8 0 -15.5 1t-15.5 1q-20 0 -43 -1t-41 -7q-21 -7 -36.5 -30.5t-26 -53t-15.5 -60t-5 -49.5q35 4 68.5 5t68.5 1h16.5t25.5 -1.5t23 -5.5t10 -11q0 -8 -6.5 -15t-11.5 -13q-14 -17 -22 -24.5t-31 -10.5q-37 -5 -74 -6t-74 -1q0 -26 3.5 -51t12.5 -48t24 -42.5
t38 -34.5q35 -22 75 -23t78 -1q8 0 16 -2.5t8 -12.5z" />
    <glyph glyph-name="F" unicode="F" horiz-adv-x="536" 
d="M503 578q0 -11 -3.5 -22t-8.5 -21q-5 -9 -13 -13.5t-18 -6.5t-20 -2.5t-19 -1.5q-29 -3 -58 -5l-58 -4q-17 -2 -35 -4t-35 -1q0 -39 -3 -77.5t-3 -77.5q0 -8 0.5 -16t0.5 -16h55q45 0 90.5 5t90.5 5q12 0 14 -11.5t2 -19.5q0 -19 -5.5 -29.5t-15.5 -15t-23.5 -6
t-28.5 -2.5q-45 -3 -88.5 -9t-88.5 -5q0 -52 -1.5 -104t-1.5 -104q0 -20 3.5 -40t3.5 -35q0 -6 -6 -11t-12 -5t-21 3.5t-30 10t-27 15.5t-12 19q0 48 5 95.5t5 95.5q0 16 -4 30t-8.5 27.5t-8 26.5t-3.5 26q0 17 9 31.5t9 31.5q0 40 -3.5 81.5t-21.5 77.5q-4 7 -7 14t-3 15
q0 4 8.5 15.5t20 23.5t22 21t14.5 9q42 0 83.5 -3.5t83.5 -3.5q40 0 79 4.5t79 4.5q16 0 16 -16z" />
    <glyph glyph-name="G" unicode="G" horiz-adv-x="571" 
d="M527 539q0 -7 -8.5 -16.5t-20.5 -18t-24 -14.5t-18 -6q-3 0 -13.5 6t-25 12.5t-31 12.5t-32.5 6q-33 0 -65.5 -26.5t-59.5 -64t-46 -78.5t-25 -69q-8 -35 -8 -66q0 -25 8 -53t23 -48q14 -20 36.5 -24t45.5 -4q32 0 66 10.5t60 27.5q8 30 9 49.5t7 31.5t23 16.5t58 4.5
q11 0 14 -7t3 -16q0 -26 -1.5 -52.5t-1.5 -52.5q0 -44 2 -87t2 -87q0 -9 -6.5 -10t-13.5 -1q-20 0 -30.5 1t-16 6.5t-8 16t-6.5 29.5l-8 50q-48 -9 -97 -9q-54 0 -103.5 15.5t-87 46t-60 75t-22.5 103.5q0 36 12 80t32.5 86t47.5 78t57 57q19 13 49.5 23t64 17t66 10t56.5 3
q10 0 26 -6t32 -15t27.5 -20.5t11.5 -22.5z" />
    <glyph glyph-name="H" unicode="H" horiz-adv-x="687" 
d="M617 320q0 -24 -14.5 -43.5t-39.5 -19.5q0 -50 -0.5 -99t-0.5 -99q0 -7 -5.5 -16.5t-13.5 -18.5t-17 -15t-16 -6q-5 0 -8.5 1t-8.5 2q-17 4 -19 9.5t-3 21.5q-2 39 -4 77.5t-4 77.5q-1 17 -0.5 34t-3.5 34q-6 1 -11.5 1h-11.5q-49 0 -99.5 -4t-98.5 -13q-5 -1 -6 -1.5
t-3 -5.5q-3 -9 -3.5 -36.5t0 -60.5t1 -63.5t0.5 -43.5q0 -10 -10 -17.5t-24 -12t-28 -6.5t-21 -2q-8 0 -10.5 7t-2.5 13q0 46 2.5 92t2.5 92q0 65 -1.5 130t-9.5 129q-2 19 -10 30t-16.5 18.5t-15.5 13.5t-7 14q0 4 8.5 13.5t19.5 19t21.5 17t14.5 7.5q6 0 25 -7t40 -16.5
t37 -18t16 -11.5q0 -5 -2.5 -13.5t-6 -18t-6.5 -19t-4 -16.5q-5 -24 -5.5 -48.5t-0.5 -48.5v-37h10q20 0 41 -1t41 -1h54q20 0 40 0.5t40 0.5l-1 104q0 21 -4 41.5t-4 41.5q0 12 18 21t42 14.5t47 8.5t32 3q8 0 14 -3t6 -12q0 -5 -2.5 -9t-4.5 -9q-14 -23 -20.5 -47.5
t-10.5 -50.5t-5 -51t-3 -51q7 0 13 0.5t13 0.5q10 0 19 -3t9 -15z" />
    <glyph glyph-name="I" unicode="I" horiz-adv-x="324" 
d="M239 567q0 -24 -5 -47.5t-7 -47.5q-4 -43 -6 -86t-4 -87q-2 -70 -1 -139.5t1 -139.5q0 -16 -9 -20.5t-22 -7.5q-12 -3 -25 -6t-26 -3q-8 0 -9.5 4.5t-1.5 10.5v97t-2 97q-2 53 -5.5 105.5t-8.5 105.5q-2 21 -4.5 39.5t-13.5 37.5q-6 10 -10.5 24.5t-4.5 25.5
q0 6 12.5 18.5t29 25t31.5 22t21 9.5q5 0 16.5 -3.5t23.5 -9.5t21 -12.5t9 -12.5z" />
    <glyph glyph-name="J" unicode="J" horiz-adv-x="344" 
d="M254 589q0 -28 -3 -56t-3 -56v-144q0 -59 -1 -117t-12.5 -112t-37.5 -103.5t-76 -89.5q-8 -6 -19.5 -13t-24 -13t-25 -10t-22.5 -4q-14 0 -26 6t-21.5 16t-15 23t-5.5 26q0 16 5.5 28t24.5 12q17 0 34 -5t34 -5q12 0 20.5 2t16.5 13q29 43 37 89.5t8 96.5q0 70 -1 140
t-5 140q-1 18 -2 28.5t-4.5 18t-11 14.5t-21.5 18q-5 4 -8.5 7.5t-3.5 10.5q0 11 7.5 18.5t15.5 12.5q7 4 19.5 13t26.5 17.5t27 15t20 6.5t16 -4t17 -10.5t14 -14.5t6 -15z" />
    <glyph glyph-name="K" unicode="K" horiz-adv-x="707" 
d="M782 50q0 -11 -10 -24t-23.5 -25.5t-27.5 -23l-22 -16.5q-21 7 -42.5 20.5t-42.5 29.5t-41 32t-39 30q-81 58 -165 109t-173 96q0 -45 0.5 -89t4.5 -89q1 -10 2 -19.5t1 -19.5q0 -13 -8.5 -27.5t-21.5 -26.5t-28 -19.5t-28 -7.5q-8 0 -12 6t-5.5 14t-2 16t-0.5 13
q0 61 2.5 121.5t2.5 121.5q0 44 -1.5 87t-3.5 87q-1 16 -1 26t-2 18.5t-7 17t-14 22.5q-3 5 -6 9.5t-3 9.5q0 6 11 17t25 22.5t28 19.5t20 8t17 -5.5t21 -13.5t17.5 -16.5t7.5 -15.5q0 -11 -2 -21t-4 -21q-5 -39 -7.5 -78t-2.5 -78l20 -6q66 47 129 97t120 107l12 12t15 7
q13 0 26 -7t23.5 -18t17.5 -24.5t7 -26.5q0 -10 -6 -17q-28 -9 -62 -28.5t-68.5 -42.5t-66.5 -48t-55 -44q23 -11 43.5 -24.5t40.5 -27.5q71 -48 144.5 -91.5t149.5 -81.5q19 -10 37.5 -16t38.5 -14q8 -3 14 -8.5t6 -14.5z" />
    <glyph glyph-name="L" unicode="L" horiz-adv-x="499" 
d="M484 95q0 -2 -5.5 -13.5t-12.5 -26t-14 -27t-9 -16.5q-3 -6 -7 -10t-12 -4q-11 0 -21 3.5t-21 7.5q-10 4 -25.5 4h-26.5q-33 0 -66.5 -1t-66.5 -3q-20 -2 -39.5 -3t-39.5 -6q-6 -2 -10 -2q-5 0 -10 7.5t-10 17t-8 19t-3 13.5q0 1 3 6.5t7 12.5t7.5 14t4.5 12
q5 26 5.5 53.5t0.5 53.5q0 69 -0.5 139t-11.5 138q-1 5 -4.5 17.5t-7.5 25.5t-7.5 23.5t-3.5 11.5q0 7 10.5 18.5t25 22t28.5 18t21 7.5q5 0 15 -4.5t19.5 -10.5t17 -13t7.5 -12q0 -8 -2 -16.5t-4 -16.5q-5 -26 -7 -52.5t-2 -53.5q0 -33 0.5 -66t0.5 -66v-69q0 -41 -1 -81
t-3 -81h7q49 0 98 3t97 8q7 1 15.5 4t16.5 6.5t14.5 6t9.5 2.5q7 0 18.5 -6.5t11.5 -14.5z" />
    <glyph glyph-name="M" unicode="M" horiz-adv-x="1092" 
d="M1042 79q0 -9 -13 -19.5t-30 -20.5t-33.5 -16.5t-24.5 -6.5q-10 0 -16.5 17t-11 43t-7 57t-4 60t-2.5 52t-1 32q-30 -29 -67.5 -61t-79 -59t-86 -44.5t-87.5 -17.5q-45 0 -92 23.5t-90.5 58t-82 74t-65.5 71.5q-11 -31 -20 -62t-18 -63q-11 -36 -22 -71.5t-18 -72.5
q-2 -10 -3.5 -24t-9.5 -20q-3 -3 -12 -5t-19 -3.5t-19.5 -2t-14.5 -0.5q-6 0 -16 2.5t-20 7t-17.5 10.5t-7.5 13t4.5 17t10.5 20.5t12 20.5t10 16q15 24 31 58.5t28.5 72.5t20.5 74.5t8 65.5q0 34 -16 67.5t-35.5 62t-35.5 48.5t-16 27q0 9 12.5 16t28.5 12t31.5 8t22.5 3
q9 0 13.5 -4t9.5 -10q21 -26 51.5 -68t66.5 -90.5t75 -97.5t78 -88.5t76 -64.5t69 -25q28 0 56 12t54.5 30.5t49.5 40t41 41.5q47 53 77 109.5t56 121.5q3 7 6.5 13.5t12.5 6.5q8 0 20.5 -3t24.5 -9t21 -14t9 -17q0 -11 -3 -21t-5 -21q-10 -45 -17.5 -92t-7.5 -94
q0 -48 13.5 -86.5t33.5 -80.5q3 -6 7.5 -14.5t4.5 -15.5z" />
    <glyph glyph-name="N" unicode="N" horiz-adv-x="885" 
d="M805 37q0 -16 -10.5 -23.5t-22.5 -14.5q-10 -5 -26 -14.5t-27 -9.5q-9 0 -14 5.5t-8 13.5t-5.5 16.5t-7.5 14.5q-6 8 -14.5 13t-16.5 10q-53 31 -108 60t-109 60.5t-104.5 67t-94.5 79.5q1 -8 1 -16.5v-16.5q0 -59 -5 -117.5t-12 -117.5q-2 -15 -3.5 -23.5t-5 -14.5
t-10 -11.5t-18.5 -14.5q-4 -3 -8.5 -6.5t-9.5 -3.5q-6 0 -16.5 3t-21 8.5t-18.5 12t-8 13.5q0 9 3 21.5t7 26.5t8.5 27.5t6.5 23.5q11 50 17 97.5t6 98.5q0 10 -0.5 23.5t-2 26.5t-6 24.5t-11.5 19.5q-8 8 -26.5 26t-38 37.5t-34 38t-14.5 28.5q0 7 8 15.5t19.5 16
t22.5 12.5t17 5q7 0 13 -2.5t12 -5.5q14 -7 38.5 -28t51 -46t51 -49t39.5 -37q38 -35 77.5 -68.5t81.5 -65.5q59 -45 122 -84t131 -70q5 40 7.5 80t2.5 80q0 41 -2.5 81.5t-9.5 80.5q-2 10 -8.5 25.5t-13 30.5t-12 27.5t-5.5 17.5q0 9 16.5 16t37.5 11.5t41 7t28 2.5
q18 0 18 -19q0 -26 -2.5 -52.5t-4.5 -52.5q-2 -52 -3.5 -103.5t-1.5 -103.5q0 -103 15 -203q1 -4 1 -11z" />
    <glyph glyph-name="O" unicode="O" horiz-adv-x="630" 
d="M577 334q0 -61 -18 -119.5t-53 -104t-86 -73.5t-118 -28q-56 0 -99.5 21t-74.5 57t-47 83t-16 100q0 59 18.5 117t54 103.5t86 73.5t115.5 28q57 0 101 -20t74.5 -55t46.5 -82t16 -101zM474 297q0 35 -6.5 72t-22.5 67t-43.5 49.5t-70.5 19.5q-42 0 -72.5 -17.5
t-50.5 -45.5t-29.5 -64t-9.5 -73q0 -36 10 -71.5t30 -63.5t50 -45.5t71 -17.5q42 0 69.5 16.5t44 43.5t23.5 61t7 69z" />
    <glyph glyph-name="P" unicode="P" horiz-adv-x="497" 
d="M466 456q0 -36 -14 -66.5t-36 -56.5t-50.5 -46.5t-56.5 -36.5q-7 2 -21 6.5t-28.5 11.5t-25 15t-10.5 17q0 11 11 13.5t18 4.5q47 14 77 48.5t30 84.5q0 41 -26 63.5t-65 22.5q-17 0 -30 -5.5t-27 -15.5q-6 -59 -8.5 -118.5t-3.5 -119t-1.5 -119t-3.5 -118.5
q-1 -15 -1 -30t-14 -26q-12 -10 -30.5 -15.5t-33.5 -5.5q-5 0 -12 2.5t-7 9.5t1.5 14t2.5 14q3 38 3.5 76t0.5 76q0 84 -1.5 167t-9.5 167q-7 11 -13 18t-6 21q0 16 22 32t51 28t57.5 19.5t42.5 7.5q38 0 76.5 -8t70 -27t51.5 -49.5t20 -75.5z" />
    <glyph glyph-name="Q" unicode="Q" horiz-adv-x="699" 
d="M892 -72q0 -7 -12 -19.5t-28 -25t-31.5 -23.5t-21.5 -14q-7 -4 -13.5 -4.5t-14.5 -0.5q-27 0 -58 5.5t-63 13.5t-63 18t-56 18q-45 14 -96.5 34.5t-102 46.5t-97 59t-82.5 73.5t-57 88.5t-21 104q0 60 25 113.5t66.5 94.5t96 65t113.5 24q45 0 86.5 -15t73 -43
t50.5 -66.5t19 -86.5q0 -38 -12.5 -72t-32 -64.5t-44 -58t-49.5 -52.5l-7.5 -7.5t-10 -9.5t-10.5 -8.5t-8 -3.5q-5 0 -17 1.5t-25 5t-22.5 8.5t-9.5 11q0 4 20.5 21.5t45.5 47t45.5 71t20.5 94.5q0 25 -6 51.5t-19.5 48.5t-34.5 36t-50 14q-36 0 -71 -15.5t-62.5 -41.5
t-44 -60t-16.5 -71q0 -59 30 -112t78.5 -97.5t111.5 -80.5t128.5 -61t128.5 -38.5t113 -13.5q25 0 48.5 8t48.5 8q8 0 14 -5.5t6 -13.5z" />
    <glyph glyph-name="R" unicode="R" horiz-adv-x="493" 
d="M499 59q0 -9 -6.5 -18t-15.5 -16t-19.5 -11.5t-19.5 -4.5q-8 0 -15 0.5t-14 3.5q-2 1 -11 11.5t-20 23.5t-21 25t-13 16q-37 45 -76.5 89t-84.5 81q1 -48 0.5 -94.5t2.5 -94.5q1 -13 5 -26t4 -26q0 -8 -5.5 -12t-13 -6.5t-16 -3t-13.5 -0.5q-8 0 -22 2.5t-28.5 7.5
t-25 12.5t-10.5 17.5q0 3 2 7t4 6q5 9 7.5 18.5t4.5 19.5q10 37 11.5 75.5t1.5 76.5q0 60 1.5 121.5t-6.5 120.5q-2 12 -6 16t-9 6.5t-8.5 6t-3.5 13.5q0 11 2.5 16.5t11.5 12.5q16 13 37.5 24.5t45.5 20.5t47.5 14t44.5 5q67 0 108.5 -32.5t41.5 -103.5q0 -37 -10 -63
t-25.5 -44t-34 -29.5t-35.5 -18.5t-29.5 -12.5t-15.5 -10.5l13 -5q15 -6 27 -20.5t22 -26.5q35 -41 71.5 -79.5t77.5 -73.5q3 -2 9 -7t13 -11t12 -11.5t5 -8.5zM310 478q0 14 -6 26t-16 20.5t-23 13.5t-26 5q-9 0 -23 -2.5t-22 -7.5q-3 -2 -5 -14.5t-3.5 -32t-2.5 -42
t-1.5 -43t-1 -36.5t-0.5 -22q0 -7 8 -7q7 0 19 6.5t24.5 15t24 17.5t16.5 14q20 20 29 40t9 49z" />
    <glyph glyph-name="S" unicode="S" horiz-adv-x="417" 
d="M373 608q0 -9 -4.5 -24.5t-9.5 -23.5q-3 -4 -16 -5t-31.5 -2t-39.5 -3t-38.5 -8.5t-29 -19.5t-11.5 -35q0 -13 9.5 -38t24 -56.5t31 -66.5t31 -68.5t24 -63t9.5 -48.5q0 -24 -7.5 -46.5t-16.5 -44.5q-9 -23 -19.5 -39t-24 -26.5t-32 -15t-43.5 -4.5q-18 0 -45 3.5
t-43 10.5q-12 5 -18 14.5t-8.5 21t-3 23.5t-0.5 23q0 7 4 12.5t12 5.5q13 0 25.5 -3.5t26 -8t27 -8t27.5 -3.5q20 0 35.5 11t15.5 34q0 8 -7.5 25.5t-19 40.5t-25.5 48.5t-27 49.5t-24.5 42.5t-16.5 27.5q-15 25 -24.5 47t-9.5 51q0 33 17.5 67t44.5 62.5t61 46.5t67 18
q6 0 23 -0.5t35 -2.5t31.5 -7t13.5 -14z" />
    <glyph glyph-name="T" unicode="T" horiz-adv-x="507" 
d="M485 558q0 -10 -9.5 -23.5t-15.5 -21.5q-9 -11 -16.5 -17t-22.5 -8q-35 -4 -70.5 -4.5t-70.5 -5.5q-10 -75 -13.5 -150t-3.5 -150q0 -24 3.5 -47t17.5 -43q25 -13 50.5 -12.5t52.5 0.5q8 0 10.5 -5.5t2.5 -12.5q0 -11 -2.5 -26t-11.5 -23q-6 -5 -18 -9.5t-25.5 -8
t-27 -5.5t-21.5 -2q-26 0 -49.5 10.5t-41.5 28t-28.5 41t-10.5 49.5q0 11 2 21t4 21q8 43 10.5 86t2.5 87q0 37 -2 74l-4 74q-32 0 -65 -0.5t-65 -0.5q-22 0 -31.5 17t-9.5 37q0 4 4 11.5t9.5 15t12 13t11.5 5.5q9 -3 31.5 -5.5t48.5 -4t50 -2t36 -0.5q44 0 86.5 2t86.5 5
q21 2 42.5 4.5t42.5 2.5q8 0 13 -5t5 -13z" />
    <glyph glyph-name="U" unicode="U" horiz-adv-x="881" 
d="M891 487q0 -13 -9 -31l-15 -30q-24 -50 -51 -103.5t-59.5 -103.5t-72 -93.5t-88.5 -73.5q-29 -17 -62 -29.5t-67 -12.5q-54 0 -98 24.5t-84 58.5q-25 22 -56.5 52.5t-63.5 66.5t-62 76.5t-54 81t-38 80t-14 74.5q0 10 4 14t12 8t24 8.5t33.5 8.5t34 7t25.5 3t17.5 -5.5
t8.5 -16.5q0 -20 -7 -39t-7 -39q0 -32 13.5 -64.5t34 -63.5t45 -58t45.5 -49q18 -18 42.5 -41.5t52 -44t56.5 -35t56 -14.5q26 0 51.5 9t48 24.5t41.5 35.5t33 41q31 49 49.5 109t29.5 117q5 22 7.5 43.5t6.5 43.5q2 11 4.5 18.5t16.5 7.5q10 0 29 -6t38.5 -15t34 -20.5
t14.5 -23.5z" />
    <glyph glyph-name="V" unicode="V" horiz-adv-x="823" 
d="M885 516q0 -11 -15 -39.5t-39.5 -67.5t-56.5 -84.5t-66 -91.5t-67.5 -89t-61.5 -76t-47 -53t-25 -20q-5 0 -10 2.5t-10 4.5q-9 4 -14.5 6t-9 5t-6.5 7.5t-7 14.5q-5 12 -19 31t-31 39t-33 39t-26 31q-60 73 -122.5 144.5t-134.5 133.5q-8 6 -22.5 17t-28.5 23.5t-25 25
t-11 22.5q0 8 4.5 14t11.5 10q5 3 20 13t31.5 20.5t30.5 18.5t17 8q14 0 17.5 -7t7.5 -18q8 -22 17.5 -38t23.5 -35q81 -105 170 -202.5t173 -199.5q31 30 62 70.5t58.5 85.5t50 90.5t36.5 86.5q8 22 12.5 43.5t9.5 44.5q2 11 5 21.5t17 10.5q5 0 23.5 -7.5t38.5 -17.5
t35.5 -20.5t15.5 -16.5z" />
    <glyph glyph-name="W" unicode="W" horiz-adv-x="937" 
d="M952 506q0 -11 -6 -19.5t-11 -16.5q-66 -97 -121.5 -198.5t-100.5 -208.5q-10 -23 -18 -50q-2 -9 -5.5 -16t-14.5 -7q-27 0 -54 11q-18 8 -22 18.5t-9 27.5q-17 57 -38.5 113t-53.5 107q-12 -15 -33 -42.5t-42.5 -57.5t-40 -58t-26.5 -44q-5 -10 -7.5 -20t-6.5 -21
t-14 -18t-22.5 -11.5t-25.5 -6t-23 -1.5q-14 0 -21.5 5.5t-10.5 19.5q-5 28 -10 54t-14 53q-17 49 -38 95.5t-41 94.5l-26 60t-27 60q-9 20 -18.5 38.5t-22.5 35.5q-4 5 -9.5 12.5t-5.5 14.5q0 12 12.5 25t29.5 24t34.5 18.5t28.5 7.5q10 0 16 -6.5t9 -16t4.5 -20t3.5 -17.5
q26 -105 68.5 -204.5t86.5 -198.5q32 43 61 87.5t57 90.5q17 29 31 59t31 59q4 7 8 11t12 4t21.5 -5.5t21.5 -9.5q13 -72 43 -145t68 -135q22 43 48 90.5t50.5 97t45.5 98.5t33 95q3 11 7.5 18t18.5 7q10 0 25 -4.5t29 -12.5t24.5 -18.5t10.5 -22.5z" />
    <glyph glyph-name="X" unicode="X" horiz-adv-x="726" 
d="M748 63q0 -9 -10.5 -23.5t-25 -28t-30 -23t-24.5 -9.5q-6 0 -24.5 12t-44 30.5t-54.5 41t-55.5 43t-48 37t-30.5 23.5q-3 -5 -6.5 -8.5l-7.5 -7.5q-31 -34 -59 -69.5t-57 -70.5q-11 -14 -22 -22.5t-30 -8.5q-6 0 -20 4t-27.5 10.5t-24 14t-10.5 15.5t5 12t11 8
q55 33 100 75.5t86 92.5q-20 15 -52 39.5t-69.5 53.5t-77 60.5t-74.5 61.5t-61.5 55.5t-38.5 43.5q-11 16 -11 34q0 15 14.5 24.5t34 15t39 8t30.5 2.5q22 0 29.5 -4t12.5 -26q6 -22 10 -35t10 -23t15.5 -19.5t26.5 -24.5q56 -51 112 -99.5t115 -96.5q16 16 41 46.5t50 64
t45.5 66t26.5 53.5q5 14 7.5 19.5t17.5 10.5q26 8 55.5 9.5t56.5 1.5q26 0 26 -24q0 -8 -4.5 -15t-9.5 -13q-19 -24 -41 -44.5t-44 -41.5q-87 -87 -168 -180q48 -38 98.5 -74t104.5 -65q30 -16 62 -20q7 -1 13.5 -1.5t6.5 -10.5z" />
    <glyph glyph-name="Y" unicode="Y" horiz-adv-x="807" 
d="M851 520q0 -8 -13.5 -33.5t-34.5 -60t-46.5 -73.5t-49 -75t-42.5 -64t-27 -40q-20 -30 -29.5 -52.5t-12.5 -44t-2.5 -46t0.5 -58.5q0 -13 -1.5 -22t-13.5 -17q-13 -8 -34 -11.5t-36 -3.5q-14 0 -24.5 3.5t-21.5 11.5q11 26 17 54.5t6 56.5q0 21 -8.5 39t-21.5 33.5
t-29 29.5t-30 27q-89 80 -181.5 153.5t-188.5 145.5q-6 4 -15 11t-18 15t-15.5 16t-6.5 16q0 11 12 25t28.5 26t33.5 20t28 8q10 0 14.5 -8t8.5 -15q21 -35 51 -62.5t61 -53.5l233 -202q25 -21 49.5 -42.5t43.5 -47.5q19 43 46.5 83.5t55.5 80.5t52 81.5t37 87.5q2 7 3 17
t3.5 19.5t7.5 16t16 6.5q7 0 23 -5t32 -12.5t28 -16.5t12 -17z" />
    <glyph glyph-name="Z" unicode="Z" horiz-adv-x="639" 
d="M737 -9q-6 -9 -16.5 -23.5t-23 -28t-26 -23t-25.5 -9.5q-42 0 -83 8.5t-83 16.5q-22 4 -60.5 11.5t-83.5 17t-92.5 22t-89.5 26.5t-73.5 29.5t-44.5 31.5q-8 10 -12.5 21.5t-4.5 24.5q0 23 14 43q10 14 23.5 26t26.5 23q42 38 80.5 78.5t80.5 78.5q30 29 58 57.5t50 64.5
l-175 9h-20.5t-21 2t-16 8.5t-6.5 20.5q0 7 4 22.5t10.5 31t14.5 27t17 11.5t17 -4.5t16.5 -9.5t17.5 -10.5t18 -6.5q52 -8 108.5 -12t109.5 -4q11 0 21 5t21 5q6 0 12.5 -7.5t12.5 -18t9.5 -21t3.5 -15.5q0 -10 -27 -40.5t-67.5 -71.5t-88 -87t-88 -86.5t-67.5 -70.5
t-27 -38t13 -16.5t29.5 -16t33 -13.5t23.5 -8q76 -26 160 -47.5t165 -21.5h22t16.5 1.5t15.5 4.5t20 9q8 4 16 7.5t17 3.5q17 0 28.5 -11.5t16.5 -26.5z" />
    <glyph glyph-name="bracketleft" unicode="[" horiz-adv-x="365" 
d="M322 600q-23 -4 -45 -6.5t-45 -6.5q-7 -72 -10 -144t-3 -144q0 -45 3 -90.5t3 -90.5q0 -33 -2 -66.5t-4 -66.5l76 -13l14 -3.5t6 -12.5t-3 -20.5t-8 -18.5h-52q-7 0 -26 0.5t-39.5 1.5t-38 3t-21.5 4q-8 5 -8 12q0 19 3 37t5 36q3 28 5 55t2 55q0 45 -2.5 89.5t-2.5 89.5
t2 90t2 90q0 33 -2 66.5t-9 65.5q-2 8 -2 12q0 11 8.5 16t18.5 5q38 0 76 3.5t76 3.5q6 0 10.5 -6.5t7 -15t3.5 -17.5t2 -13z" />
    <glyph glyph-name="backslash" unicode="\" horiz-adv-x="401" 
d="M394 -53q0 -8 -10.5 -13.5t-24 -8.5t-27 -4.5t-19.5 -1.5q-10 0 -14 6.5t-6 14.5q-22 60 -47.5 117.5t-52.5 115.5q-41 87 -78 174.5t-79 173.5q-11 22 -23.5 42.5t-24.5 41.5q2 6 7.5 16.5t12 20t14.5 16.5t16 7q7 0 16 -11t18.5 -27.5t19 -37t18 -39.5t14.5 -34.5
t9 -22.5q27 -65 55 -128.5t57 -127.5q26 -56 53.5 -110t51.5 -111q5 -11 8.5 -18.5t8 -13.5t9.5 -12.5t13 -15.5q2 -2 3.5 -4t1.5 -5z" />
    <glyph glyph-name="bracketright" unicode="]" horiz-adv-x="365" 
d="M246 631q0 -19 -3 -37t-5 -36q-4 -34 -5.5 -68t-1.5 -69t2.5 -70t2.5 -70q0 -48 -2 -96t-2 -96q0 -33 2 -66t9 -65q2 -8 2 -13q0 -11 -8.5 -16t-18.5 -5q-38 0 -76 -3.5t-76 -3.5q-6 0 -10.5 6.5t-7 15t-3.5 17t-2 13.5q23 4 45 6t45 7q7 72 10 144t3 144q0 45 -3 90
t-3 90v31v36.5t1.5 36t4.5 30.5l-76 12l-14 3.5t-6 12.5q0 20 11 39q9 1 17.5 1h17.5h21q6 0 24.5 -0.5t38.5 -2t37 -3t21 -3.5q8 -5 8 -12z" />
    <glyph glyph-name="asciicircum" unicode="^" horiz-adv-x="593" 
d="M418 176l-124 312l-119 -312h-92l173 423h81l173 -423h-92z" />
    <glyph glyph-name="underscore" unicode="_" horiz-adv-x="500" 
d="M0 -125v50h500v-50h-500z" />
    <glyph glyph-name="grave" unicode="`" 
d="M290 648q0 -9 -13.5 -13t-20.5 -4t-33.5 13t-56.5 30t-56.5 32.5t-34.5 21.5q-19 14 -19 28q0 6 9 13.5t21 14t24.5 11t20.5 4.5q5 0 18.5 -10t31 -25.5t37 -34t35.5 -35.5t26.5 -29.5t10.5 -16.5z" />
    <glyph glyph-name="a" unicode="a" horiz-adv-x="724" 
d="M753 49q0 -12 -14 -30t-34 -30q-5 -1 -9.5 -1h-6.5q-16 0 -25.5 1t-16 3.5t-11 7.5t-9.5 13q-8 13 -17.5 25.5t-29.5 35.5q-9 9 -13.5 14t-9.5 10t-12 12.5t-20 22.5q-1 0 -2 2q-1 1 -2 2.5t-3 3.5q-11 1 -19 1h-25q-29 0 -52.5 -0.5t-36.5 -0.5h-24l-24 -1l-24 -1
q-26 -1 -44 -1h-21q-11 -1 -18 -1.5t-9 -0.5q-14 0 -20 -3.5t-13 -15.5l-12 -22q-11 -19 -16 -28.5t-10 -17.5q-2 -5 -3 -7l-1.5 -3t-1 -2.5t-2.5 -4.5q-3 -5 -3.5 -7.5t-2.5 -5.5q-6 -15 -11 -20t-15 -5q-3 0 -8 0.5t-10 1.5q-2 1 -9 2.5t-18 3.5q-36 7 -45 10.5t-9 13.5
q0 5 2.5 8.5t11.5 15.5l21 27q13 18 21.5 28.5t15 19.5t12.5 19t16 26q11 17 20.5 33t20 34t23 39.5t28.5 50.5q15 27 24 43t13 26t5 16t1 14v5l-82 86q-11 12 -20.5 21.5t-20.5 17.5q-6 5 -8 8.5t-2 8.5q0 6 5 11.5t19 15.5q24 17 39 17q13 0 31 -3.5t29 -8.5q6 -2 16 -13
t36 -44q28 -35 51 -63.5t45 -54t43.5 -50t47.5 -52.5q53 -59 93 -101t74 -74q19 -18 32 -30.5t23.5 -21.5t19.5 -16t19 -14q11 -8 14 -12t3 -10zM444 222q-9 11 -16 19t-19 21t-33 34t-57 59q-7 -12 -7 -13l-9 -14l-8 -15l-9 -14q-13 -20 -24.5 -42.5t-19.5 -37.5
q26 -2 53 -2.5t38 -0.5q26 0 55.5 1.5t55.5 4.5z" />
    <glyph glyph-name="b" unicode="b" horiz-adv-x="510" 
d="M452 195q0 -32 -8 -57t-34 -47q-21 -18 -53 -34.5t-68 -29t-71.5 -20.5t-62.5 -8q-7 0 -19 0.5t-23.5 3t-20 8t-8.5 15.5q0 1 3 7t6.5 14l7 16t4.5 14q10 62 12.5 126t2.5 127q0 28 -2 55t-4 55q-1 11 -2.5 16t-4.5 7t-8.5 3.5t-15.5 5.5q-12 5 -17.5 9.5t-5.5 18.5
q0 11 6.5 16.5t14.5 10.5q12 7 35.5 21.5t49.5 28.5t49.5 24.5t35.5 10.5q27 0 60 -3.5t62.5 -15t49.5 -32.5t20 -57q0 -25 -11.5 -47t-28.5 -42t-36.5 -37.5t-35.5 -32.5q19 -14 40.5 -29t39.5 -33t29.5 -39.5t11.5 -48.5zM331 482q0 18 -9.5 30.5t-24 20.5t-31 11.5
t-31.5 3.5q-5 0 -11 -1.5t-10 -6.5q-2 -21 -3 -42.5t-1 -42.5v-90l10 -7.5t11 -4.5t11.5 5.5t10.5 8.5q12 10 26 23t25.5 27.5t19 31t7.5 33.5zM360 173q0 19 -13.5 38t-32.5 35.5t-39.5 30t-35.5 22.5q-8 -3 -16.5 -7t-13.5 -12q-1 -2 -1.5 -16t-1 -30.5t-1 -32t-0.5 -19.5
v-58v-10t1 -17t2.5 -16t4.5 -7q18 0 43.5 7t48.5 20t39 31.5t16 40.5z" />
    <glyph glyph-name="c" unicode="c" horiz-adv-x="582" 
d="M542 106q0 -11 -8 -21t-15 -17q-23 -26 -48.5 -41t-53 -22.5t-57.5 -10t-63 -2.5q-38 0 -69.5 14.5t-60.5 37.5q-29 22 -47 44t-28 46.5t-13.5 53t-3.5 63.5q0 52 8 97.5t27 83.5t51.5 69t82.5 54q43 20 85 30.5t90 10.5q23 0 39.5 -4.5t34.5 -17.5q7 -5 18 -14t11 -19
q0 -8 -8.5 -19t-20.5 -21.5t-24 -18t-19 -7.5q-11 0 -19.5 6t-18 12.5t-21.5 12.5t-28 6q-33 0 -58.5 -12.5t-44.5 -33.5t-32.5 -47.5t-22.5 -54.5q-8 -26 -14.5 -52.5t-6.5 -53.5q0 -30 9.5 -64t28 -62.5t45.5 -47t62 -18.5q32 0 63 12.5t55.5 27t41 27t19.5 12.5
q4 0 10 -4.5t11 -11t9 -13t4 -10.5z" />
    <glyph glyph-name="d" unicode="d" horiz-adv-x="605" 
d="M547 356q0 -45 -2.5 -85.5t-13 -77t-32 -69t-60.5 -60.5q-21 -16 -49 -30.5t-58 -26t-60 -18t-57 -6.5q-26 0 -51 4.5t-51 9.5q-9 2 -19.5 5t-10.5 16q0 3 4.5 10.5t10 17.5t10.5 19.5t7 17.5q10 47 9.5 98t-0.5 99q0 34 -0.5 67t-3.5 67q-2 20 -5.5 39t-5.5 39
q-6 3 -13.5 7t-14 9.5t-11.5 11.5t-5 14q0 11 7.5 15.5t15.5 8.5q17 7 44 15.5t56.5 15.5t57.5 11.5t46 4.5q24 0 51.5 -7.5t54.5 -20t51 -28.5t41 -33q30 -32 43.5 -74.5t13.5 -85.5zM436 327q0 42 -13.5 84t-43.5 73q-21 22 -51 38t-61 16q-12 0 -24 -4.5t-22 -12.5v-7
q0 -72 0.5 -143.5t0.5 -143.5q0 -40 -0.5 -80.5t2.5 -81.5q3 -1 6.5 -1h6.5q73 0 120 27.5t64 102.5q8 32 11.5 66t3.5 67z" />
    <glyph glyph-name="e" unicode="e" horiz-adv-x="506" 
d="M435 43q0 -5 -1.5 -8.5t-3.5 -7.5l-9 -25q-5 -14 -11 -17t-20 -6q-19 -4 -38 -5.5t-38 -1.5q-66 0 -111 16.5t-73 49t-40 80.5t-12 111q0 47 3 97.5t14.5 99t34 91t62.5 74.5q26 20 62.5 23.5t67.5 3.5q18 0 34 -1.5t28.5 -7.5t19.5 -18.5t7 -34.5q0 -11 -8.5 -14
t-17.5 -3q-8 0 -15.5 1t-15.5 1q-20 0 -43 -1t-41 -7q-21 -7 -36.5 -30.5t-26 -53t-15.5 -60t-5 -49.5q35 4 68.5 5t68.5 1h16.5t25.5 -1.5t23 -5.5t10 -11q0 -8 -6.5 -15t-11.5 -13q-14 -17 -22 -24.5t-31 -10.5q-37 -5 -74 -6t-74 -1q0 -26 3.5 -51t12.5 -48t24 -42.5
t38 -34.5q35 -22 75 -23t78 -1q8 0 16 -2.5t8 -12.5z" />
    <glyph glyph-name="f" unicode="f" horiz-adv-x="536" 
d="M503 578q0 -11 -3.5 -22t-8.5 -21q-5 -9 -13 -13.5t-18 -6.5t-20 -2.5t-19 -1.5q-29 -3 -58 -5l-58 -4q-17 -2 -35 -4t-35 -1q0 -39 -3 -77.5t-3 -77.5q0 -8 0.5 -16t0.5 -16h55q45 0 90.5 5t90.5 5q12 0 14 -11.5t2 -19.5q0 -19 -5.5 -29.5t-15.5 -15t-23.5 -6
t-28.5 -2.5q-45 -3 -88.5 -9t-88.5 -5q0 -52 -1.5 -104t-1.5 -104q0 -20 3.5 -40t3.5 -35q0 -6 -6 -11t-12 -5t-21 3.5t-30 10t-27 15.5t-12 19q0 48 5 95.5t5 95.5q0 16 -4 30t-8.5 27.5t-8 26.5t-3.5 26q0 17 9 31.5t9 31.5q0 40 -3.5 81.5t-21.5 77.5q-4 7 -7 14t-3 15
q0 4 8.5 15.5t20 23.5t22 21t14.5 9q42 0 83.5 -3.5t83.5 -3.5q40 0 79 4.5t79 4.5q16 0 16 -16z" />
    <glyph glyph-name="g" unicode="g" horiz-adv-x="571" 
d="M527 539q0 -7 -8.5 -16.5t-20.5 -18t-24 -14.5t-18 -6q-3 0 -13.5 6t-25 12.5t-31 12.5t-32.5 6q-33 0 -65.5 -26.5t-59.5 -64t-46 -78.5t-25 -69q-8 -35 -8 -66q0 -25 8 -53t23 -48q14 -20 36.5 -24t45.5 -4q32 0 66 10.5t60 27.5q8 30 9 49.5t7 31.5t23 16.5t58 4.5
q11 0 14 -7t3 -16q0 -26 -1.5 -52.5t-1.5 -52.5q0 -44 2 -87t2 -87q0 -9 -6.5 -10t-13.5 -1q-20 0 -30.5 1t-16 6.5t-8 16t-6.5 29.5l-8 50q-48 -9 -97 -9q-54 0 -103.5 15.5t-87 46t-60 75t-22.5 103.5q0 36 12 80t32.5 86t47.5 78t57 57q19 13 49.5 23t64 17t66 10t56.5 3
q10 0 26 -6t32 -15t27.5 -20.5t11.5 -22.5z" />
    <glyph glyph-name="h" unicode="h" horiz-adv-x="687" 
d="M617 320q0 -24 -14.5 -43.5t-39.5 -19.5q0 -50 -0.5 -99t-0.5 -99q0 -7 -5.5 -16.5t-13.5 -18.5t-17 -15t-16 -6q-5 0 -8.5 1t-8.5 2q-17 4 -19 9.5t-3 21.5q-2 39 -4 77.5t-4 77.5q-1 17 -0.5 34t-3.5 34q-6 1 -11.5 1h-11.5q-49 0 -99.5 -4t-98.5 -13q-5 -1 -6 -1.5
t-3 -5.5q-3 -9 -3.5 -36.5t0 -60.5t1 -63.5t0.5 -43.5q0 -10 -10 -17.5t-24 -12t-28 -6.5t-21 -2q-8 0 -10.5 7t-2.5 13q0 46 2.5 92t2.5 92q0 65 -1.5 130t-9.5 129q-2 19 -10 30t-16.5 18.5t-15.5 13.5t-7 14q0 4 8.5 13.5t19.5 19t21.5 17t14.5 7.5q6 0 25 -7t40 -16.5
t37 -18t16 -11.5q0 -5 -2.5 -13.5t-6 -18t-6.5 -19t-4 -16.5q-5 -24 -5.5 -48.5t-0.5 -48.5v-37h10q20 0 41 -1t41 -1h54q20 0 40 0.5t40 0.5l-1 104q0 21 -4 41.5t-4 41.5q0 12 18 21t42 14.5t47 8.5t32 3q8 0 14 -3t6 -12q0 -5 -2.5 -9t-4.5 -9q-14 -23 -20.5 -47.5
t-10.5 -50.5t-5 -51t-3 -51q7 0 13 0.5t13 0.5q10 0 19 -3t9 -15z" />
    <glyph glyph-name="i" unicode="i" horiz-adv-x="324" 
d="M239 567q0 -24 -5 -47.5t-7 -47.5q-4 -43 -6 -86t-4 -87q-2 -70 -1 -139.5t1 -139.5q0 -16 -9 -20.5t-22 -7.5q-12 -3 -25 -6t-26 -3q-8 0 -9.5 4.5t-1.5 10.5v97t-2 97q-2 53 -5.5 105.5t-8.5 105.5q-2 21 -4.5 39.5t-13.5 37.5q-6 10 -10.5 24.5t-4.5 25.5
q0 6 12.5 18.5t29 25t31.5 22t21 9.5q5 0 16.5 -3.5t23.5 -9.5t21 -12.5t9 -12.5z" />
    <glyph glyph-name="j" unicode="j" horiz-adv-x="344" 
d="M254 589q0 -28 -3 -56t-3 -56v-144q0 -59 -1 -117t-12.5 -112t-37.5 -103.5t-76 -89.5q-8 -6 -19.5 -13t-24 -13t-25 -10t-22.5 -4q-14 0 -26 6t-21.5 16t-15 23t-5.5 26q0 16 5.5 28t24.5 12q17 0 34 -5t34 -5q12 0 20.5 2t16.5 13q29 43 37 89.5t8 96.5q0 70 -1 140
t-5 140q-1 18 -2 28.5t-4.5 18t-11 14.5t-21.5 18q-5 4 -8.5 7.5t-3.5 10.5q0 11 7.5 18.5t15.5 12.5q7 4 19.5 13t26.5 17.5t27 15t20 6.5t16 -4t17 -10.5t14 -14.5t6 -15z" />
    <glyph glyph-name="k" unicode="k" horiz-adv-x="618" 
d="M593 52q0 -11 -12 -20.5t-41 -20.5q-16 -6 -32.5 -10.5t-21.5 -4.5q-9 0 -21 9q-8 5 -21 19l-7 6l-6 7l-6 6l-19.5 19.5t-12.5 13t-16 16.5t-31 30l-39 41q-16 17 -26 27t-16.5 16t-10.5 8.5t-8 4.5q-7 4 -16.5 6.5t-15.5 2.5h-4v-70v-91v-11.5t0.5 -6.5t0.5 -7v-11v-5
q0 -8 -2.5 -11.5t-10.5 -8.5q-28 -16 -39 -16q-21 0 -49 31q1 5 1 9.5v5.5l2 36l1 19l4 108q1 28 1 56.5v63.5q0 58 -2 103.5t-5 68.5q-2 9 -2.5 13t-3.5 10l-9 18q-5 11 -5 13q0 5 1.5 7t11.5 10l55 45q35 -11 55 -30t25 -45q-2 -11 -5.5 -20t-11.5 -23q-1 -12 -1 -16.5
t-0.5 -12l-1.5 -22.5t-3 -46q-2 -25 -3 -41.5t-2 -36.5q19 18 31 29t21 19.5t16.5 16l18.5 18.5q18 19 34.5 35.5t24.5 26.5l36 40l19 20q7 8 18.5 19.5t31.5 28.5q12 11 16.5 14t11.5 3q16 0 49 -33q30 -28 30 -43q0 -8 -4.5 -10.5t-16.5 -3.5q-21 -1 -65 -39
q-11 -10 -25.5 -22.5t-29 -25.5t-28 -26t-23.5 -23q-20 -19 -31 -30t-19 -18t-15 -13t-18 -15q13 -3 22 -7.5t21 -12.5l12 -10t20 -18l35 -31q18 -17 38.5 -34t39 -32.5t34.5 -27.5t27 -18q10 -6 14.5 -7.5t19.5 -5.5q15 -5 15 -26z" />
    <glyph glyph-name="l" unicode="l" horiz-adv-x="499" 
d="M484 95q0 -2 -5.5 -13.5t-12.5 -26t-14 -27t-9 -16.5q-3 -6 -7 -10t-12 -4q-11 0 -21 3.5t-21 7.5q-10 4 -25.5 4h-26.5q-33 0 -66.5 -1t-66.5 -3q-20 -2 -39.5 -3t-39.5 -6q-6 -2 -10 -2q-5 0 -10 7.5t-10 17t-8 19t-3 13.5q0 1 3 6.5t7 12.5t7.5 14t4.5 12
q5 26 5.5 53.5t0.5 53.5q0 69 -0.5 139t-11.5 138q-1 5 -4.5 17.5t-7.5 25.5t-7.5 23.5t-3.5 11.5q0 7 10.5 18.5t25 22t28.5 18t21 7.5q5 0 15 -4.5t19.5 -10.5t17 -13t7.5 -12q0 -8 -2 -16.5t-4 -16.5q-5 -26 -7 -52.5t-2 -53.5q0 -33 0.5 -66t0.5 -66v-69q0 -41 -1 -81
t-3 -81h7q49 0 98 3t97 8q7 1 15.5 4t16.5 6.5t14.5 6t9.5 2.5q7 0 18.5 -6.5t11.5 -14.5z" />
    <glyph glyph-name="m" unicode="m" horiz-adv-x="887" 
d="M850 19q0 -17 -8 -22q-7 -5 -21 -7.5t-28 -2.5t-32.5 2.5t-30.5 6.5q-15 5 -20.5 10.5t-5.5 15.5v9q2 11 2 16v11q0 8 -1 20.5t-3 26.5q0 3 -0.5 6t-0.5 5l-3 21l-3 20l-21 145q-5 35 -8 74.5t-3 68.5q-8 -10 -14 -18.5t-13 -18.5t-16 -22.5t-21 -30.5q-21 -30 -35 -50.5
t-24.5 -37t-19.5 -30.5t-19 -31q-37 -62 -44 -85q-5 -13 -10.5 -17t-16.5 -4q-17 0 -45 14q-11 5 -13.5 10t-5.5 23q-1 7 -2 11.5t-2.5 9.5t-5 13.5t-9.5 23.5q-11 25 -18 42.5t-13.5 32t-13.5 29.5t-16 35q-7 15 -11 24t-7.5 17t-8 18.5t-11.5 29.5q-2 4 -3 7.5t-2 5.5
q-1 3 -2 4l-1 2v2l-1 1q-4 -14 -7 -26l-6.5 -26t-7.5 -31.5t-9 -41.5q-7 -30 -14 -64t-13.5 -65t-11.5 -56.5t-7 -40.5q-2 -14 -3 -23.5t-1 -16.5t1 -16.5t3 -17.5q2 -10 2 -11q0 -9 -11 -17.5t-23 -8.5q-14 0 -33.5 6t-32.5 15q-29 18 -29 33q0 3 1 6.5t8 19.5l19 53
q7 21 12.5 38t10.5 34t10 35.5t11 42.5q9 35 19 79t23 101l13 58q2 8 3 14t1 11q0 13 -10 29q-8 11 -8 22q0 31 39 31q16 0 33.5 -5t41.5 -16q9 -4 14 -7t8.5 -7t6 -11t6.5 -19q6 -18 13.5 -37.5t17.5 -40.5q3 -7 6 -13.5t7.5 -15.5l11 -22t16.5 -32q26 -49 39.5 -77.5
t21.5 -53.5q21 24 38 45t33 43.5t32.5 48t36.5 57.5q48 80 61 104q10 19 15.5 24.5t14.5 5.5q15 0 65 -29q33 -19 33 -39q0 -3 -1 -6q0 -5 -0.5 -10.5t-0.5 -18.5v-22q0 -32 3 -66.5t8 -72.5q1 -6 1 -6.5t0.5 -3t1.5 -10t4.5 -28t10 -57.5t17.5 -97q4 -23 7.5 -37.5t7.5 -24
t9.5 -16.5t14.5 -14q7 -6 7 -15z" />
    <glyph glyph-name="n" unicode="n" horiz-adv-x="725" 
d="M659 547v-4.5t-2 -17.5q-1 -3 -1 -4t-0.5 -3t-1.5 -7t-2 -18l-3 -25l-4 -25q-9 -58 -14 -141t-7 -176q-1 -44 -9 -65.5t-28 -36.5q-10 -7 -25 -13.5t-22 -6.5q-8 0 -11.5 4t-5.5 15q-11 43 -36 79q-8 12 -22.5 29.5t-32.5 39t-39 45t-43 47.5q-33 35 -65 68t-66 67
q-2 -15 -2.5 -25t-1.5 -34q-1 -13 -1 -31t-1 -47q-2 -45 -2.5 -70t-0.5 -36v-24t0.5 -17.5t1 -20t1.5 -31.5q1 -8 1 -13.5v-8.5q0 -17 -7 -24.5t-28 -12.5q-16 -5 -33 -7.5t-31 -2.5q-21 0 -28.5 3t-7.5 11q0 5 1.5 7.5t6.5 10.5q11 15 25 55q4 13 7.5 26t5.5 31.5t4 44.5
t4 65q3 54 4 108t2 117l-29 24q-5 5 -10 7.5t-24 10.5q-15 6 -15 19q0 5 2 9t10 10q14 12 20 16.5t8 6.5l3 3t6 5q15 12 23 18.5t12.5 9t7 3t5.5 0.5q6 0 10.5 -2t10.5 -8q1 -1 0.5 -0.5t1 -1t5 -5.5t12.5 -14q16 -17 21 -22.5t11 -11.5t18 -19.5t41 -47.5l29 -34
q14 -17 34.5 -39t37.5 -42q15 -17 24 -27t12 -14q30 -35 53 -60.5t39 -41.5q5 -6 12 -12.5t18 -15.5q5 43 7 83.5t2 91.5t-5 91t-13 60q-3 8 -4 11t-1 6q0 19 27 22q15 2 35 3t33 1q30 0 30 -18z" />
    <glyph glyph-name="o" unicode="o" horiz-adv-x="630" 
d="M577 334q0 -61 -18 -119.5t-53 -104t-86 -73.5t-118 -28q-56 0 -99.5 21t-74.5 57t-47 83t-16 100q0 59 18.5 117t54 103.5t86 73.5t115.5 28q57 0 101 -20t74.5 -55t46.5 -82t16 -101zM474 297q0 35 -6.5 72t-22.5 67t-43.5 49.5t-70.5 19.5q-42 0 -72.5 -17.5
t-50.5 -45.5t-29.5 -64t-9.5 -73q0 -36 10 -71.5t30 -63.5t50 -45.5t71 -17.5q42 0 69.5 16.5t44 43.5t23.5 61t7 69z" />
    <glyph glyph-name="p" unicode="p" horiz-adv-x="497" 
d="M466 456q0 -36 -14 -66.5t-36 -56.5t-50.5 -46.5t-56.5 -36.5q-7 2 -21 6.5t-28.5 11.5t-25 15t-10.5 17q0 11 11 13.5t18 4.5q47 14 77 48.5t30 84.5q0 41 -26 63.5t-65 22.5q-17 0 -30 -5.5t-27 -15.5q-6 -59 -8.5 -118.5t-3.5 -119t-1.5 -119t-3.5 -118.5
q-1 -15 -1 -30t-14 -26q-12 -10 -30.5 -15.5t-33.5 -5.5q-5 0 -12 2.5t-7 9.5t1.5 14t2.5 14q3 38 3.5 76t0.5 76q0 84 -1.5 167t-9.5 167q-7 11 -13 18t-6 21q0 16 22 32t51 28t57.5 19.5t42.5 7.5q38 0 76.5 -8t70 -27t51.5 -49.5t20 -75.5z" />
    <glyph glyph-name="q" unicode="q" horiz-adv-x="699" 
d="M892 -72q0 -7 -12 -19.5t-28 -25t-31.5 -23.5t-21.5 -14q-7 -4 -13.5 -4.5t-14.5 -0.5q-27 0 -58 5.5t-63 13.5t-63 18t-56 18q-45 14 -96.5 34.5t-102 46.5t-97 59t-82.5 73.5t-57 88.5t-21 104q0 60 25 113.5t66.5 94.5t96 65t113.5 24q45 0 86.5 -15t73 -43
t50.5 -66.5t19 -86.5q0 -38 -12.5 -72t-32 -64.5t-44 -58t-49.5 -52.5l-7.5 -7.5t-10 -9.5t-10.5 -8.5t-8 -3.5q-5 0 -17 1.5t-25 5t-22.5 8.5t-9.5 11q0 4 20.5 21.5t45.5 47t45.5 71t20.5 94.5q0 25 -6 51.5t-19.5 48.5t-34.5 36t-50 14q-36 0 -71 -15.5t-62.5 -41.5
t-44 -60t-16.5 -71q0 -59 30 -112t78.5 -97.5t111.5 -80.5t128.5 -61t128.5 -38.5t113 -13.5q25 0 48.5 8t48.5 8q8 0 14 -5.5t6 -13.5z" />
    <glyph glyph-name="r" unicode="r" horiz-adv-x="725" 
d="M764 42q0 -11 -15 -28q-20 -20 -43.5 -35.5t-36.5 -15.5q-9 0 -27 11.5t-49 37.5q-22 18 -35 28.5t-22.5 18.5t-19.5 15t-25 18q-55 39 -102 70.5t-93 57.5q-8 5 -13.5 8l-11 6t-13 6.5t-19.5 10.5l-16 9l-26 13v-3v-20v-31l-1 -14v-13v-13q0 -42 6 -120q2 -17 2.5 -25.5
t2.5 -15.5q1 -4 1 -10q0 -20 -37 -20q-18 0 -35 3t-30.5 7.5t-22 11t-8.5 12.5q0 4 5 18q8 21 11.5 33t6.5 27q2 11 3.5 31.5t3 46t2 54t0.5 54.5t-1 71t-3 98q-1 20 -1 30.5t-1.5 17t-5.5 12l-12 16.5q-9 13 -9 24q0 10 3.5 14.5t15.5 8.5q16 5 38.5 11.5t36.5 10.5
q43 12 66 12q15 0 34.5 -3t39.5 -8.5t39.5 -13t34.5 -15.5q28 -15 40.5 -35t12.5 -50q0 -34 -10 -63.5t-27 -46.5q-14 -14 -39 -27.5t-69 -30.5q30 -20 53.5 -35.5t45 -29.5t43.5 -27.5t50 -30.5q43 -26 73.5 -44t54.5 -31t45.5 -23t48.5 -22q11 -5 18.5 -7t21.5 -5
q20 -4 20 -22zM326 490q0 56 -58 56q-30 0 -62 -13q-2 -17 -3 -27.5t-2 -19t-1.5 -16t-1.5 -17.5q0 -5 -0.5 -18t-1.5 -33l-3 -53q19 6 28 9t13 4.5t5 2t4 1.5q83 34 83 124z" />
    <glyph glyph-name="s" unicode="s" horiz-adv-x="417" 
d="M373 608q0 -9 -4.5 -24.5t-9.5 -23.5q-3 -4 -16 -5t-31.5 -2t-39.5 -3t-38.5 -8.5t-29 -19.5t-11.5 -35q0 -13 9.5 -38t24 -56.5t31 -66.5t31 -68.5t24 -63t9.5 -48.5q0 -24 -7.5 -46.5t-16.5 -44.5q-9 -23 -19.5 -39t-24 -26.5t-32 -15t-43.5 -4.5q-18 0 -45 3.5
t-43 10.5q-12 5 -18 14.5t-8.5 21t-3 23.5t-0.5 23q0 7 4 12.5t12 5.5q13 0 25.5 -3.5t26 -8t27 -8t27.5 -3.5q20 0 35.5 11t15.5 34q0 8 -7.5 25.5t-19 40.5t-25.5 48.5t-27 49.5t-24.5 42.5t-16.5 27.5q-15 25 -24.5 47t-9.5 51q0 33 17.5 67t44.5 62.5t61 46.5t67 18
q6 0 23 -0.5t35 -2.5t31.5 -7t13.5 -14z" />
    <glyph glyph-name="t" unicode="t" horiz-adv-x="507" 
d="M485 558q0 -10 -9.5 -23.5t-15.5 -21.5q-9 -11 -16.5 -17t-22.5 -8q-35 -4 -70.5 -4.5t-70.5 -5.5q-10 -75 -13.5 -150t-3.5 -150q0 -24 3.5 -47t17.5 -43q25 -13 50.5 -12.5t52.5 0.5q8 0 10.5 -5.5t2.5 -12.5q0 -11 -2.5 -26t-11.5 -23q-6 -5 -18 -9.5t-25.5 -8
t-27 -5.5t-21.5 -2q-26 0 -49.5 10.5t-41.5 28t-28.5 41t-10.5 49.5q0 11 2 21t4 21q8 43 10.5 86t2.5 87q0 37 -2 74l-4 74q-32 0 -65 -0.5t-65 -0.5q-22 0 -31.5 17t-9.5 37q0 4 4 11.5t9.5 15t12 13t11.5 5.5q9 -3 31.5 -5.5t48.5 -4t50 -2t36 -0.5q44 0 86.5 2t86.5 5
q21 2 42.5 4.5t42.5 2.5q8 0 13 -5t5 -13z" />
    <glyph glyph-name="u" unicode="u" horiz-adv-x="717" 
d="M665 533q0 -7 -1 -16t-3 -22.5t-5 -32.5t-8 -46q-7 -37 -12 -63.5t-9.5 -46.5t-8.5 -36t-9 -32q-18 -60 -44.5 -102t-65.5 -74q-35 -29 -74.5 -43.5t-81.5 -14.5q-36 0 -67 12.5t-71 42.5q-17 13 -30 26.5t-23 30t-17.5 37t-14.5 47.5q-8 35 -13.5 69.5t-9.5 76.5
q0 5 -0.5 5.5t-1 5t-1.5 18.5t-3 46q-1 8 -2 18.5t-3 21.5l-1 11l-2 11l-2 10q-2 10 -2.5 20t-0.5 18q0 52 41 52q14 0 30.5 -5t30.5 -13q17 -10 28.5 -21.5t11.5 -19.5q0 -4 -3 -11q-12 -24 -16.5 -52t-4.5 -74q0 -7 1 -29.5t3 -55.5q1 -20 2.5 -34.5t3.5 -26t5 -21
t8 -19.5q22 -46 64.5 -74.5t89.5 -28.5q61 0 101 34.5t56 100.5q6 25 9.5 61t3.5 75v30t-2 23l-3 20l-2 20l-2 19q-2 20 -3.5 34t-1.5 22q0 11 4.5 19.5t12.5 11.5q6 3 17.5 4t34.5 1q20 0 29.5 -3t23.5 -14q8 -7 11 -11.5t3 -11.5z" />
    <glyph glyph-name="v" unicode="v" horiz-adv-x="628" 
d="M635 534q0 -5 -2.5 -11t-9.5 -18l-20 -37q-12 -23 -28.5 -52t-34.5 -59.5t-36.5 -60.5t-35.5 -55q-20 -30 -33 -51t-22 -36.5t-15.5 -29t-13.5 -29.5q-28 -63 -28 -92v-9q0 -20 -20 -20q-5 0 -20.5 5t-34.5 13q-11 5 -14 7.5t-4 10.5q-2 17 -14.5 53t-29.5 75
q-16 37 -31.5 70.5t-32.5 68.5q-10 20 -23 45.5t-27.5 53t-30 55.5t-29.5 53l-11 20l-3 4.5t-3.5 4t-7.5 6.5t-15 13q-9 7 -11.5 11t-2.5 11q0 14 6.5 21t25.5 15q31 11 63 11q17 0 27.5 -1t16.5 -4.5t9 -9.5t6 -16q6 -23 15.5 -49t24.5 -63q14 -32 25 -58t21 -47l12 -25
l12 -26l12 -26q14 -29 43 -102l9 -24q12 17 16.5 24.5l10.5 17.5q10 17 22 37.5t23 40.5t21.5 39t17.5 33q15 29 28.5 59t27.5 62q6 15 10 24.5t6.5 18.5t4 18t2.5 22q1 22 32 22q25 0 65 -10q17 -5 23 -10t6 -14z" />
    <glyph glyph-name="w" unicode="w" horiz-adv-x="967" 
d="M955 506q0 -11 -6 -19.5t-11 -16.5q-66 -97 -121.5 -198.5t-100.5 -208.5q-10 -23 -18 -50q-2 -9 -5.5 -16t-14.5 -7q-27 0 -54 11q-18 8 -22 18.5t-9 27.5q-17 57 -38.5 113t-53.5 107q-12 -15 -33 -42.5t-42.5 -57.5t-40 -58t-26.5 -44q-5 -10 -7.5 -20t-6.5 -21
t-14 -18t-22.5 -11.5t-25.5 -6t-23 -1.5q-14 0 -21.5 5.5t-10.5 19.5q-5 28 -10 54t-14 53q-17 49 -38 95.5t-41 94.5l-26 60t-27 60q-9 20 -18.5 38.5t-22.5 35.5q-4 5 -9.5 12.5t-5.5 14.5q0 12 12.5 25t29.5 24t34.5 18.5t28.5 7.5q10 0 16 -6.5t9 -16t4.5 -20t3.5 -17.5
q26 -105 68.5 -204.5t86.5 -198.5q32 43 61 87.5t57 90.5q17 29 31 59t31 59q4 7 8 11t12 4t21.5 -5.5t21.5 -9.5q13 -72 43 -145t68 -135q22 43 48 90.5t50.5 97t45.5 98.5t33 95q3 11 7.5 18t18.5 7q10 0 25 -4.5t29 -12.5t24.5 -18.5t10.5 -22.5z" />
    <glyph glyph-name="x" unicode="x" horiz-adv-x="589" 
d="M571 583q0 -12 -2 -17t-11 -14q-11 -11 -25.5 -27t-31.5 -36q-3 -4 -3 -3.5t-4 -4.5t-16 -19.5t-39 -47.5l-24 -29l-20 -24q-7 -8 -14 -16.5t-13 -15.5q-7 -8 -13 -16l-4 -4l-4 -5l-4 -5q18 -26 36 -50.5t46 -61.5q12 -16 20 -27t14.5 -20t12 -17.5t13.5 -19.5
q17 -26 22 -34.5t5 -14.5q0 -8 -4 -12t-16 -11q-20 -10 -38 -17t-46 -17q-17 -6 -21 -6q-13 0 -13 14v3.5t1 7.5q1 3 1 10q0 36 -25 83q-14 29 -30.5 55.5t-39.5 59.5q-7 -7 -9 -10t-4 -4q-35 -38 -57.5 -64t-36 -43.5t-20 -27t-10.5 -14.5q-21 -27 -31.5 -45t-22.5 -40
q-8 -14 -24 -14q-14 0 -33.5 3.5t-51.5 9.5q-26 6 -26 19q0 8 11 20q3 2 14 13l18 18q13 13 24.5 24t26.5 26t36 36.5t52 53.5q18 19 31 33t24 26t21 23t21 25l-5 6q-5 6 -6.5 8t-3 3.5t-3.5 4t-7 9.5l-51 68q-29 37 -51 64.5t-33 39.5l-13.5 13.5t-18.5 16.5q-10 9 -10 21
q0 11 6.5 17.5t31.5 18.5l29 14q15 7 22 9t12 2q9 0 16 -5.5t15 -20.5l20 -30q6 -9 15 -23.5t18.5 -30t19 -30.5t15.5 -26l38 -63l9 -13q4 5 7 9.5l5 7.5q21 29 34.5 47t21.5 30.5t13.5 22t11.5 20.5q14 25 24 49q6 13 10 21t8.5 12t12 6t19.5 4q2 0 2.5 0.5t2 0.5t5.5 0.5
t12 2.5q34 6 45.5 7.5t16.5 1.5q9 0 15 -6.5t6 -17.5z" />
    <glyph glyph-name="y" unicode="y" horiz-adv-x="570" 
d="M572 531q0 -5 -2 -9.5t-8 -12.5q-11 -14 -30 -44.5t-42 -70.5q-50 -85 -83 -147.5t-55 -110.5q-7 -16 -12 -27t-9 -22t-8.5 -24t-10.5 -32l-7 -22l-11 -32l-6 -18q-16 -48 -45 -48q-24 0 -73 34q-17 11 -21.5 16.5t-4.5 13.5q0 22 34 29q13 2 20.5 9.5t24.5 30.5
q6 9 11.5 22t10 28t7 30.5t2.5 27.5q0 7 -2 15t-7.5 19t-15.5 27.5t-26 41.5q-9 14 -21.5 32.5t-27 38.5l-29 40t-27.5 38l-50 62q-41 50 -41 67q0 5 2.5 9.5t12.5 14.5q20 23 44 39t36 16q14 0 26 -16q6 -9 8 -19l3 -10l3 -11l2 -10q2 -11 10 -27.5t19 -33.5
q6 -10 16 -24.5t27 -39.5q18 -26 34 -49t33 -50q7 -11 11.5 -18t8 -13.5t7.5 -14t10 -18.5q10 19 17 33.5t17 31.5l48 90q9 16 17 35t14.5 38t11 37t6.5 32q4 29 31 29q8 0 20 -4t36 -16q21 -11 27.5 -17.5t6.5 -15.5z" />
    <glyph glyph-name="z" unicode="z" horiz-adv-x="639" 
d="M607 111q0 -11 -4 -28.5t-11 -36.5q-8 -23 -16.5 -31.5t-22.5 -8.5h-3.5t-4 0.5t-8 1t-16.5 2.5q-20 2 -63 3.5t-102 1.5q-66 0 -115.5 -1.5t-101.5 -5.5q-17 -1 -26 -2.5t-20 -4.5q-16 -4 -21 -4q-9 0 -15.5 5.5t-18.5 22.5q-19 28 -19 41q0 7 3.5 12t23.5 22l31 29
q5 6 10.5 11.5t13.5 14.5t19.5 22t29.5 33l33 38l38 43l38 44l66 76l28 32l28 33l16 17l-44 -3l-73 -4q-10 -1 -17.5 -1h-12.5l-50 -2q-17 -1 -24 -1h-10h-3.5h-4.5h-33q-37 0 -37 29q0 24 16 66q10 29 26 29q5 0 8.5 -1.5t13.5 -6.5q20 -11 33 -13.5t33 -3.5h19.5t26.5 -1
q18 -1 32.5 -1h20.5q5 0 23.5 0.5t50.5 0.5h60q16 0 25.5 0.5t15.5 1.5t10.5 3t9.5 6q4 2 6 2q10 0 36 -21q25 -19 25 -31q0 -6 -3.5 -12t-19.5 -23q-11 -13 -22.5 -25.5t-18.5 -19.5l-63 -63q-10 -10 -17.5 -18t-15.5 -17t-18.5 -20.5t-26.5 -29.5q-24 -27 -34.5 -38.5
t-14.5 -16t-5 -6t-7 -7.5q-16 -18 -26.5 -30.5t-18.5 -21.5t-14.5 -17t-13.5 -17q-17 -23 -25 -35.5t-15 -28.5q76 1 147.5 3t125.5 7q29 2 46 8t43 23q10 6 19 6q26 0 26 -31z" />
    <glyph glyph-name="braceleft" unicode="{" horiz-adv-x="332" 
d="M47 305q0 7 3.5 14.5t17.5 13.5q14 7 22 14t13 19q6 12 9.5 27t6 35t3 47.5t0.5 65.5q0 33 1.5 56.5t7 42t16 35.5t28.5 38q21 23 39.5 31.5t31.5 8.5q8 0 16 -6t15 -15t11 -18.5t4 -16.5q0 -10 -5 -14.5t-22 -4.5q-12 0 -25.5 -4t-19.5 -9q-8 -8 -11.5 -22.5t-3.5 -31.5
q0 -33 4.5 -66.5t4.5 -70.5q0 -42 -4 -66.5t-17 -47.5q-9 -15 -25 -27t-32 -19q-8 -3 -9.5 -6t-1.5 -7q0 -5 2 -7.5t10 -5.5q12 -5 26 -15t22 -23q16 -26 19.5 -67t3.5 -81q0 -32 -3 -63t-3 -65q0 -28 5 -41.5t19 -29.5q11 -11 23 -17t24 -8q17 -3 21.5 -7.5t4.5 -10.5
q0 -4 -4 -12.5t-10 -17.5t-12.5 -15.5t-11.5 -6.5q-13 0 -35 7.5t-48 24.5q-21 14 -33.5 28t-20 31t-10 37t-2.5 46q0 43 6 86t6 91q0 30 -5 52t-19 34q-16 13 -36 19q-11 3 -14 12.5t-3 28.5z" />
    <glyph glyph-name="bar" unicode="|" horiz-adv-x="223" 
d="M67 -214v1000h89v-1000h-89z" />
    <glyph glyph-name="braceright" unicode="}" horiz-adv-x="332" 
d="M289 294q0 -7 -3.5 -15t-17.5 -13q-15 -8 -24 -16.5t-16 -19.5q-9 -18 -11.5 -38.5t-2.5 -49.5q0 -32 4 -64.5t4 -77.5q0 -24 -2 -42t-8 -34t-17 -32t-30 -35q-10 -11 -22 -19.5t-24 -15.5t-22 -10.5t-17 -3.5q-8 0 -16 8t-14 18.5t-9.5 21.5t-3.5 17q0 10 6.5 14t31.5 4
q30 0 50 14q14 11 14 45q0 43 -4.5 80t-4.5 85q0 51 5 81t18 51q6 9 14 18t25 17q13 8 16 11t3 8q0 4 -16 11q-11 5 -24.5 14t-21.5 21q-16 26 -20 52.5t-4 51.5q0 35 4 70t4 79q0 28 -4 41.5t-14 23.5q-8 8 -16.5 11.5t-26.5 5.5q-22 2 -27 5.5t-5 12.5q0 4 4 13t9.5 18
t12.5 15.5t13 6.5q25 0 44 -9t39 -26t32 -31.5t18 -29t8 -30.5t2 -35q0 -38 -5 -74t-5 -78q0 -31 5.5 -50.5t18.5 -34.5q15 -15 35 -21q11 -2 14.5 -11.5t3.5 -28.5z" />
    <glyph glyph-name="asciitilde" unicode="~" horiz-adv-x="592" 
d="M562 332q-3 -30 -12 -57.5t-25.5 -49t-40.5 -34.5t-58 -13t-68.5 11t-68 24.5t-66 24.5t-62.5 11q-32 0 -49.5 -22.5t-22.5 -51.5h-58q3 29 12 57t25.5 49.5t40.5 35t57 13.5q35 0 68 -11t66 -23.5t66 -23.5t68 -11q32 0 49 21t22 50h57v0z" />
    <glyph glyph-name="uni00A0" unicode="&#xa0;" horiz-adv-x="290" 
 />
    <glyph glyph-name="exclamdown" unicode="&#xa1;" horiz-adv-x="382" 
d="M231 444q0 -8 -7.5 -20t-18 -23t-22.5 -19t-20 -8q-7 0 -19 8t-23.5 19t-20 22.5t-8.5 18.5q0 8 6 19.5t15 22t19.5 17.5t18.5 7q7 0 20.5 -7t27 -17t23 -21t9.5 -19zM235 -61q0 -4 -10 -12t-23.5 -16t-26 -14t-17.5 -6q-6 0 -16.5 5.5t-20.5 13.5t-17.5 16.5t-7.5 15.5
q0 13 3.5 25t5.5 25q6 31 8 62l4 62q3 48 4 96t5 96q1 8 4 14t12 6q11 0 26.5 -11t23.5 -19q11 -10 15.5 -18.5t5.5 -17t0 -18.5t-1 -23q0 -48 1 -96t6 -96q1 -9 3.5 -22t5.5 -26.5t5 -25t2 -16.5z" />
    <glyph glyph-name="cent" unicode="&#xa2;" horiz-adv-x="546" 
d="M488 463q-4 -8 -8 -20.5t-9.5 -24.5t-13 -20.5t-18.5 -8.5q-6 0 -10 3.5t-9 6.5q-14 10 -29 16t-31 11q-4 -19 -9 -37.5t-10 -37.5q-15 -57 -29 -113.5t-25 -114.5q8 -2 16 -3t16 -1q16 0 36 5.5t37.5 11.5t30.5 11.5t17 5.5q5 0 9.5 -4.5t4.5 -9.5q0 -7 -7 -17.5
l-11 -16.5q-6 -10 -12 -19.5t-14 -17.5q-9 -8 -27.5 -13.5t-39.5 -9t-41 -5t-32 -1.5l-20 -112q-5 -2 -13.5 -5t-13.5 -3q-4 0 -9 5.5t-9.5 12.5t-7.5 14t-3 10q0 23 7 46.5t12 46.5q-18 7 -33 18t-29 24q-44 41 -59.5 85.5t-15.5 103.5q0 41 16 79.5t42 69.5q18 21 39 34
t44.5 20.5t48 12t50.5 8.5l25 107q13 8 34 17t36 9q8 0 13 -5t5 -13q0 -3 -6 -19t-13.5 -35.5t-14.5 -36.5t-9 -23q31 -2 56.5 -12.5t45.5 -34.5zM300 435q-33 -2 -51 -16t-34 -42q-17 -29 -29 -66.5t-12 -72.5q0 -33 14 -58.5t45 -39.5z" />
    <glyph glyph-name="sterling" unicode="&#xa3;" horiz-adv-x="582" 
d="M530 526q0 -8 -3 -19t-14 -11q-5 0 -16 4.5t-25.5 9.5t-30 9.5t-29.5 4.5q-23 0 -37 -6.5t-23 -18.5t-14.5 -28t-11.5 -34l-31 -88q28 0 55.5 -1t55.5 -2h9t11.5 -0.5t10 -3t4.5 -7.5q0 -8 -6 -19.5t-11 -17.5q-12 -16 -29.5 -19t-35.5 -3h-88q-4 -13 -11 -35t-14.5 -45
t-13 -44t-5.5 -32q0 -3 1 -8t3 -10t5 -8.5t6 -3.5q17 0 32.5 9t32.5 9q18 0 36 -4.5t35.5 -9.5t35 -9.5t35.5 -4.5q7 0 15 3t15 6t13 6t9 3q11 0 15.5 -11.5t4.5 -19.5q0 -10 -15.5 -22.5t-36 -24t-40.5 -19t-29 -7.5q-18 0 -35 5t-34 11t-34.5 11t-35.5 5q-17 0 -32.5 -6
t-31 -12.5t-31.5 -12.5t-34 -6t-29.5 4.5t-20.5 21.5q-5 8 -11 25t-6 26q0 10 11 13.5t25 8t27.5 14t18.5 31.5l32 147q-6 -1 -15.5 -4t-18.5 -6.5t-17 -6t-12 -2.5q-5 0 -11.5 8t-13 18t-11 20t-4.5 15q0 10 16 15.5t36 8.5t39.5 3.5t27.5 0.5q3 15 7 29.5t8 29.5
q10 39 16.5 65t18 44.5t32.5 34t59 35.5q16 8 33 15.5t36 7.5q13 0 28 -5t30 -13t28.5 -17t23.5 -18q8 -8 11.5 -14.5t3.5 -17.5z" />
    <glyph glyph-name="currency" unicode="&#xa4;" horiz-adv-x="615" 
d="M495 117l-66 65q-27 -18 -58 -28.5t-63 -10.5t-64.5 10t-58.5 30l-66 -66l-52 52l65 65q-19 28 -29 58.5t-10 64.5q0 67 39 123l-65 65l52 52l65 -65q29 19 59 29t65 10t64.5 -10t58.5 -29l64 65l52 -52l-65 -66q20 -26 29.5 -58.5t9.5 -64.5q0 -35 -10 -63.5t-29 -57.5
l65 -66zM442 357q0 28 -10.5 53t-29 43.5t-43 29t-52.5 10.5t-52.5 -10.5t-43 -29t-29 -43.5t-10.5 -53t10.5 -52.5t29 -43t43 -29t52.5 -10.5t52.5 10.5t43 29t29 43t10.5 52.5z" />
    <glyph glyph-name="yen" unicode="&#xa5;" horiz-adv-x="638" 
d="M599 531q0 -5 -6 -15t-13.5 -21t-14.5 -21.5t-10 -15.5q-32 -51 -60.5 -102t-57.5 -103q20 1 40 1h40q5 0 14 -0.5t17.5 -2t15 -6t6.5 -11.5q0 -39 -37 -39q-32 0 -62.5 1.5t-62.5 1.5l-25 -52q29 0 59 1t59 1q5 0 14 -0.5t17.5 -2t14.5 -6t6 -11.5q0 -20 -8.5 -29.5
t-28.5 -9.5q-25 0 -49 1.5t-49 1.5q-15 0 -29.5 -0.5t-29.5 -0.5q-13 -32 -23 -65.5t-21 -66.5q-5 -16 -15 -32t-30 -16q-8 0 -24.5 6.5t-33 16.5t-29 21t-12.5 19q0 11 7.5 17t18 11t21.5 10t18 13q25 29 35 65q-18 0 -35.5 0.5t-35.5 0.5t-36 -1t-35 -5q-2 0 -2.5 -0.5
t-2.5 -0.5q-6 0 -9.5 7t-5.5 16.5t-3 18.5t-1 13q0 9 8 9q6 0 11.5 -1.5t11.5 -1.5h145v7q0 12 -5 23l-10 22h-49q-19 0 -38 -3t-38 -3q-6 0 -9.5 7t-5.5 16.5t-3 18.5t-1 13q0 9 8 9q6 0 11.5 -1.5t11.5 -1.5h79q-37 55 -75.5 108.5t-80.5 104.5q-5 6 -12 14.5t-13.5 18
t-11.5 19t-5 16.5q0 8 12 21.5t27.5 26t31.5 22t24 9.5q11 0 18.5 -7t12 -17.5t7 -22t4.5 -19.5q6 -24 28.5 -61.5t50.5 -78.5t55.5 -80.5t41.5 -67.5q19 36 39 71.5t38 72t32 74.5t22 79q3 14 9 21.5t22 7.5q8 0 23 -5t30 -12.5t26 -17t11 -18.5z" />
    <glyph glyph-name="brokenbar" unicode="&#xa6;" horiz-adv-x="223" 
d="M67 411v250h89v-250h-89zM67 -89v250h89v-250h-89z" />
    <glyph glyph-name="section" unicode="&#xa7;" horiz-adv-x="474" 
d="M408 275q0 -30 -7.5 -50t-22 -35t-34.5 -26.5t-44 -22.5l-14 23q10 15 21 35t11 39q0 12 -15 31.5t-35 39.5t-39.5 37.5t-29.5 25.5q-9 -11 -14 -23t-5 -26q0 -25 19 -60.5t45 -72t52.5 -69.5t42.5 -54q6 -8 9 -14.5t3 -17.5q0 -32 -6 -62q-6 -27 -26.5 -43.5
t-47.5 -25.5t-56.5 -12t-52.5 -3q-28 0 -59 13q-5 18 -10 37t-5 38q0 8 5.5 12.5t13 6.5t15.5 2.5t14 0.5t12.5 -4.5t12.5 -10.5t11.5 -13t9.5 -11q11 1 24.5 4t25 9.5t19 16t7.5 23.5q0 16 -19 46.5t-44.5 64t-50 63.5t-36.5 45q-10 12 -16.5 26t-6.5 30q0 24 6 40t17 27.5
t26.5 20t35.5 17.5q-14 10 -27 20.5t-22.5 22t-15 26t-5.5 34.5q0 21 19.5 41.5t46.5 37t55.5 27t46.5 10.5q16 0 37.5 -2.5t40.5 -9.5t32 -20.5t13 -34.5q0 -5 -5.5 -12.5t-13 -14.5t-16 -12t-13.5 -5q-8 0 -14.5 5.5t-13 12t-12.5 13.5t-12 10q-11 -2 -23.5 -6t-23.5 -10
t-18 -15.5t-7 -22.5q0 -9 17.5 -27t40.5 -38t44.5 -37.5t30.5 -24.5q21 -17 38.5 -36.5t17.5 -49.5z" />
    <glyph glyph-name="dieresis" unicode="&#xa8;" 
d="M335 719q0 -8 -5.5 -19.5t-14 -22t-18 -18t-17.5 -7.5q-12 0 -25.5 7.5t-25 18.5t-18.5 25t-7 26q0 6 9 15.5t20.5 18t23.5 14.5t18 6q7 0 17.5 -7.5t20 -17.5t16 -21t6.5 -18zM149 712q0 -9 -11 -19.5t-25.5 -19t-29 -14.5t-22.5 -6q-6 0 -14.5 7t-16.5 16.5t-13.5 19.5
t-5.5 16q0 7 8 19t19 24t22 21t18 9q8 0 20 -8.5t23.5 -20t19.5 -24t8 -20.5z" />
    <glyph glyph-name="copyright" unicode="&#xa9;" horiz-adv-x="758" 
d="M511 182q0 -5 -2.5 -10t-11.5 -14q-32 -32 -62 -40t-65 -8q-32 0 -54 8t-40 22q-33 26 -46 56.5t-13 71.5q0 63 24.5 109.5t84.5 75.5q25 12 49 15.5t56 3.5q11 0 23 -3t22 -8t16.5 -11.5t6.5 -14.5q0 -5 -7 -13.5t-16.5 -16.5t-20 -14t-16.5 -6q-7 0 -11 3.5t-8 8.5
q-6 8 -11.5 10t-10.5 2q-20 0 -36 -13t-26.5 -33t-16 -44t-5.5 -47q0 -17 3.5 -35.5t11.5 -34t20.5 -25.5t30.5 -10q22 0 41.5 14.5t31.5 24.5q5 5 9.5 8.5t10.5 3.5q4 0 10.5 -4.5t12.5 -10.5t10.5 -12t4.5 -9zM90 289q0 62 22 115t60.5 91.5t91.5 60.5t115 22t115 -22
t91.5 -60.5t60.5 -91.5t22 -115t-22 -115t-60.5 -91.5t-91.5 -60.5t-115 -22t-115 22t-91.5 60.5t-60.5 91.5t-22 115zM144 289q0 -53 18 -97t49.5 -75.5t74.5 -49.5t93 -18t93 18t74.5 49.5t49.5 75.5t18 97q0 52 -18 96.5t-49.5 76t-74.5 49.5t-93 18t-93 -18t-74.5 -49.5
t-49.5 -76t-18 -96.5z" />
    <glyph glyph-name="ordfeminine" unicode="&#xaa;" horiz-adv-x="441" 
d="M423 255q0 -9 -6 -17t-16 -8q-13 0 -25.5 2.5t-25.5 4.5t-16.5 4.5t-8.5 14.5q-6 16 -13 31t-15 30q-4 8 -6 11.5t-12 3.5q-21 0 -42 3t-42 3q-11 0 -20.5 -1t-20.5 -1q-12 -22 -23 -44.5t-22 -45.5q-8 -14 -14 -16t-21 -2q-11 0 -20.5 -1.5t-20.5 -1.5q-9 0 -15 2t-6 13
q0 16 2.5 20t17.5 10q7 3 20 21t28.5 43.5t31 56t28.5 58t21 49t8 30.5q0 8 -3 14.5t-3 14.5q0 6 7.5 10.5t17.5 8t19.5 5t14.5 1.5q13 0 19.5 -10.5t11.5 -20.5q29 -57 57.5 -113.5t62.5 -110.5q3 -4 11 -15t16.5 -23t15.5 -22t7 -12zM219 474h-2q-9 -20 -22 -41.5
t-18 -43.5h60h12t12 1z" />
    <glyph glyph-name="guillemotleft" unicode="&#xab;" horiz-adv-x="544" 
d="M494 142q0 -5 -7 -10t-16 -8.5t-18 -6t-13 -2.5q-5 0 -15 6t-21 14t-20.5 16t-14.5 12q-12 10 -28.5 25.5t-31.5 33.5t-25.5 37t-10.5 36q0 18 22 47t52 56.5t60.5 47t48.5 19.5q4 0 10.5 -3t12.5 -7.5t10.5 -9.5t4.5 -9t-17.5 -20t-38 -38.5t-38 -47.5t-17.5 -47
q0 -15 17.5 -37t38 -44t38 -39t17.5 -21zM302 438q0 -10 -20 -24.5t-43.5 -33.5t-43.5 -41t-20 -46q0 -9 7 -23.5t17.5 -30.5t23 -33t23 -30.5t17.5 -23t7 -11.5q0 -4 -3 -11.5t-7.5 -14.5t-10 -12t-9.5 -5q-8 0 -24 12t-36.5 30.5t-42 41t-39 44t-29 39t-11.5 26.5
q0 12 10.5 28.5t25 33.5t29.5 32t24 23q20 19 40 35t50 16q5 0 16 -0.5t22 -2.5t19 -6.5t8 -11.5z" />
    <glyph glyph-name="logicalnot" unicode="&#xac;" horiz-adv-x="592" 
d="M467 108v207h-427v84h512v-291h-85z" />
    <glyph glyph-name="uni00AD" unicode="&#xad;" horiz-adv-x="363" 
d="M309 258q0 -7 -6 -15.5t-11 -13.5q-8 -11 -14.5 -13.5t-19.5 -4.5q-32 -3 -65 -3.5t-65 -0.5h-19t-28.5 2t-25.5 6.5t-11 12.5q0 12 6.5 25t16 25t20.5 22.5t20 16.5q24 -10 49 -13t51 -3q43 0 85 6q5 -9 11 -24.5t6 -24.5z" />
    <glyph glyph-name="registered" unicode="&#xae;" horiz-adv-x="511" 
d="M338 374q0 -3 -5 -7t-12.5 -8t-16 -6.5t-15.5 -2.5q-6 0 -9 2t-7 10q-9 17 -16 24.5t-14 12.5q0 -19 1 -24t3 -8q3 -5 3 -10q0 -11 -27 -11q-4 0 -11 0.5t-14 2t-12 4.5t-5 8t2 7.5t4 6.5q1 3 2 5t2 4.5t1 7.5v15t-0.5 22.5t-1 24.5t-2 20t-2.5 9q-7 4 -7 9q0 7 8 12
q11 8 34 13.5t40 5.5q25 0 45 -11t20 -34q0 -14 -5 -23t-12.5 -14.5t-15.5 -9.5l-14 -7q5 -2 10 -5.5t11 -11.5q14 -17 27 -21q6 -2 8.5 -4t2.5 -8zM268 475q0 11 -12 11q-7 0 -12 -4q-1 -6 -1 -12v-24q17 8 21 14t4 15zM105 431q0 31 11.5 58t31.5 47t48 31t60 11t59.5 -11
t47.5 -31t31.5 -47t11.5 -58q0 -32 -11.5 -59t-31.5 -47t-47.5 -31t-59.5 -11t-60 11t-48 31t-31.5 47t-11.5 59zM142 431q0 -53 32.5 -84.5t81.5 -31.5t81.5 31.5t32.5 84.5q0 52 -32.5 83.5t-81.5 31.5t-81.5 -31.5t-32.5 -83.5z" />
    <glyph glyph-name="macron" unicode="&#xaf;" 
d="M49 691q0 12 3 25t8.5 23.5t12 17.5t14.5 7q5 0 12 -1.5t19 -3.5t30.5 -3.5t46.5 -1.5q39 0 61 2.5t27 2.5q14 0 18.5 -10t4.5 -28q0 -7 -2 -17t-6.5 -19.5t-11.5 -16t-16 -6.5q-8 0 -17 1t-24 2.5t-38.5 3t-58.5 1.5q-15 0 -26 -3t-26 -3q-18 0 -24.5 6.5t-6.5 20.5z
" />
    <glyph glyph-name="degree" unicode="&#xb0;" horiz-adv-x="400" 
d="M358 427q0 -33 -12.5 -61.5t-34 -50t-50 -34t-61.5 -12.5t-61.5 12.5t-50 34t-34 50t-12.5 61.5t12.5 61.5t34 50t50 34t61.5 12.5t61.5 -12.5t50 -34t34 -50t12.5 -61.5zM284 427q0 35 -24.5 59.5t-59.5 24.5t-59.5 -24.5t-24.5 -59.5t24.5 -59.5t59.5 -24.5t59.5 24.5
t24.5 59.5z" />
    <glyph glyph-name="plusminus" unicode="&#xb1;" horiz-adv-x="592" 
d="M341 271v-163h-90v163h-211v84h211v166h90v-166h211v-84h-211zM40 -14v84h512v-84h-512z" />
    <glyph glyph-name="uni00B2" unicode="&#xb2;" horiz-adv-x="398" 
d="M338 305q0 -6 -1.5 -17t-5.5 -21.5t-9.5 -18t-14.5 -7.5q-10 0 -19.5 1.5t-19.5 1.5q-27 0 -54 1t-54 1h-31.5t-30.5 -2q-5 -1 -11 -2.5t-11 -1.5q-8 0 -10 5.5t-2 12.5v24q0 14 4 20t15 14q18 15 43 36.5t47.5 46t38.5 51t16 51.5q0 21 -15.5 31.5t-34.5 10.5
q-26 0 -35 -7t-13 -16t-8 -16t-21 -7q-10 0 -13 3.5t-7 11.5t-9.5 22t-5.5 22q0 12 15 19.5t35 12t39 6t28 1.5q20 0 42.5 -5.5t41 -17t30.5 -29t12 -41.5q0 -29 -17 -57t-41.5 -54t-51.5 -48.5t-47 -39.5h10h55.5t55.5 3q15 2 28.5 10.5t20.5 8.5q11 0 13.5 -5.5t2.5 -14.5
z" />
    <glyph glyph-name="uni00B3" unicode="&#xb3;" horiz-adv-x="399" 
d="M303 535q0 -10 -11 -24t-24.5 -29t-24.5 -28t-11 -21t11 -16.5t24 -19t24 -22.5t11 -27q0 -24 -21 -48.5t-50.5 -44.5t-61 -32.5t-52.5 -12.5q-6 0 -14.5 4.5t-16 11t-13 14.5t-5.5 14t10.5 10t27 7t35 7t35 10.5t27 18t10.5 29.5q0 12 -11.5 24t-25 23t-25 21t-11.5 18
q0 5 10 17.5t23 26.5t25.5 27.5t16.5 21.5q-3 3 -13.5 6.5t-23 6.5t-24 5.5t-15.5 2.5q-19 0 -26 -6.5t-14 -6.5q-9 0 -13 6.5t-4 14.5q0 7 1.5 18.5t5 22.5t9.5 19t15 8q8 0 34 -6.5t55.5 -14.5t54.5 -17t31 -13q7 -5 11 -11t4 -15z" />
    <glyph glyph-name="acute" unicode="&#xb4;" 
d="M290 753q0 -9 -19 -24t-45.5 -30.5t-55 -30.5t-47.5 -24q-8 -2 -16 -7.5t-17 -5.5q-4 0 -9.5 1t-11 3t-9.5 5.5t-4 8.5q0 3 10.5 15.5t26.5 29t35 35t36.5 34t31 26t18.5 10.5q9 0 22 -4.5t25 -11.5t20.5 -15t8.5 -15z" />
    <glyph glyph-name="mu" unicode="&#xb5;" horiz-adv-x="585" 
d="M414 0v61q-26 -37 -56 -54t-78 -17q-39 0 -65.5 11t-48.5 42v-252h-91v686h91v-212q0 -33 2.5 -67.5t13.5 -63t34.5 -46.5t65.5 -18q40 0 64.5 18t37.5 46.5t17.5 63.5t4.5 68v211h91v-477h-83z" />
    <glyph glyph-name="paragraph" unicode="&#xb6;" horiz-adv-x="566" 
d="M378 592q13 0 27.5 5t29.5 5q8 0 18.5 -4.5t20 -10.5t16 -13.5t6.5 -13.5q0 -5 -2.5 -11t-10.5 -18q-6 -9 -9.5 -42.5t-5.5 -96t-2.5 -156.5t-0.5 -224v-10q0 -27 -3 -43.5t-9 -25t-14.5 -11t-20.5 -2.5q-23 0 -30 19.5t-7 59.5q0 90 4 182t4 198q0 31 -0.5 54t-1.5 40
t-2.5 29.5t-3.5 24.5l-24 2q-3 -11 -5.5 -36t-2.5 -72q0 -46 2.5 -96t2.5 -122q0 -31 -0.5 -58t-0.5 -53q-1 -27 -1 -53.5v-56.5q0 -38 -4.5 -50t-21.5 -12q-14 0 -29 11.5t-15 29.5q0 21 1.5 42.5t3 48t3 59.5t1.5 77q0 72 -1 128t-2.5 98.5t-3.5 74t-4 54.5q-5 1 -13.5 1
h-10.5q-11 0 -19 -30t-8 -89q0 -31 1.5 -50.5t4.5 -31t6.5 -16.5t8.5 -6q15 -5 20 -9.5t5 -10.5q0 -4 -6.5 -11t-16.5 -13.5t-21 -11.5t-21 -5t-27.5 9.5t-37 24t-38 32t-28.5 32.5q-9 14 -14 44.5t-5 62.5q0 13 7.5 30t19 33t26 29.5t29.5 19.5q29 12 63.5 18.5t79.5 6.5
q7 0 19 -1.5t25.5 -3.5t26.5 -3.5t22 -1.5z" />
    <glyph glyph-name="periodcentered" unicode="&#xb7;" horiz-adv-x="289" 
d="M230 287q-6 -9 -18 -22t-26.5 -25.5t-29.5 -21t-26 -8.5q-5 0 -15 12t-20.5 28t-18.5 31t-8 20q0 9 11.5 19t26.5 19t30 16t22 10q24 -14 43.5 -32.5t28.5 -45.5z" />
    <glyph glyph-name="cedilla" unicode="&#xb8;" 
d="M250 -82q0 -14 -14.5 -36t-34.5 -42t-41.5 -34.5t-35.5 -14.5q-8 0 -18.5 6.5t-10.5 16.5q0 8 9 16t20 17t20 21t9 27q0 13 -8 19t-18 10.5t-18 10.5t-8 19q0 11 6 23.5t11 22.5h58q-3 -5 -6.5 -10t-3.5 -11q0 -8 13 -12t29 -9.5t29 -14t13 -25.5z" />
    <glyph glyph-name="uni00B9" unicode="&#xb9;" horiz-adv-x="398" 
d="M270 257q0 -5 -5 -11.5t-10 -6.5q-10 0 -20 1.5t-20 1.5q-15 0 -29.5 -1t-29.5 -2l-7 7t-4 9q0 4 3.5 7.5t8 7.5t8 9.5t3.5 15.5v60q0 31 -1 62t-4 62q-3 24 -10 34.5t-15 15.5t-14 8t-6 12q0 11 6.5 13t14.5 5q17 6 33 15.5t33 16.5q9 -3 24.5 -8t15.5 -17q0 -2 -0.5 -4
t-0.5 -4q-4 -32 -5.5 -63t-1.5 -63v-75t5 -74q1 -11 6 -16t9.5 -7.5t8.5 -4.5t4 -6z" />
    <glyph glyph-name="ordmasculine" unicode="&#xba;" horiz-adv-x="431" 
d="M375 422q0 -37 -11.5 -71.5t-33 -61t-52.5 -42.5t-71 -16q-33 0 -60 12t-45.5 33t-29 49t-10.5 60q0 36 11.5 70t33.5 60.5t52.5 42.5t69.5 16q33 0 60 -11.5t46 -32t29.5 -48t10.5 -60.5zM303 401q0 19 -3.5 39.5t-12.5 36.5t-24 26.5t-39 10.5q-23 0 -40 -9t-28 -24
t-16.5 -34.5t-5.5 -40.5q0 -20 5.5 -39t16.5 -34.5t27.5 -25t38.5 -9.5q23 0 38.5 8.5t25 22.5t13.5 33t4 39z" />
    <glyph glyph-name="guillemotright" unicode="&#xbb;" horiz-adv-x="544" 
d="M486 272q0 -12 -10.5 -28.5t-25 -33.5t-29.5 -32t-24 -23q-20 -19 -40.5 -35t-49.5 -16q-5 0 -16 0.5t-22 2.5t-19 6t-8 12q0 10 20 24.5t43.5 33.5t43.5 41t20 46q0 9 -7 23.5t-17.5 30.5t-23 33t-23 30.5t-17.5 23t-7 11.5q0 4 3 11.5t7.5 14.5t9.5 12t10 5
q7 0 23.5 -12t37 -30.5t42 -41.5t39 -44.5t29 -39t11.5 -25.5zM271 267q0 -18 -22 -47t-52 -56t-60.5 -46.5t-48.5 -19.5q-3 0 -9.5 3t-13 7.5t-11 9t-4.5 8.5q0 5 17.5 21.5t38 38.5t38 46.5t17.5 46.5q0 16 -17.5 38.5t-38 44t-38 38t-17.5 20.5q0 5 7 10t16 8.5t18 6
t13 2.5q8 0 14.5 -5t12.5 -9q17 -12 41 -31t46 -41.5t37.5 -47t15.5 -46.5z" />
    <glyph glyph-name="onequarter" unicode="&#xbc;" horiz-adv-x="963" 
d="M943 119q0 -4 -4.5 -14t-10.5 -20.5t-12.5 -18.5t-10.5 -8q-9 0 -23.5 3t-28.5 3h-16q1 -19 3 -37t2 -37q0 -6 -4.5 -10t-10.5 -4q-5 0 -16.5 1t-23.5 3.5t-21 7t-9 11.5q0 17 5 33t5 33q-10 1 -20 1h-20q-24 0 -48 -2.5t-48 -2.5q-5 0 -11 4.5t-12.5 10.5t-12 12.5
t-8.5 9.5q42 67 89 129.5t98 123.5q3 1 11.5 4.5t17.5 7t17 6t11 2.5q7 0 10 -5t3 -11q0 -48 -3 -95.5t-3 -95.5v-43h9q21 0 42 4t42 4q5 0 8.5 -2.5t3.5 -7.5zM686 635q0 -11 -5 -24q-8 -21 -21 -39t-25 -36q-14 -23 -27 -46l-26 -46q-63 -118 -127 -232t-120 -235
q-6 -14 -13 -18t-22 -4q-5 0 -13.5 1t-16.5 4t-14 7.5t-6 11.5q0 6 4.5 9.5t8.5 7.5q12 11 20 23.5t16 26.5q26 48 53 94.5t55 94.5q42 72 80 144.5t75 147.5q4 9 16.5 32.5t27 47.5t29 43t23.5 19q11 0 19.5 -12t8.5 -22zM270 257q0 -5 -5 -11.5t-10 -6.5q-10 0 -20 1.5
t-20 1.5q-15 0 -29.5 -1t-29.5 -2l-7 7t-4 9q0 4 3.5 7.5t8 7.5t8 9.5t3.5 15.5v60q0 31 -1 62t-4 62q-3 24 -10 34.5t-15 15.5t-14 8t-6 12q0 11 6.5 13t14.5 5q17 6 33 15.5t33 16.5q9 -3 24.5 -8t15.5 -17q0 -2 -0.5 -4t-0.5 -4q-4 -32 -5.5 -63t-1.5 -63v-75t5 -74
q1 -11 6 -16t9.5 -7.5t8.5 -4.5t4 -6zM770 248q-17 -20 -34 -39t-32 -40q-8 -11 -15 -22t-15 -22q20 -3 40 -4t40 -1h16v128z" />
    <glyph glyph-name="onehalf" unicode="&#xbd;" horiz-adv-x="962" 
d="M902 65q0 -6 -2 -17t-5.5 -21t-9.5 -17.5t-14 -7.5q-31 0 -62 2t-62 2h-37h-23.5t-23.5 -2q-5 -1 -11 -2.5t-11 -1.5q-8 0 -10 5.5t-2 12.5v24q0 14 4 20t15 15q18 15 43 36t47.5 45.5t38.5 51t16 52.5q0 21 -15.5 31.5t-34.5 10.5q-27 0 -35.5 -7.5t-12 -16t-8 -16
t-22.5 -7.5q-10 0 -13 3.5t-7 11.5t-9.5 22.5t-5.5 22.5q0 12 15 19.5t35 12t39 6t28 1.5q20 0 42.5 -5.5t41 -17t31 -29t12.5 -41.5q0 -30 -17 -58t-41 -53.5t-51 -48t-48 -39.5h54h33t33 2q16 2 29.5 10.5t19.5 8.5q11 0 13.5 -5.5t2.5 -14.5zM686 635q0 -11 -5 -24
q-8 -21 -21 -39t-25 -36q-14 -23 -27 -46l-26 -46q-63 -118 -127 -232t-120 -235q-6 -14 -13 -18t-22 -4q-5 0 -13.5 1t-16.5 4t-14 7.5t-6 11.5q0 6 4.5 9.5t8.5 7.5q12 11 20 23.5t16 26.5q26 48 53 94.5t55 94.5q42 72 80 144.5t75 147.5q4 9 16.5 32.5t27 47.5t29 43
t23.5 19q11 0 19.5 -12t8.5 -22zM270 257q0 -5 -5 -11.5t-10 -6.5q-10 0 -20 1.5t-20 1.5q-15 0 -29.5 -1t-29.5 -2l-7 7t-4 9q0 4 3.5 7.5t8 7.5t8 9.5t3.5 15.5v60q0 31 -1 62t-4 62q-3 24 -10 34.5t-15 15.5t-14 8t-6 12q0 11 6.5 13t14.5 5q17 6 33 15.5t33 16.5
q9 -3 24.5 -8t15.5 -17q0 -2 -0.5 -4t-0.5 -4q-4 -32 -5.5 -63t-1.5 -63v-75t5 -74q1 -11 6 -16t9.5 -7.5t8.5 -4.5t4 -6z" />
    <glyph glyph-name="threequarters" unicode="&#xbe;" horiz-adv-x="964" 
d="M944 119q0 -4 -4.5 -14t-10.5 -20.5t-12.5 -18.5t-10.5 -8q-9 0 -23.5 3t-28.5 3h-16q1 -19 3 -37t2 -37q0 -6 -4.5 -10t-10.5 -4q-5 0 -16.5 1t-23.5 3.5t-21 7t-9 11.5q0 17 5 33t5 33q-10 1 -20 1h-20q-24 0 -48 -2.5t-48 -2.5q-5 0 -11 4.5t-12 10.5t-12 12.5t-9 9.5
q42 67 89 129.5t98 123.5q3 1 11.5 4.5t17.5 7t17 6t11 2.5q7 0 10 -5t3 -11q0 -42 -3 -84.5t-3 -84.5v-65h9q21 0 42 4t42 4q5 0 8.5 -2.5t3.5 -7.5zM686 635q0 -11 -5 -24q-8 -21 -21 -39t-25 -36q-14 -23 -27 -46l-26 -46q-47 -88 -95 -175t-96 -175q-16 -29 -29 -58.5
t-27 -58.5q-7 -14 -13.5 -18t-21.5 -4q-5 0 -13.5 1t-16.5 4t-14 7.5t-6 11.5q0 6 4.5 9.5t8.5 7.5q12 11 20 23.5t16 26.5q26 48 53 94.5t55 94.5q42 72 80 144.5t75 147.5q4 9 16.5 32.5t27 47.5t29 43t23.5 19q11 0 19.5 -12t8.5 -22zM303 535q0 -10 -11 -24t-24.5 -29
t-24.5 -28t-11 -21t11 -16.5t24 -19t24 -22.5t11 -27q0 -24 -21 -48.5t-50.5 -44.5t-61 -32.5t-52.5 -12.5q-6 0 -14.5 4.5t-16 11t-13 14.5t-5.5 14t10.5 10t27 7t35 7t35 10.5t27 18t10.5 29.5q0 12 -11.5 24t-25 23t-25 21t-11.5 18q0 5 10 17.5t23 26.5t25.5 27.5
t16.5 21.5q-3 3 -13.5 6.5t-23 6.5t-24 5.5t-15.5 2.5q-19 0 -26 -6.5t-14 -6.5q-9 0 -13 6.5t-4 14.5q0 7 1.5 18.5t5 22.5t9.5 19t15 8q8 0 34 -6.5t55.5 -14.5t54.5 -17t31 -13q7 -5 11 -11t4 -15zM771 248q-27 -30 -50 -60.5t-46 -62.5q20 -3 40 -4t40 -1h15
q0 1 0.5 1.5t0.5 1.5v125z" />
    <glyph glyph-name="questiondown" unicode="&#xbf;" horiz-adv-x="507" 
d="M339 461q0 -6 -8 -22t-19 -32.5t-22.5 -29t-18.5 -12.5q-8 0 -15 4t-13 8q-27 17 -37.5 33.5t-10.5 49.5q0 25 10 37t36 12q9 0 25.5 -3t32.5 -9t28 -15t12 -21zM419 -3q0 -18 -21.5 -34.5t-50.5 -29t-58 -19.5t-44 -7q-27 0 -57.5 7t-54.5 19t-39.5 29t-25 38t-13 44.5
t-3.5 48.5t5.5 46t21.5 41q14 17 35.5 30t40.5 24q28 17 52 37.5t49 40.5q5 5 11.5 9.5t14.5 4.5q6 0 11 -10t8.5 -23.5t5 -26t1.5 -18.5q0 -10 -24 -23.5t-53 -32.5t-53 -43.5t-24 -55.5q0 -19 7 -39t19 -36.5t29.5 -27t38.5 -10.5q34 0 48 16.5t18 47.5q1 9 7.5 14.5
t15.5 8.5t18.5 3.5t17.5 0.5q16 0 24.5 -4t12.5 -11.5t5 -17.5t2 -23q1 -5 1.5 -9t0.5 -9z" />
    <glyph glyph-name="Agrave" unicode="&#xc0;" horiz-adv-x="724" 
d="M688 40q0 -11 -7 -22.5t-20 -11.5q-6 0 -22.5 2t-34.5 5t-33.5 6t-18.5 6q-6 5 -7.5 9.5l-3.5 10.5q-12 35 -28 70.5t-37 66.5q-41 6 -81.5 10t-82.5 4q-19 0 -37.5 -1t-37.5 -4q-5 -8 -17 -30.5t-25 -48t-23 -47t-11 -26.5q-5 -14 -9 -21.5t-10 -10.5t-15 -3.5t-22 -0.5
q-20 0 -40.5 -2.5t-40.5 -2.5q-11 0 -12 9t-1 17q0 15 3.5 21t9.5 9t13.5 5t16.5 8t20 22.5t22 35t20.5 37t15.5 29.5q8 16 22.5 42t30.5 58t32.5 66t29.5 65t21.5 57t8.5 41q0 14 -5 26t-5 25q0 6 12 12.5t28 11t30.5 7.5t20.5 3q10 0 20.5 -12.5t19.5 -29t16.5 -33.5
t11.5 -25q28 -57 56 -115t58 -114.5t64 -110.5t73 -105q4 -5 7.5 -9.5t3.5 -10.5zM438 268q-20 40 -37.5 80.5t-39.5 78.5q-1 2 -5 8.5t-6 6.5q-4 0 -6 -5t-4 -8l-58 -129l-8 -16t-7 -16l3 -2h124q11 0 21.5 0.5t21.5 0.5zM431 648q0 -9 -13.5 -13t-20.5 -4t-33.5 13
t-56.5 30t-56.5 32.5t-34.5 21.5q-19 14 -19 28q0 6 9 13.5t21 14t24.5 11t20.5 4.5q5 0 18.5 -10t31 -25.5t37 -34t35.5 -35.5t26.5 -29.5t10.5 -16.5z" />
    <glyph glyph-name="Aacute" unicode="&#xc1;" horiz-adv-x="724" 
d="M688 40q0 -11 -7 -22.5t-20 -11.5q-6 0 -22.5 2t-34.5 5t-33.5 6t-18.5 6q-6 5 -7.5 9.5l-3.5 10.5q-12 35 -28 70.5t-37 66.5q-41 6 -81.5 10t-82.5 4q-19 0 -37.5 -1t-37.5 -4q-5 -8 -17 -30.5t-25 -48t-23 -47t-11 -26.5q-5 -14 -9 -21.5t-10 -10.5t-15 -3.5t-22 -0.5
q-20 0 -40.5 -2.5t-40.5 -2.5q-11 0 -12 9t-1 17q0 15 3.5 21t9.5 9t13.5 5t16.5 8t20 22.5t22 35t20.5 37t15.5 29.5q8 16 22.5 42t30.5 58t32.5 66t29.5 65t21.5 57t8.5 41q0 14 -5 26t-5 25q0 6 12 12.5t28 11t30.5 7.5t20.5 3q10 0 20.5 -12.5t19.5 -29t16.5 -33.5
t11.5 -25q28 -57 56 -115t58 -114.5t64 -110.5t73 -105q4 -5 7.5 -9.5t3.5 -10.5zM438 268q-20 40 -37.5 80.5t-39.5 78.5q-1 2 -5 8.5t-6 6.5q-4 0 -6 -5t-4 -8l-58 -129l-8 -16t-7 -16l3 -2h124q11 0 21.5 0.5t21.5 0.5zM472 753q0 -9 -19 -24t-45.5 -30.5t-55 -30.5
t-47.5 -24q-8 -2 -16 -7.5t-17 -5.5q-4 0 -9.5 1t-11 3t-9.5 5.5t-4 8.5q0 3 10.5 15.5t26.5 29t35 35t36.5 34t31 26t18.5 10.5q9 0 22 -4.5t25 -11.5t20.5 -15t8.5 -15z" />
    <glyph glyph-name="Acircumflex" unicode="&#xc2;" horiz-adv-x="724" 
d="M688 40q0 -11 -7 -22.5t-20 -11.5q-6 0 -22.5 2t-34.5 5t-33.5 6t-18.5 6q-6 5 -7.5 9.5l-3.5 10.5q-12 35 -28 70.5t-37 66.5q-41 6 -81.5 10t-82.5 4q-19 0 -37.5 -1t-37.5 -4q-5 -8 -17 -30.5t-25 -48t-23 -47t-11 -26.5q-5 -14 -9 -21.5t-10 -10.5t-15 -3.5t-22 -0.5
q-20 0 -40.5 -2.5t-40.5 -2.5q-11 0 -12 9t-1 17q0 15 3.5 21t9.5 9t13.5 5t16.5 8t20 22.5t22 35t20.5 37t15.5 29.5q8 16 22.5 42t30.5 58t32.5 66t29.5 65t21.5 57t8.5 41q0 14 -5 26t-5 25q0 6 12 12.5t28 11t30.5 7.5t20.5 3q10 0 20.5 -12.5t19.5 -29t16.5 -33.5
t11.5 -25q28 -57 56 -115t58 -114.5t64 -110.5t73 -105q4 -5 7.5 -9.5t3.5 -10.5zM438 268q-20 40 -37.5 80.5t-39.5 78.5q-1 2 -5 8.5t-6 6.5q-4 0 -6 -5t-4 -8l-58 -129l-8 -16t-7 -16l3 -2h124q11 0 21.5 0.5t21.5 0.5zM496 668q0 -3 -4 -8t-9 -9.5t-10.5 -7.5t-8.5 -3
t-20 11t-37 25t-37.5 27t-23.5 17q-10 -6 -32 -20.5t-46.5 -30t-46 -27t-29.5 -11.5q-9 0 -9 11q0 29 9.5 48t31.5 37q7 6 25.5 19.5t39 27.5t39 24.5t25.5 10.5q6 0 18.5 -9t28.5 -23t33 -30.5t31 -32t23 -28.5t9 -18z" />
    <glyph glyph-name="Atilde" unicode="&#xc3;" horiz-adv-x="724" 
d="M688 40q0 -11 -7 -22.5t-20 -11.5q-6 0 -22.5 2t-34.5 5t-33.5 6t-18.5 6q-6 5 -7.5 9.5l-3.5 10.5q-12 35 -28 70.5t-37 66.5q-41 6 -81.5 10t-82.5 4q-19 0 -37.5 -1t-37.5 -4q-5 -8 -17 -30.5t-25 -48t-23 -47t-11 -26.5q-5 -14 -9 -21.5t-10 -10.5t-15 -3.5t-22 -0.5
q-20 0 -40.5 -2.5t-40.5 -2.5q-11 0 -12 9t-1 17q0 15 3.5 21t9.5 9t13.5 5t16.5 8t20 22.5t22 35t20.5 37t15.5 29.5q8 16 22.5 42t30.5 58t32.5 66t29.5 65t21.5 57t8.5 41q0 14 -5 26t-5 25q0 6 12 12.5t28 11t30.5 7.5t20.5 3q10 0 20.5 -12.5t19.5 -29t16.5 -33.5
t11.5 -25q28 -57 56 -115t58 -114.5t64 -110.5t73 -105q4 -5 7.5 -9.5t3.5 -10.5zM438 268q-20 40 -37.5 80.5t-39.5 78.5q-1 2 -5 8.5t-6 6.5q-4 0 -6 -5t-4 -8l-58 -129l-8 -16t-7 -16l3 -2h124q11 0 21.5 0.5t21.5 0.5zM516 736q0 -6 -10.5 -21.5t-25 -32t-28 -29
t-19.5 -12.5q-16 0 -36.5 7.5t-41.5 16t-40 16t-32 7.5q-6 0 -16 -7t-21.5 -15t-21.5 -15t-16 -7q-5 0 -8 5t-4.5 11.5t-2 13t-0.5 9.5q0 14 10 29t24 27.5t30.5 20.5t30.5 8q18 0 37.5 -6.5t37.5 -15t33 -15t24 -6.5q4 0 14 8t21.5 18t22.5 18t17 8q4 0 8 -5t7 -12
t4.5 -13.5t1.5 -10.5z" />
    <glyph glyph-name="Adieresis" unicode="&#xc4;" horiz-adv-x="724" 
d="M688 40q0 -11 -7 -22.5t-20 -11.5q-6 0 -22.5 2t-34.5 5t-33.5 6t-18.5 6q-6 5 -7.5 9.5l-3.5 10.5q-12 35 -28 70.5t-37 66.5q-41 6 -81.5 10t-82.5 4q-19 0 -37.5 -1t-37.5 -4q-5 -8 -17 -30.5t-25 -48t-23 -47t-11 -26.5q-5 -14 -9 -21.5t-10 -10.5t-15 -3.5t-22 -0.5
q-20 0 -40.5 -2.5t-40.5 -2.5q-11 0 -12 9t-1 17q0 15 3.5 21t9.5 9t13.5 5t16.5 8t20 22.5t22 35t20.5 37t15.5 29.5q8 16 22.5 42t30.5 58t32.5 66t29.5 65t21.5 57t8.5 41q0 14 -5 26t-5 25q0 6 12 12.5t28 11t30.5 7.5t20.5 3q10 0 20.5 -12.5t19.5 -29t16.5 -33.5
t11.5 -25q28 -57 56 -115t58 -114.5t64 -110.5t73 -105q4 -5 7.5 -9.5t3.5 -10.5zM438 268q-20 40 -37.5 80.5t-39.5 78.5q-1 2 -5 8.5t-6 6.5q-4 0 -6 -5t-4 -8l-58 -129l-8 -16t-7 -16l3 -2h124q11 0 21.5 0.5t21.5 0.5zM496 719q0 -8 -5.5 -19.5t-14 -22t-18 -18
t-17.5 -7.5q-12 0 -25.5 7.5t-25 18.5t-18.5 25t-7 26q0 6 9 15.5t20.5 18t23.5 14.5t18 6q7 0 17.5 -7.5t20 -17.5t16 -21t6.5 -18zM310 712q0 -9 -11 -19.5t-25.5 -19t-29 -14.5t-22.5 -6q-6 0 -14.5 7t-16.5 16.5t-13.5 19.5t-5.5 16q0 7 8 19t19 24t22 21t18 9
q8 0 20 -8.5t23.5 -20t19.5 -24t8 -20.5z" />
    <glyph glyph-name="Aring" unicode="&#xc5;" horiz-adv-x="724" 
d="M688 40q0 -11 -7 -22.5t-20 -11.5q-6 0 -22.5 2t-34.5 5t-33.5 6t-18.5 6q-6 5 -7.5 9.5l-3.5 10.5q-12 35 -28 70.5t-37 66.5q-41 6 -81.5 10t-82.5 4q-19 0 -37.5 -1t-37.5 -4q-5 -8 -17 -30.5t-25 -48t-23 -47t-11 -26.5q-5 -14 -9 -21.5t-10 -10.5t-15 -3.5t-22 -0.5
q-20 0 -40.5 -2.5t-40.5 -2.5q-11 0 -12 9t-1 17q0 15 3.5 21t9.5 9t13.5 5t16.5 8t20 22.5t22 35t20.5 37t15.5 29.5q8 16 22.5 42t30.5 58t32.5 66t29.5 65t21.5 57t8.5 41q0 14 -5 26t-5 25q0 6 12 12.5t28 11t30.5 7.5t20.5 3q10 0 20.5 -12.5t19.5 -29t16.5 -33.5
t11.5 -25q28 -57 56 -115t58 -114.5t64 -110.5t73 -105q4 -5 7.5 -9.5t3.5 -10.5zM438 268q-20 40 -37.5 80.5t-39.5 78.5q-1 2 -5 8.5t-6 6.5q-4 0 -6 -5t-4 -8l-58 -129l-8 -16t-7 -16l3 -2h124q11 0 21.5 0.5t21.5 0.5zM449 740q0 -58 -30.5 -80t-84.5 -22
q-28 0 -51.5 2.5t-41 12t-27.5 29t-10 52.5q0 17 14.5 31.5t34.5 25t42 16.5t36 6q15 0 35.5 -4t39 -13t31 -23t12.5 -33zM379 733q0 15 -7.5 19.5t-21.5 4.5h-16q-15 0 -24 -4.5t-16 -15.5q-6 -10 -7.5 -17t-1.5 -10q0 -5 6 -8t14 -4.5t15.5 -2t11.5 -0.5q17 0 32 9.5
t15 28.5z" />
    <glyph glyph-name="AE" unicode="&#xc6;" horiz-adv-x="765" 
d="M712 53q0 -5 -5 -13.5t-12 -18t-14 -18t-10 -12.5q-16 -2 -31 -3t-31 -1q-41 0 -79 5.5t-68 22t-48.5 46t-19.5 78.5l-70 -6t-70 -8q-30 -4 -47.5 -8t-28.5 -12t-20 -23t-24 -42q-4 -8 -10 -18.5t-13.5 -21t-16.5 -17.5t-19 -7q-7 0 -19 7t-23.5 16.5t-20 20t-8.5 17.5
q0 14 10.5 27.5t18.5 23.5q51 65 98 130t92 134q27 42 53 85t53 86q7 11 10 21.5t7 22.5q6 18 17 23t28 10q11 4 29.5 10t29.5 6q17 0 22 -8t7 -23l195 5q9 0 16 -5t7 -15q0 -8 -4.5 -19.5t-8.5 -18.5q-6 -13 -13.5 -19.5t-16.5 -9.5t-19.5 -3.5t-23.5 -0.5l-127 -4l-4 -149
q40 4 79.5 6.5t80.5 2.5q6 0 13 -0.5t14 -2.5t11.5 -6.5t4.5 -12.5q0 -9 -2 -19t-5 -19q-3 -10 -10.5 -15.5t-17 -8t-19.5 -3t-19 -0.5q-32 0 -63 -5t-62 -7q1 -19 1.5 -42t4 -45.5t10.5 -43.5t21 -35q14 -15 27.5 -17.5t33.5 -2.5q26 0 51 0.5t51 0.5q8 0 17.5 -3.5
t9.5 -14.5zM387 449q-25 -40 -51.5 -79t-52.5 -78q-11 -17 -24.5 -34t-21.5 -36l-5 -9q1 0 3 -1t3 -1q38 0 75 4.5t74 10.5v223z" />
    <glyph glyph-name="Ccedilla" unicode="&#xc7;" horiz-adv-x="582" 
d="M542 106q0 -7 -6.5 -16.5t-15.5 -19.5t-18 -19t-14 -13q-23 -20 -56.5 -29t-62.5 -13q-2 -4 -4.5 -8t-2.5 -9q0 -8 13 -12t29 -9.5t29 -14t13 -25.5q0 -14 -14.5 -36t-34.5 -42t-41.5 -34.5t-35.5 -14.5q-8 0 -18.5 6.5t-10.5 16.5q0 7 9 15.5t20 18t20 21t9 26.5
q0 13 -8 19t-18 10.5t-18 10.5t-8 19q0 9 4.5 19.5t8.5 18.5q-23 0 -41.5 3t-35 9.5t-32.5 16t-34 23.5q-29 22 -47 44t-28 46.5t-13.5 53t-3.5 63.5q0 52 8 97.5t27 83.5t51.5 69t82.5 54q43 20 85 30.5t90 10.5q23 0 39.5 -4.5t34.5 -17.5q8 -5 18.5 -14t10.5 -19
q0 -8 -8.5 -19t-20.5 -21.5t-24 -18t-19 -7.5q-11 0 -19.5 6t-18 12.5t-21.5 12.5t-28 6q-33 0 -58.5 -12.5t-44.5 -33.5t-32.5 -47.5t-22.5 -54.5q-8 -26 -14.5 -52.5t-6.5 -53.5q0 -30 9.5 -64t28 -62.5t45.5 -47t62 -18.5q32 0 63 12.5t55.5 27t41 27t19.5 12.5
q4 0 10 -4.5t11 -11t9 -13t4 -10.5z" />
    <glyph glyph-name="Egrave" unicode="&#xc8;" horiz-adv-x="506" 
d="M435 43q0 -5 -1.5 -8.5t-3.5 -7.5l-9 -25q-5 -14 -11 -17t-20 -6q-19 -4 -38 -5.5t-38 -1.5q-66 0 -111 16.5t-73 49t-40 80.5t-12 111q0 47 3 97.5t14.5 99t34 91t62.5 74.5q26 20 62.5 23.5t67.5 3.5q18 0 34 -1.5t28.5 -7.5t19.5 -18.5t7 -34.5q0 -11 -8.5 -14
t-17.5 -3q-8 0 -15.5 1t-15.5 1q-20 0 -43 -1t-41 -7q-21 -7 -36.5 -30.5t-26 -53t-15.5 -60t-5 -49.5q35 4 68.5 5t68.5 1h16.5t25.5 -1.5t23 -5.5t10 -11q0 -8 -6.5 -15t-11.5 -13q-14 -17 -22 -24.5t-31 -10.5q-37 -5 -74 -6t-74 -1q0 -26 3.5 -51t12.5 -48t24 -42.5
t38 -34.5q35 -22 75 -23t78 -1q8 0 16 -2.5t8 -12.5zM415 648q0 -9 -13.5 -13t-20.5 -4t-33.5 13t-56.5 30t-56.5 32.5t-34.5 21.5q-19 14 -19 28q0 6 9 13.5t21 14t24.5 11t20.5 4.5q5 0 18.5 -10t31 -25.5t37 -34t35.5 -35.5t26.5 -29.5t10.5 -16.5z" />
    <glyph glyph-name="Eacute" unicode="&#xc9;" horiz-adv-x="506" 
d="M435 43q0 -5 -1.5 -8.5t-3.5 -7.5l-9 -25q-5 -14 -11 -17t-20 -6q-19 -4 -38 -5.5t-38 -1.5q-66 0 -111 16.5t-73 49t-40 80.5t-12 111q0 47 3 97.5t14.5 99t34 91t62.5 74.5q26 20 62.5 23.5t67.5 3.5q18 0 34 -1.5t28.5 -7.5t19.5 -18.5t7 -34.5q0 -11 -8.5 -14
t-17.5 -3q-8 0 -15.5 1t-15.5 1q-20 0 -43 -1t-41 -7q-21 -7 -36.5 -30.5t-26 -53t-15.5 -60t-5 -49.5q35 4 68.5 5t68.5 1h16.5t25.5 -1.5t23 -5.5t10 -11q0 -8 -6.5 -15t-11.5 -13q-14 -17 -22 -24.5t-31 -10.5q-37 -5 -74 -6t-74 -1q0 -26 3.5 -51t12.5 -48t24 -42.5
t38 -34.5q35 -22 75 -23t78 -1q8 0 16 -2.5t8 -12.5zM452 753q0 -9 -19 -24t-45.5 -30.5t-55 -30.5t-47.5 -24q-8 -2 -16 -7.5t-17 -5.5q-4 0 -9.5 1t-11 3t-9.5 5.5t-4 8.5q0 3 10.5 15.5t26.5 29t35 35t36.5 34t31 26t18.5 10.5q9 0 22 -4.5t25 -11.5t20.5 -15t8.5 -15z
" />
    <glyph glyph-name="Ecircumflex" unicode="&#xca;" horiz-adv-x="506" 
d="M435 43q0 -5 -1.5 -8.5t-3.5 -7.5l-9 -25q-5 -14 -11 -17t-20 -6q-19 -4 -38 -5.5t-38 -1.5q-66 0 -111 16.5t-73 49t-40 80.5t-12 111q0 47 3 97.5t14.5 99t34 91t62.5 74.5q26 20 62.5 23.5t67.5 3.5q18 0 34 -1.5t28.5 -7.5t19.5 -18.5t7 -34.5q0 -11 -8.5 -14
t-17.5 -3q-8 0 -15.5 1t-15.5 1q-20 0 -43 -1t-41 -7q-21 -7 -36.5 -30.5t-26 -53t-15.5 -60t-5 -49.5q35 4 68.5 5t68.5 1h16.5t25.5 -1.5t23 -5.5t10 -11q0 -8 -6.5 -15t-11.5 -13q-14 -17 -22 -24.5t-31 -10.5q-37 -5 -74 -6t-74 -1q0 -26 3.5 -51t12.5 -48t24 -42.5
t38 -34.5q35 -22 75 -23t78 -1q8 0 16 -2.5t8 -12.5zM473 668q0 -3 -4 -8t-9 -9.5t-10.5 -7.5t-8.5 -3t-20 11t-37 25t-37.5 27t-23.5 17q-10 -6 -32 -20.5t-46.5 -30t-46 -27t-29.5 -11.5q-9 0 -9 11q0 29 9.5 48t31.5 37q7 6 25.5 19.5t39 27.5t39 24.5t25.5 10.5
q6 0 18.5 -9t28.5 -23t33 -30.5t31 -32t23 -28.5t9 -18z" />
    <glyph glyph-name="Edieresis" unicode="&#xcb;" horiz-adv-x="506" 
d="M435 43q0 -5 -1.5 -8.5t-3.5 -7.5l-9 -25q-5 -14 -11 -17t-20 -6q-19 -4 -38 -5.5t-38 -1.5q-66 0 -111 16.5t-73 49t-40 80.5t-12 111q0 47 3 97.5t14.5 99t34 91t62.5 74.5q26 20 62.5 23.5t67.5 3.5q18 0 34 -1.5t28.5 -7.5t19.5 -18.5t7 -34.5q0 -11 -8.5 -14
t-17.5 -3q-8 0 -15.5 1t-15.5 1q-20 0 -43 -1t-41 -7q-21 -7 -36.5 -30.5t-26 -53t-15.5 -60t-5 -49.5q35 4 68.5 5t68.5 1h16.5t25.5 -1.5t23 -5.5t10 -11q0 -8 -6.5 -15t-11.5 -13q-14 -17 -22 -24.5t-31 -10.5q-37 -5 -74 -6t-74 -1q0 -26 3.5 -51t12.5 -48t24 -42.5
t38 -34.5q35 -22 75 -23t78 -1q8 0 16 -2.5t8 -12.5zM478 719q0 -8 -5.5 -19.5t-14 -22t-18 -18t-17.5 -7.5q-12 0 -25.5 7.5t-25 18.5t-18.5 25t-7 26q0 6 9 15.5t20.5 18t23.5 14.5t18 6q7 0 17.5 -7.5t20 -17.5t16 -21t6.5 -18zM292 712q0 -9 -11 -19.5t-25.5 -19
t-29 -14.5t-22.5 -6q-6 0 -14.5 7t-16.5 16.5t-13.5 19.5t-5.5 16q0 7 8 19t19 24t22 21t18 9q8 0 20 -8.5t23.5 -20t19.5 -24t8 -20.5z" />
    <glyph glyph-name="Igrave" unicode="&#xcc;" horiz-adv-x="324" 
d="M239 567q0 -24 -5 -47.5t-7 -47.5q-4 -43 -6 -86t-4 -87q-2 -70 -1 -139.5t1 -139.5q0 -16 -9 -20.5t-22 -7.5q-12 -3 -25 -6t-26 -3q-8 0 -9.5 4.5t-1.5 10.5v97t-2 97q-2 53 -5.5 105.5t-8.5 105.5q-2 21 -4.5 39.5t-13.5 37.5q-6 10 -10.5 24.5t-4.5 25.5
q0 6 12.5 18.5t29 25t31.5 22t21 9.5q5 0 16.5 -3.5t23.5 -9.5t21 -12.5t9 -12.5zM300 648q0 -9 -13.5 -13t-20.5 -4t-33.5 13t-56.5 30t-56.5 32.5t-34.5 21.5q-19 14 -19 28q0 6 9 13.5t21 14t24.5 11t20.5 4.5q5 0 18.5 -10t31 -25.5t37 -34t35.5 -35.5t26.5 -29.5
t10.5 -16.5z" />
    <glyph glyph-name="Iacute" unicode="&#xcd;" horiz-adv-x="324" 
d="M239 567q0 -24 -5 -47.5t-7 -47.5q-4 -43 -6 -86t-4 -87q-2 -70 -1 -139.5t1 -139.5q0 -16 -9 -20.5t-22 -7.5q-12 -3 -25 -6t-26 -3q-8 0 -9.5 4.5t-1.5 10.5v97t-2 97q-2 53 -5.5 105.5t-8.5 105.5q-2 21 -4.5 39.5t-13.5 37.5q-6 10 -10.5 24.5t-4.5 25.5
q0 6 12.5 18.5t29 25t31.5 22t21 9.5q5 0 16.5 -3.5t23.5 -9.5t21 -12.5t9 -12.5zM299 753q0 -9 -19 -24t-45.5 -30.5t-55 -30.5t-47.5 -24q-8 -2 -16 -7.5t-17 -5.5q-4 0 -9.5 1t-11 3t-9.5 5.5t-4 8.5q0 3 10.5 15.5t26.5 29t35 35t36.5 34t31 26t18.5 10.5q9 0 22 -4.5
t25 -11.5t20.5 -15t8.5 -15z" />
    <glyph glyph-name="Icircumflex" unicode="&#xce;" horiz-adv-x="324" 
d="M239 567q0 -24 -5 -47.5t-7 -47.5q-4 -43 -6 -86t-4 -87q-2 -70 -1 -139.5t1 -139.5q0 -16 -9 -20.5t-22 -7.5q-12 -3 -25 -6t-26 -3q-8 0 -9.5 4.5t-1.5 10.5v97t-2 97q-2 53 -5.5 105.5t-8.5 105.5q-2 21 -4.5 39.5t-13.5 37.5q-6 10 -10.5 24.5t-4.5 25.5
q0 6 12.5 18.5t29 25t31.5 22t21 9.5q5 0 16.5 -3.5t23.5 -9.5t21 -12.5t9 -12.5zM331 668q0 -3 -4 -8t-9 -9.5t-10.5 -7.5t-8.5 -3t-20 11t-37 25t-37.5 27t-23.5 17q-10 -6 -32 -20.5t-46.5 -30t-46 -27t-29.5 -11.5q-9 0 -9 11q0 29 9.5 48t31.5 37q7 6 25.5 19.5
t39 27.5t39 24.5t25.5 10.5q6 0 18.5 -9t28.5 -23t33 -30.5t31 -32t23 -28.5t9 -18z" />
    <glyph glyph-name="Idieresis" unicode="&#xcf;" horiz-adv-x="324" 
d="M239 567q0 -24 -5 -47.5t-7 -47.5q-4 -43 -6 -86t-4 -87q-2 -70 -1 -139.5t1 -139.5q0 -16 -9 -20.5t-22 -7.5q-12 -3 -25 -6t-26 -3q-8 0 -9.5 4.5t-1.5 10.5v97t-2 97q-2 53 -5.5 105.5t-8.5 105.5q-2 21 -4.5 39.5t-13.5 37.5q-6 10 -10.5 24.5t-4.5 25.5
q0 6 12.5 18.5t29 25t31.5 22t21 9.5q5 0 16.5 -3.5t23.5 -9.5t21 -12.5t9 -12.5zM335 719q0 -8 -5.5 -19.5t-14 -22t-18 -18t-17.5 -7.5q-12 0 -25.5 7.5t-25 18.5t-18.5 25t-7 26q0 6 9 15.5t20.5 18t23.5 14.5t18 6q7 0 17.5 -7.5t20 -17.5t16 -21t6.5 -18zM149 712
q0 -9 -11 -19.5t-25.5 -19t-29 -14.5t-22.5 -6q-6 0 -14.5 7t-16.5 16.5t-13.5 19.5t-5.5 16q0 7 8 19t19 24t22 21t18 9q8 0 20 -8.5t23.5 -20t19.5 -24t8 -20.5z" />
    <glyph glyph-name="Eth" unicode="&#xd0;" horiz-adv-x="605" 
d="M547 356q0 -45 -2.5 -85.5t-13 -77t-32 -69t-60.5 -60.5q-21 -16 -49 -30.5t-58 -26t-60 -18t-57 -6.5q-26 0 -51 5t-51 10q-9 2 -19.5 5t-10.5 15q0 2 4.5 10.5t10.5 19t11 22t7 20.5q6 35 6.5 72t0.5 73v17q-20 -1 -44.5 -6t-38.5 -5q-5 0 -9 4.5t-6 10.5t-3 12.5
t-1 10.5q0 15 1.5 24.5t6 15.5t13.5 8.5t25 2.5q29 0 56 -6q-1 42 -3.5 84t-11.5 84q-6 3 -13 7t-14 9.5t-11.5 11.5t-4.5 14q0 11 7.5 16t15.5 8q18 7 45 15.5t56 15.5t56.5 11.5t46.5 4.5q24 0 51.5 -7.5t54.5 -20t51 -28.5t41 -33q31 -32 44 -74.5t13 -85.5zM436 327
q0 42 -13.5 84t-43.5 73q-21 22 -51 38t-61 16q-12 0 -24 -4.5t-22 -12.5v-199h1q51 0 99 9q6 1 12 3t12 2q3 0 7.5 -1.5t4.5 -6.5t-2 -13t-5 -17t-6.5 -17t-5.5 -12q-6 -11 -16.5 -15t-23 -4.5t-25.5 1t-24 1.5h-27v-122v-32.5t2 -32.5q3 -1 6.5 -1h6.5q73 0 120 28t64 102
q8 32 11.5 66t3.5 67z" />
    <glyph glyph-name="Ntilde" unicode="&#xd1;" horiz-adv-x="885" 
d="M805 37q0 -16 -10.5 -23.5t-22.5 -14.5q-10 -5 -26 -14.5t-27 -9.5q-9 0 -14 5.5t-8 13.5t-5.5 16.5t-7.5 14.5q-6 8 -14.5 13t-16.5 10q-53 31 -108 60t-109 60.5t-104.5 67t-94.5 79.5q1 -8 1 -16.5v-16.5q0 -59 -5 -117.5t-12 -117.5q-2 -15 -3.5 -23.5t-5 -14.5
t-10 -11.5t-18.5 -14.5q-4 -3 -8.5 -6.5t-9.5 -3.5q-6 0 -16.5 3t-21 8.5t-18.5 12t-8 13.5q0 9 3 21.5t7 26.5t8.5 27.5t6.5 23.5q11 50 17 97.5t6 98.5q0 10 -0.5 23.5t-2 26.5t-6 24.5t-11.5 19.5q-8 8 -26.5 26t-38 37.5t-34 38t-14.5 28.5q0 7 8 15.5t19.5 16
t22.5 12.5t17 5q7 0 13 -2.5t12 -5.5q14 -7 38.5 -28t51 -46t51 -49t39.5 -37q38 -35 77.5 -68.5t81.5 -65.5q59 -45 122 -84t131 -70q5 40 7.5 80t2.5 80q0 41 -2.5 81.5t-9.5 80.5q-2 10 -8.5 25.5t-13 30.5t-12 27.5t-5.5 17.5q0 9 16.5 16t37.5 11.5t41 7t28 2.5
q18 0 18 -19q0 -26 -2.5 -52.5t-4.5 -52.5q-2 -52 -3.5 -103.5t-1.5 -103.5q0 -103 15 -203q1 -4 1 -11zM655 736q0 -6 -10.5 -21.5t-25 -32t-28 -29t-19.5 -12.5q-16 0 -36.5 7.5t-41.5 16t-40 16t-32 7.5q-6 0 -16 -7t-21.5 -15t-21.5 -15t-16 -7q-5 0 -8 5t-4.5 11.5
t-2 13t-0.5 9.5q0 14 10 29t24 27.5t30.5 20.5t30.5 8q18 0 37.5 -6.5t37.5 -15t33 -15t24 -6.5q4 0 14 8t21.5 18t22.5 18t17 8q4 0 8 -5t7 -12t4.5 -13.5t1.5 -10.5z" />
    <glyph glyph-name="Ograve" unicode="&#xd2;" horiz-adv-x="630" 
d="M577 334q0 -61 -18 -119.5t-53 -104t-86 -73.5t-118 -28q-56 0 -99.5 21t-74.5 57t-47 83t-16 100q0 59 18.5 117t54 103.5t86 73.5t115.5 28q57 0 101 -20t74.5 -55t46.5 -82t16 -101zM474 297q0 35 -6.5 72t-22.5 67t-43.5 49.5t-70.5 19.5q-42 0 -72.5 -17.5
t-50.5 -45.5t-29.5 -64t-9.5 -73q0 -36 10 -71.5t30 -63.5t50 -45.5t71 -17.5q42 0 69.5 16.5t44 43.5t23.5 61t7 69zM487 648q0 -9 -13.5 -13t-20.5 -4t-33.5 13t-56.5 30t-56.5 32.5t-34.5 21.5q-19 14 -19 28q0 6 9 13.5t21 14t24.5 11t20.5 4.5q5 0 18.5 -10t31 -25.5
t37 -34t35.5 -35.5t26.5 -29.5t10.5 -16.5z" />
    <glyph glyph-name="Oacute" unicode="&#xd3;" horiz-adv-x="630" 
d="M577 334q0 -61 -18 -119.5t-53 -104t-86 -73.5t-118 -28q-56 0 -99.5 21t-74.5 57t-47 83t-16 100q0 59 18.5 117t54 103.5t86 73.5t115.5 28q57 0 101 -20t74.5 -55t46.5 -82t16 -101zM474 297q0 35 -6.5 72t-22.5 67t-43.5 49.5t-70.5 19.5q-42 0 -72.5 -17.5
t-50.5 -45.5t-29.5 -64t-9.5 -73q0 -36 10 -71.5t30 -63.5t50 -45.5t71 -17.5q42 0 69.5 16.5t44 43.5t23.5 61t7 69zM500 753q0 -9 -19 -24t-45.5 -30.5t-55 -30.5t-47.5 -24q-8 -2 -16 -7.5t-17 -5.5q-4 0 -9.5 1t-11 3t-9.5 5.5t-4 8.5q0 3 10.5 15.5t26.5 29t35 35
t36.5 34t31 26t18.5 10.5q9 0 22 -4.5t25 -11.5t20.5 -15t8.5 -15z" />
    <glyph glyph-name="Ocircumflex" unicode="&#xd4;" horiz-adv-x="630" 
d="M577 334q0 -61 -18 -119.5t-53 -104t-86 -73.5t-118 -28q-56 0 -99.5 21t-74.5 57t-47 83t-16 100q0 59 18.5 117t54 103.5t86 73.5t115.5 28q57 0 101 -20t74.5 -55t46.5 -82t16 -101zM474 297q0 35 -6.5 72t-22.5 67t-43.5 49.5t-70.5 19.5q-42 0 -72.5 -17.5
t-50.5 -45.5t-29.5 -64t-9.5 -73q0 -36 10 -71.5t30 -63.5t50 -45.5t71 -17.5q42 0 69.5 16.5t44 43.5t23.5 61t7 69zM524 668q0 -3 -4 -8t-9 -9.5t-10.5 -7.5t-8.5 -3t-20 11t-37 25t-37.5 27t-23.5 17q-10 -6 -32 -20.5t-46.5 -30t-46 -27t-29.5 -11.5q-9 0 -9 11
q0 29 9.5 48t31.5 37q7 6 25.5 19.5t39 27.5t39 24.5t25.5 10.5q6 0 18.5 -9t28.5 -23t33 -30.5t31 -32t23 -28.5t9 -18z" />
    <glyph glyph-name="Otilde" unicode="&#xd5;" horiz-adv-x="630" 
d="M577 334q0 -61 -18 -119.5t-53 -104t-86 -73.5t-118 -28q-56 0 -99.5 21t-74.5 57t-47 83t-16 100q0 59 18.5 117t54 103.5t86 73.5t115.5 28q57 0 101 -20t74.5 -55t46.5 -82t16 -101zM474 297q0 35 -6.5 72t-22.5 67t-43.5 49.5t-70.5 19.5q-42 0 -72.5 -17.5
t-50.5 -45.5t-29.5 -64t-9.5 -73q0 -36 10 -71.5t30 -63.5t50 -45.5t71 -17.5q42 0 69.5 16.5t44 43.5t23.5 61t7 69zM507 736q0 -6 -10.5 -21.5t-25 -32t-28 -29t-19.5 -12.5q-16 0 -36.5 7.5t-41.5 16t-40 16t-32 7.5q-6 0 -16 -7t-21.5 -15t-21.5 -15t-16 -7q-5 0 -8 5
t-4.5 11.5t-2 13t-0.5 9.5q0 14 10 29t24 27.5t30.5 20.5t30.5 8q18 0 37.5 -6.5t37.5 -15t33 -15t24 -6.5q4 0 14 8t21.5 18t22.5 18t17 8q4 0 8 -5t7 -12t4.5 -13.5t1.5 -10.5z" />
    <glyph glyph-name="Odieresis" unicode="&#xd6;" horiz-adv-x="630" 
d="M577 334q0 -61 -18 -119.5t-53 -104t-86 -73.5t-118 -28q-56 0 -99.5 21t-74.5 57t-47 83t-16 100q0 59 18.5 117t54 103.5t86 73.5t115.5 28q57 0 101 -20t74.5 -55t46.5 -82t16 -101zM474 297q0 35 -6.5 72t-22.5 67t-43.5 49.5t-70.5 19.5q-42 0 -72.5 -17.5
t-50.5 -45.5t-29.5 -64t-9.5 -73q0 -36 10 -71.5t30 -63.5t50 -45.5t71 -17.5q42 0 69.5 16.5t44 43.5t23.5 61t7 69zM527 719q0 -8 -5.5 -19.5t-14 -22t-18 -18t-17.5 -7.5q-12 0 -25.5 7.5t-25 18.5t-18.5 25t-7 26q0 6 9 15.5t20.5 18t23.5 14.5t18 6q7 0 17.5 -7.5
t20 -17.5t16 -21t6.5 -18zM341 712q0 -9 -11 -19.5t-25.5 -19t-29 -14.5t-22.5 -6q-6 0 -14.5 7t-16.5 16.5t-13.5 19.5t-5.5 16q0 7 8 19t19 24t22 21t18 9q8 0 20 -8.5t23.5 -20t19.5 -24t8 -20.5z" />
    <glyph glyph-name="multiply" unicode="&#xd7;" horiz-adv-x="593" 
d="M479 8l-184 184l-183 -184l-62 62l184 183l-184 184l62 62l183 -184l184 184l62 -62l-184 -183l184 -184z" />
    <glyph glyph-name="Oslash" unicode="&#xd8;" horiz-adv-x="630" 
d="M577 334q0 -61 -18 -119.5t-53 -104t-86 -73.5t-118 -28q-48 0 -93 18q-5 -10 -9 -22.5t-10 -23.5t-14.5 -18.5t-22.5 -7.5q-5 0 -12.5 1.5t-15 4.5t-13 7t-5.5 10t8.5 14.5t12.5 13.5q10 11 17 24t13 27q-48 39 -70.5 96t-22.5 117t18.5 117.5t53.5 103t86 73.5t116 28
q26 0 51 -4.5t48 -15.5q8 7 16 23t17 32.5t19 29t21 12.5t19.5 -12t8.5 -22t-5.5 -23t-13 -26t-16 -25t-14.5 -21q48 -40 67.5 -93t19.5 -113zM474 297q0 37 -7 79t-29 73q-9 -12 -20 -32.5t-22.5 -43t-22.5 -44.5t-19 -37q-23 -43 -47.5 -84t-46.5 -85q31 -16 67 -16
q43 0 71 16t45 42.5t24 60.5t7 71zM396 488q-14 10 -31 13.5t-34 3.5q-42 0 -72.5 -17.5t-50.5 -45.5t-29.5 -64t-9.5 -73q0 -38 11.5 -76t35.5 -68q13 17 22.5 36t20.5 38q35 63 70 125.5t67 127.5z" />
    <glyph glyph-name="Ugrave" unicode="&#xd9;" horiz-adv-x="881" 
d="M891 487q0 -13 -9 -31l-15 -30q-24 -50 -51 -103.5t-59.5 -103.5t-72 -93.5t-88.5 -73.5q-29 -17 -62 -29.5t-67 -12.5q-54 0 -98 24.5t-84 58.5q-25 22 -56.5 52.5t-63.5 66.5t-62 76.5t-54 81t-38 80t-14 74.5q0 10 4 14t12 8t24 8.5t33.5 8.5t34 7t25.5 3t17.5 -5.5
t8.5 -16.5q0 -20 -7 -39t-7 -39q0 -32 13.5 -64.5t34 -63.5t45 -58t45.5 -49q18 -18 42.5 -41.5t52 -44t56.5 -35t56 -14.5q26 0 51.5 9t48 24.5t41.5 35.5t33 41q31 49 49.5 109t29.5 117q5 22 7.5 43.5t6.5 43.5q2 11 4.5 18.5t16.5 7.5q10 0 29 -6t38.5 -15t34 -20.5
t14.5 -23.5zM611 648q0 -9 -13.5 -13t-20.5 -4t-33.5 13t-56.5 30t-56.5 32.5t-34.5 21.5q-19 14 -19 28q0 6 9 13.5t21 14t24.5 11t20.5 4.5q5 0 18.5 -10t31 -25.5t37 -34t35.5 -35.5t26.5 -29.5t10.5 -16.5z" />
    <glyph glyph-name="Uacute" unicode="&#xda;" horiz-adv-x="881" 
d="M891 487q0 -13 -9 -31l-15 -30q-24 -50 -51 -103.5t-59.5 -103.5t-72 -93.5t-88.5 -73.5q-29 -17 -62 -29.5t-67 -12.5q-54 0 -98 24.5t-84 58.5q-25 22 -56.5 52.5t-63.5 66.5t-62 76.5t-54 81t-38 80t-14 74.5q0 10 4 14t12 8t24 8.5t33.5 8.5t34 7t25.5 3t17.5 -5.5
t8.5 -16.5q0 -20 -7 -39t-7 -39q0 -32 13.5 -64.5t34 -63.5t45 -58t45.5 -49q18 -18 42.5 -41.5t52 -44t56.5 -35t56 -14.5q26 0 51.5 9t48 24.5t41.5 35.5t33 41q31 49 49.5 109t29.5 117q5 22 7.5 43.5t6.5 43.5q2 11 4.5 18.5t16.5 7.5q10 0 29 -6t38.5 -15t34 -20.5
t14.5 -23.5zM609 753q0 -9 -19 -24t-45.5 -30.5t-55 -30.5t-47.5 -24q-8 -2 -16 -7.5t-17 -5.5q-4 0 -9.5 1t-11 3t-9.5 5.5t-4 8.5q0 3 10.5 15.5t26.5 29t35 35t36.5 34t31 26t18.5 10.5q9 0 22 -4.5t25 -11.5t20.5 -15t8.5 -15z" />
    <glyph glyph-name="Ucircumflex" unicode="&#xdb;" horiz-adv-x="881" 
d="M891 487q0 -13 -9 -31l-15 -30q-24 -50 -51 -103.5t-59.5 -103.5t-72 -93.5t-88.5 -73.5q-29 -17 -62 -29.5t-67 -12.5q-54 0 -98 24.5t-84 58.5q-25 22 -56.5 52.5t-63.5 66.5t-62 76.5t-54 81t-38 80t-14 74.5q0 10 4 14t12 8t24 8.5t33.5 8.5t34 7t25.5 3t17.5 -5.5
t8.5 -16.5q0 -20 -7 -39t-7 -39q0 -32 13.5 -64.5t34 -63.5t45 -58t45.5 -49q18 -18 42.5 -41.5t52 -44t56.5 -35t56 -14.5q26 0 51.5 9t48 24.5t41.5 35.5t33 41q31 49 49.5 109t29.5 117q5 22 7.5 43.5t6.5 43.5q2 11 4.5 18.5t16.5 7.5q10 0 29 -6t38.5 -15t34 -20.5
t14.5 -23.5zM650 668q0 -3 -4 -8t-9 -9.5t-10.5 -7.5t-8.5 -3t-20 11t-37 25t-37.5 27t-23.5 17q-10 -6 -32 -20.5t-46.5 -30t-46 -27t-29.5 -11.5q-9 0 -9 11q0 29 9.5 48t31.5 37q7 6 25.5 19.5t39 27.5t39 24.5t25.5 10.5q6 0 18.5 -9t28.5 -23t33 -30.5t31 -32t23 -28.5
t9 -18z" />
    <glyph glyph-name="Udieresis" unicode="&#xdc;" horiz-adv-x="881" 
d="M891 487q0 -13 -9 -31l-15 -30q-24 -50 -51 -103.5t-59.5 -103.5t-72 -93.5t-88.5 -73.5q-29 -17 -62 -29.5t-67 -12.5q-54 0 -98 24.5t-84 58.5q-25 22 -56.5 52.5t-63.5 66.5t-62 76.5t-54 81t-38 80t-14 74.5q0 10 4 14t12 8t24 8.5t33.5 8.5t34 7t25.5 3t17.5 -5.5
t8.5 -16.5q0 -20 -7 -39t-7 -39q0 -32 13.5 -64.5t34 -63.5t45 -58t45.5 -49q18 -18 42.5 -41.5t52 -44t56.5 -35t56 -14.5q26 0 51.5 9t48 24.5t41.5 35.5t33 41q31 49 49.5 109t29.5 117q5 22 7.5 43.5t6.5 43.5q2 11 4.5 18.5t16.5 7.5q10 0 29 -6t38.5 -15t34 -20.5
t14.5 -23.5zM654 719q0 -8 -5.5 -19.5t-14 -22t-18 -18t-17.5 -7.5q-12 0 -25.5 7.5t-25 18.5t-18.5 25t-7 26q0 6 9 15.5t20.5 18t23.5 14.5t18 6q7 0 17.5 -7.5t20 -17.5t16 -21t6.5 -18zM468 712q0 -9 -11 -19.5t-25.5 -19t-29 -14.5t-22.5 -6q-6 0 -14.5 7t-16.5 16.5
t-13.5 19.5t-5.5 16q0 7 8 19t19 24t22 21t18 9q8 0 20 -8.5t23.5 -20t19.5 -24t8 -20.5z" />
    <glyph glyph-name="Yacute" unicode="&#xdd;" horiz-adv-x="807" 
d="M851 520q0 -8 -13.5 -33.5t-34.5 -60t-46.5 -73.5t-49 -75t-42.5 -64t-27 -40q-20 -30 -29.5 -52.5t-12.5 -44t-2.5 -46t0.5 -58.5q0 -13 -1.5 -22t-13.5 -17q-13 -8 -34 -11.5t-36 -3.5q-14 0 -24.5 3.5t-21.5 11.5q11 26 17 54.5t6 56.5q0 21 -8.5 39t-21.5 33.5
t-29 29.5t-30 27q-89 80 -181.5 153.5t-188.5 145.5q-6 4 -15 11t-18 15t-15.5 16t-6.5 16q0 11 12 25t28.5 26t33.5 20t28 8q10 0 14.5 -8t8.5 -15q21 -35 51 -62.5t61 -53.5l233 -202q25 -21 49.5 -42.5t43.5 -47.5q19 43 46.5 83.5t55.5 80.5t52 81.5t37 87.5q2 7 3 17
t3.5 19.5t7.5 16t16 6.5q7 0 23 -5t32 -12.5t28 -16.5t12 -17zM628 753q0 -9 -19 -24t-45.5 -30.5t-55 -30.5t-47.5 -24q-8 -2 -16 -7.5t-17 -5.5q-4 0 -9.5 1t-11 3t-9.5 5.5t-4 8.5q0 3 10.5 15.5t26.5 29t35 35t36.5 34t31 26t18.5 10.5q9 0 22 -4.5t25 -11.5t20.5 -15
t8.5 -15z" />
    <glyph glyph-name="Thorn" unicode="&#xde;" horiz-adv-x="565" 
d="M500 320q0 -36 -14 -66.5t-36 -56.5t-50.5 -46.5t-56.5 -36.5q-7 2 -21 6.5t-28.5 11.5t-25 15t-10.5 17q0 11 10.5 13.5t18.5 4.5q47 14 77 48.5t30 84.5q0 41 -26 63.5t-65 22.5q-23 0 -37 -8t-30 -23q-2 -75 -1.5 -149.5t-4.5 -149.5q-1 -11 -2 -23t-1 -23
q0 -12 -1 -22t-12 -18q-11 -9 -30.5 -15t-34.5 -6q-5 0 -12 2.5t-7 9.5q0 10 2 19.5t3 19.5q2 25 3 49.5t1 49.5q0 75 -1 148.5t-1 148.5q0 15 -1 32.5t-3.5 36t-6.5 35.5t-11 30q-2 5 -4 8.5t-2 8.5q0 7 11 18.5t25 22t28.5 18t20.5 7.5q5 0 15 -4.5t19.5 -10.5t17 -13
t7.5 -12q0 -8 -2 -16.5t-4 -16.5q-4 -20 -5.5 -39.5t-1.5 -39.5q11 2 22.5 3t22.5 1q37 0 75.5 -8.5t69.5 -27.5t50.5 -49.5t19.5 -74.5z" />
    <glyph glyph-name="germandbls" unicode="&#xdf;" horiz-adv-x="656" 
d="M612 608q0 -20 -7.5 -37.5t-29.5 -17.5q-18 0 -42.5 -1t-47 -7t-38.5 -19.5t-16 -38.5q0 -14 9.5 -39t24 -56t31.5 -66t31.5 -68.5t24 -62.5t9.5 -49q0 -24 -7.5 -46.5t-16.5 -44.5q-18 -46 -43.5 -65.5t-75.5 -19.5q-8 0 -23 1.5t-30.5 4t-29 6.5t-19.5 10
q-11 11 -13 32t-3 36q-9 -24 -19.5 -41t-24 -28t-32.5 -16t-45 -5q-18 0 -45 3.5t-43 10.5q-12 5 -18 14.5t-8.5 21t-3 23.5t-0.5 23q0 7 4 12.5t12 5.5q13 0 26 -3.5t26 -8t26.5 -8t27.5 -3.5q20 0 35.5 11t15.5 34q0 8 -7.5 25.5t-19 40.5t-25.5 48.5t-27 49.5t-24.5 42.5
t-16.5 27.5q-15 25 -24.5 47t-9.5 51q0 33 17.5 67t44.5 62.5t61 46.5t67 18q6 0 23 -0.5t35 -2.5t31.5 -7t13.5 -14q0 -10 -4.5 -25t-9.5 -23q-3 -4 -16 -5t-31.5 -1.5t-39.5 -3t-38.5 -9t-29 -19.5t-11.5 -35q0 -13 9.5 -38t24 -56.5t31 -66.5t31 -68.5t24 -63t9.5 -48.5
q0 -17 -4 -33t-10 -31q4 2 8 2q13 0 26 -3.5t26 -8t26.5 -8t27.5 -3.5q20 0 35.5 11t15.5 34q0 8 -7.5 26t-19 40.5t-25.5 48t-27.5 49t-24.5 42t-17 28.5q-14 24 -24 46.5t-10 51.5q0 33 17.5 67t44.5 62.5t61 46.5t67 18q6 0 23 -0.5t35 -2.5t32 -7t14 -14z" />
    <glyph glyph-name="agrave" unicode="&#xe0;" horiz-adv-x="724" 
d="M753 49q0 -12 -14 -30t-34 -30q-5 -1 -9.5 -1h-6.5q-16 0 -25.5 1t-16 3.5t-11 7.5t-9.5 13q-8 13 -17.5 25.5t-29.5 35.5q-9 9 -13.5 14t-9.5 10t-12 12.5t-20 22.5q-1 0 -2 2q-1 1 -2 2.5t-3 3.5q-11 1 -19 1h-25q-29 0 -52.5 -0.5t-36.5 -0.5h-24l-24 -1l-24 -1
q-26 -1 -44 -1h-21q-11 -1 -18 -1.5t-9 -0.5q-14 0 -20 -3.5t-13 -15.5l-12 -22q-11 -19 -16 -28.5t-10 -17.5q-2 -5 -3 -7l-1.5 -3t-1 -2.5t-2.5 -4.5q-3 -5 -3.5 -7.5t-2.5 -5.5q-6 -15 -11 -20t-15 -5q-3 0 -8 0.5t-10 1.5q-2 1 -9 2.5t-18 3.5q-36 7 -45 10.5t-9 13.5
q0 5 2.5 8.5t11.5 15.5l21 27q13 18 21.5 28.5t15 19.5t12.5 19t16 26q11 17 20.5 33t20 34t23 39.5t28.5 50.5q15 27 24 43t13 26t5 16t1 14v5l-82 86q-11 12 -20.5 21.5t-20.5 17.5q-6 5 -8 8.5t-2 8.5q0 6 5 11.5t19 15.5q24 17 39 17q13 0 31 -3.5t29 -8.5q6 -2 16 -13
t36 -44q28 -35 51 -63.5t45 -54t43.5 -50t47.5 -52.5q53 -59 93 -101t74 -74q19 -18 32 -30.5t23.5 -21.5t19.5 -16t19 -14q11 -8 14 -12t3 -10zM444 222q-9 11 -16 19t-19 21t-33 34t-57 59q-7 -12 -7 -13l-9 -14l-8 -15l-9 -14q-13 -20 -24.5 -42.5t-19.5 -37.5
q26 -2 53 -2.5t38 -0.5q26 0 55.5 1.5t55.5 4.5zM320 648q0 -9 -13.5 -13t-20.5 -4t-33.5 13t-56.5 30t-56.5 32.5t-34.5 21.5q-19 14 -19 28q0 6 9 13.5t21 14t24.5 11t20.5 4.5q5 0 18.5 -10t31 -25.5t37 -34t35.5 -35.5t26.5 -29.5t10.5 -16.5z" />
    <glyph glyph-name="aacute" unicode="&#xe1;" horiz-adv-x="724" 
d="M753 49q0 -12 -14 -30t-34 -30q-5 -1 -9.5 -1h-6.5q-16 0 -25.5 1t-16 3.5t-11 7.5t-9.5 13q-8 13 -17.5 25.5t-29.5 35.5q-9 9 -13.5 14t-9.5 10t-12 12.5t-20 22.5q-1 0 -2 2q-1 1 -2 2.5t-3 3.5q-11 1 -19 1h-25q-29 0 -52.5 -0.5t-36.5 -0.5h-24l-24 -1l-24 -1
q-26 -1 -44 -1h-21q-11 -1 -18 -1.5t-9 -0.5q-14 0 -20 -3.5t-13 -15.5l-12 -22q-11 -19 -16 -28.5t-10 -17.5q-2 -5 -3 -7l-1.5 -3t-1 -2.5t-2.5 -4.5q-3 -5 -3.5 -7.5t-2.5 -5.5q-6 -15 -11 -20t-15 -5q-3 0 -8 0.5t-10 1.5q-2 1 -9 2.5t-18 3.5q-36 7 -45 10.5t-9 13.5
q0 5 2.5 8.5t11.5 15.5l21 27q13 18 21.5 28.5t15 19.5t12.5 19t16 26q11 17 20.5 33t20 34t23 39.5t28.5 50.5q15 27 24 43t13 26t5 16t1 14v5l-82 86q-11 12 -20.5 21.5t-20.5 17.5q-6 5 -8 8.5t-2 8.5q0 6 5 11.5t19 15.5q24 17 39 17q13 0 31 -3.5t29 -8.5q6 -2 16 -13
t36 -44q28 -35 51 -63.5t45 -54t43.5 -50t47.5 -52.5q53 -59 93 -101t74 -74q19 -18 32 -30.5t23.5 -21.5t19.5 -16t19 -14q11 -8 14 -12t3 -10zM444 222q-9 11 -16 19t-19 21t-33 34t-57 59q-7 -12 -7 -13l-9 -14l-8 -15l-9 -14q-13 -20 -24.5 -42.5t-19.5 -37.5
q26 -2 53 -2.5t38 -0.5q26 0 55.5 1.5t55.5 4.5zM448 753q0 -9 -19 -24t-45.5 -30.5t-55 -30.5t-47.5 -24q-8 -2 -16 -7.5t-17 -5.5q-4 0 -9.5 1t-11 3t-9.5 5.5t-4 8.5q0 3 10.5 15.5t26.5 29t35 35t36.5 34t31 26t18.5 10.5q9 0 22 -4.5t25 -11.5t20.5 -15t8.5 -15z" />
    <glyph glyph-name="acircumflex" unicode="&#xe2;" horiz-adv-x="724" 
d="M753 49q0 -12 -14 -30t-34 -30q-5 -1 -9.5 -1h-6.5q-16 0 -25.5 1t-16 3.5t-11 7.5t-9.5 13q-8 13 -17.5 25.5t-29.5 35.5q-9 9 -13.5 14t-9.5 10t-12 12.5t-20 22.5q-1 0 -2 2q-1 1 -2 2.5t-3 3.5q-11 1 -19 1h-25q-29 0 -52.5 -0.5t-36.5 -0.5h-24l-24 -1l-24 -1
q-26 -1 -44 -1h-21q-11 -1 -18 -1.5t-9 -0.5q-14 0 -20 -3.5t-13 -15.5l-12 -22q-11 -19 -16 -28.5t-10 -17.5q-2 -5 -3 -7l-1.5 -3t-1 -2.5t-2.5 -4.5q-3 -5 -3.5 -7.5t-2.5 -5.5q-6 -15 -11 -20t-15 -5q-3 0 -8 0.5t-10 1.5q-2 1 -9 2.5t-18 3.5q-36 7 -45 10.5t-9 13.5
q0 5 2.5 8.5t11.5 15.5l21 27q13 18 21.5 28.5t15 19.5t12.5 19t16 26q11 17 20.5 33t20 34t23 39.5t28.5 50.5q15 27 24 43t13 26t5 16t1 14v5l-82 86q-11 12 -20.5 21.5t-20.5 17.5q-6 5 -8 8.5t-2 8.5q0 6 5 11.5t19 15.5q24 17 39 17q13 0 31 -3.5t29 -8.5q6 -2 16 -13
t36 -44q28 -35 51 -63.5t45 -54t43.5 -50t47.5 -52.5q53 -59 93 -101t74 -74q19 -18 32 -30.5t23.5 -21.5t19.5 -16t19 -14q11 -8 14 -12t3 -10zM444 222q-9 11 -16 19t-19 21t-33 34t-57 59q-7 -12 -7 -13l-9 -14l-8 -15l-9 -14q-13 -20 -24.5 -42.5t-19.5 -37.5
q26 -2 53 -2.5t38 -0.5q26 0 55.5 1.5t55.5 4.5zM434 668q0 -3 -4 -8t-9 -9.5t-10.5 -7.5t-8.5 -3t-20 11t-37 25t-37.5 27t-23.5 17q-10 -6 -32 -20.5t-46.5 -30t-46 -27t-29.5 -11.5q-9 0 -9 11q0 29 9.5 48t31.5 37q7 6 25.5 19.5t39 27.5t39 24.5t25.5 10.5q6 0 18.5 -9
t28.5 -23t33 -30.5t31 -32t23 -28.5t9 -18z" />
    <glyph glyph-name="atilde" unicode="&#xe3;" horiz-adv-x="724" 
d="M753 49q0 -12 -14 -30t-34 -30q-5 -1 -9.5 -1h-6.5q-16 0 -25.5 1t-16 3.5t-11 7.5t-9.5 13q-8 13 -17.5 25.5t-29.5 35.5q-9 9 -13.5 14t-9.5 10t-12 12.5t-20 22.5q-1 0 -2 2q-1 1 -2 2.5t-3 3.5q-11 1 -19 1h-25q-29 0 -52.5 -0.5t-36.5 -0.5h-24l-24 -1l-24 -1
q-26 -1 -44 -1h-21q-11 -1 -18 -1.5t-9 -0.5q-14 0 -20 -3.5t-13 -15.5l-12 -22q-11 -19 -16 -28.5t-10 -17.5q-2 -5 -3 -7l-1.5 -3t-1 -2.5t-2.5 -4.5q-3 -5 -3.5 -7.5t-2.5 -5.5q-6 -15 -11 -20t-15 -5q-3 0 -8 0.5t-10 1.5q-2 1 -9 2.5t-18 3.5q-36 7 -45 10.5t-9 13.5
q0 5 2.5 8.5t11.5 15.5l21 27q13 18 21.5 28.5t15 19.5t12.5 19t16 26q11 17 20.5 33t20 34t23 39.5t28.5 50.5q15 27 24 43t13 26t5 16t1 14v5l-82 86q-11 12 -20.5 21.5t-20.5 17.5q-6 5 -8 8.5t-2 8.5q0 6 5 11.5t19 15.5q24 17 39 17q13 0 31 -3.5t29 -8.5q6 -2 16 -13
t36 -44q28 -35 51 -63.5t45 -54t43.5 -50t47.5 -52.5q53 -59 93 -101t74 -74q19 -18 32 -30.5t23.5 -21.5t19.5 -16t19 -14q11 -8 14 -12t3 -10zM444 222q-9 11 -16 19t-19 21t-33 34t-57 59q-7 -12 -7 -13l-9 -14l-8 -15l-9 -14q-13 -20 -24.5 -42.5t-19.5 -37.5
q26 -2 53 -2.5t38 -0.5q26 0 55.5 1.5t55.5 4.5zM424 736q0 -6 -10.5 -21.5t-25 -32t-28 -29t-19.5 -12.5q-16 0 -36.5 7.5t-41.5 16t-40 16t-32 7.5q-6 0 -16 -7t-21.5 -15t-21.5 -15t-16 -7q-5 0 -8 5t-4.5 11.5t-2 13t-0.5 9.5q0 14 10 29t24 27.5t30.5 20.5t30.5 8
q18 0 37.5 -6.5t37.5 -15t33 -15t24 -6.5q4 0 14 8t21.5 18t22.5 18t17 8q4 0 8 -5t7 -12t4.5 -13.5t1.5 -10.5z" />
    <glyph glyph-name="adieresis" unicode="&#xe4;" horiz-adv-x="724" 
d="M753 49q0 -12 -14 -30t-34 -30q-5 -1 -9.5 -1h-6.5q-16 0 -25.5 1t-16 3.5t-11 7.5t-9.5 13q-8 13 -17.5 25.5t-29.5 35.5q-9 9 -13.5 14t-9.5 10t-12 12.5t-20 22.5q-1 0 -2 2q-1 1 -2 2.5t-3 3.5q-11 1 -19 1h-25q-29 0 -52.5 -0.5t-36.5 -0.5h-24l-24 -1l-24 -1
q-26 -1 -44 -1h-21q-11 -1 -18 -1.5t-9 -0.5q-14 0 -20 -3.5t-13 -15.5l-12 -22q-11 -19 -16 -28.5t-10 -17.5q-2 -5 -3 -7l-1.5 -3t-1 -2.5t-2.5 -4.5q-3 -5 -3.5 -7.5t-2.5 -5.5q-6 -15 -11 -20t-15 -5q-3 0 -8 0.5t-10 1.5q-2 1 -9 2.5t-18 3.5q-36 7 -45 10.5t-9 13.5
q0 5 2.5 8.5t11.5 15.5l21 27q13 18 21.5 28.5t15 19.5t12.5 19t16 26q11 17 20.5 33t20 34t23 39.5t28.5 50.5q15 27 24 43t13 26t5 16t1 14v5l-82 86q-11 12 -20.5 21.5t-20.5 17.5q-6 5 -8 8.5t-2 8.5q0 6 5 11.5t19 15.5q24 17 39 17q13 0 31 -3.5t29 -8.5q6 -2 16 -13
t36 -44q28 -35 51 -63.5t45 -54t43.5 -50t47.5 -52.5q53 -59 93 -101t74 -74q19 -18 32 -30.5t23.5 -21.5t19.5 -16t19 -14q11 -8 14 -12t3 -10zM444 222q-9 11 -16 19t-19 21t-33 34t-57 59q-7 -12 -7 -13l-9 -14l-8 -15l-9 -14q-13 -20 -24.5 -42.5t-19.5 -37.5
q26 -2 53 -2.5t38 -0.5q26 0 55.5 1.5t55.5 4.5zM522 719q0 -8 -5.5 -19.5t-14 -22t-18 -18t-17.5 -7.5q-12 0 -25.5 7.5t-25 18.5t-18.5 25t-7 26q0 6 9 15.5t20.5 18t23.5 14.5t18 6q7 0 17.5 -7.5t20 -17.5t16 -21t6.5 -18zM336 712q0 -9 -11 -19.5t-25.5 -19t-29 -14.5
t-22.5 -6q-6 0 -14.5 7t-16.5 16.5t-13.5 19.5t-5.5 16q0 7 8 19t19 24t22 21t18 9q8 0 20 -8.5t23.5 -20t19.5 -24t8 -20.5z" />
    <glyph glyph-name="aring" unicode="&#xe5;" horiz-adv-x="724" 
d="M753 49q0 -12 -14 -30t-34 -30q-5 -1 -9.5 -1h-6.5q-16 0 -25.5 1t-16 3.5t-11 7.5t-9.5 13q-8 13 -17.5 25.5t-29.5 35.5q-9 9 -13.5 14t-9.5 10t-12 12.5t-20 22.5q-1 0 -2 2q-1 1 -2 2.5t-3 3.5q-11 1 -19 1h-25q-29 0 -52.5 -0.5t-36.5 -0.5h-24l-24 -1l-24 -1
q-26 -1 -44 -1h-21q-11 -1 -18 -1.5t-9 -0.5q-14 0 -20 -3.5t-13 -15.5l-12 -22q-11 -19 -16 -28.5t-10 -17.5q-2 -5 -3 -7l-1.5 -3t-1 -2.5t-2.5 -4.5q-3 -5 -3.5 -7.5t-2.5 -5.5q-6 -15 -11 -20t-15 -5q-3 0 -8 0.5t-10 1.5q-2 1 -9 2.5t-18 3.5q-36 7 -45 10.5t-9 13.5
q0 5 2.5 8.5t11.5 15.5l21 27q13 18 21.5 28.5t15 19.5t12.5 19t16 26q11 17 20.5 33t20 34t23 39.5t28.5 50.5q15 27 24 43t13 26t5 16t1 14v5l-82 86q-11 12 -20.5 21.5t-20.5 17.5q-6 5 -8 8.5t-2 8.5q0 6 5 11.5t19 15.5q24 17 39 17q13 0 31 -3.5t29 -8.5q6 -2 16 -13
t36 -44q28 -35 51 -63.5t45 -54t43.5 -50t47.5 -52.5q53 -59 93 -101t74 -74q19 -18 32 -30.5t23.5 -21.5t19.5 -16t19 -14q11 -8 14 -12t3 -10zM444 222q-9 11 -16 19t-19 21t-33 34t-57 59q-7 -12 -7 -13l-9 -14l-8 -15l-9 -14q-13 -20 -24.5 -42.5t-19.5 -37.5
q26 -2 53 -2.5t38 -0.5q26 0 55.5 1.5t55.5 4.5zM365 740q0 -58 -30.5 -80t-84.5 -22q-28 0 -51.5 2.5t-41 12t-27.5 29t-10 52.5q0 17 14.5 31.5t34.5 25t42 16.5t36 6q15 0 35.5 -4t39 -13t31 -23t12.5 -33zM295 733q0 15 -7.5 19.5t-21.5 4.5h-16q-15 0 -24 -4.5
t-16 -15.5q-6 -10 -7.5 -17t-1.5 -10q0 -5 6 -8t14 -4.5t15.5 -2t11.5 -0.5q17 0 32 9.5t15 28.5z" />
    <glyph glyph-name="ae" unicode="&#xe6;" horiz-adv-x="765" 
d="M712 53q0 -5 -5 -13.5t-12 -18t-14 -18t-10 -12.5q-16 -2 -31 -3t-31 -1q-41 0 -79 5.5t-68 22t-48.5 46t-19.5 78.5l-70 -6t-70 -8q-30 -4 -47.5 -8t-28.5 -12t-20 -23t-24 -42q-4 -8 -10 -18.5t-13.5 -21t-16.5 -17.5t-19 -7q-7 0 -19 7t-23.5 16.5t-20 20t-8.5 17.5
q0 14 10.5 27.5t18.5 23.5q51 65 98 130t92 134q27 42 53 85t53 86q7 11 10 21.5t7 22.5q6 18 17 23t28 10q11 4 29.5 10t29.5 6q17 0 22 -8t7 -23l195 5q9 0 16 -5t7 -15q0 -8 -4.5 -19.5t-8.5 -18.5q-6 -13 -13.5 -19.5t-16.5 -9.5t-19.5 -3.5t-23.5 -0.5l-127 -4l-4 -149
q40 4 79.5 6.5t80.5 2.5q6 0 13 -0.5t14 -2.5t11.5 -6.5t4.5 -12.5q0 -9 -2 -19t-5 -19q-3 -10 -10.5 -15.5t-17 -8t-19.5 -3t-19 -0.5q-32 0 -63 -5t-62 -7q1 -19 1.5 -42t4 -45.5t10.5 -43.5t21 -35q14 -15 27.5 -17.5t33.5 -2.5q26 0 51 0.5t51 0.5q8 0 17.5 -3.5
t9.5 -14.5zM387 449q-25 -40 -51.5 -79t-52.5 -78q-11 -17 -24.5 -34t-21.5 -36l-5 -9q1 0 3 -1t3 -1q38 0 75 4.5t74 10.5v223z" />
    <glyph glyph-name="ccedilla" unicode="&#xe7;" horiz-adv-x="582" 
d="M542 106q0 -7 -6.5 -16.5t-15.5 -19.5t-18 -19t-14 -13q-23 -20 -56.5 -29t-62.5 -13q-2 -4 -4.5 -8t-2.5 -9q0 -8 13 -12t29 -9.5t29 -14t13 -25.5q0 -14 -14.5 -36t-34.5 -42t-41.5 -34.5t-35.5 -14.5q-8 0 -18.5 6.5t-10.5 16.5q0 7 9 15.5t20 18t20 21t9 26.5
q0 13 -8 19t-18 10.5t-18 10.5t-8 19q0 9 4.5 19.5t8.5 18.5q-23 0 -41.5 3t-35 9.5t-32.5 16t-34 23.5q-29 22 -47 44t-28 46.5t-13.5 53t-3.5 63.5q0 52 8 97.5t27 83.5t51.5 69t82.5 54q43 20 85 30.5t90 10.5q23 0 39.5 -4.5t34.5 -17.5q8 -5 18.5 -14t10.5 -19
q0 -8 -8.5 -19t-20.5 -21.5t-24 -18t-19 -7.5q-11 0 -19.5 6t-18 12.5t-21.5 12.5t-28 6q-33 0 -58.5 -12.5t-44.5 -33.5t-32.5 -47.5t-22.5 -54.5q-8 -26 -14.5 -52.5t-6.5 -53.5q0 -30 9.5 -64t28 -62.5t45.5 -47t62 -18.5q32 0 63 12.5t55.5 27t41 27t19.5 12.5
q4 0 10 -4.5t11 -11t9 -13t4 -10.5z" />
    <glyph glyph-name="egrave" unicode="&#xe8;" horiz-adv-x="506" 
d="M435 43q0 -5 -1.5 -8.5t-3.5 -7.5l-9 -25q-5 -14 -11 -17t-20 -6q-19 -4 -38 -5.5t-38 -1.5q-66 0 -111 16.5t-73 49t-40 80.5t-12 111q0 47 3 97.5t14.5 99t34 91t62.5 74.5q26 20 62.5 23.5t67.5 3.5q18 0 34 -1.5t28.5 -7.5t19.5 -18.5t7 -34.5q0 -11 -8.5 -14
t-17.5 -3q-8 0 -15.5 1t-15.5 1q-20 0 -43 -1t-41 -7q-21 -7 -36.5 -30.5t-26 -53t-15.5 -60t-5 -49.5q35 4 68.5 5t68.5 1h16.5t25.5 -1.5t23 -5.5t10 -11q0 -8 -6.5 -15t-11.5 -13q-14 -17 -22 -24.5t-31 -10.5q-37 -5 -74 -6t-74 -1q0 -26 3.5 -51t12.5 -48t24 -42.5
t38 -34.5q35 -22 75 -23t78 -1q8 0 16 -2.5t8 -12.5zM416 648q0 -9 -13.5 -13t-20.5 -4t-33.5 13t-56.5 30t-56.5 32.5t-34.5 21.5q-19 14 -19 28q0 6 9 13.5t21 14t24.5 11t20.5 4.5q5 0 18.5 -10t31 -25.5t37 -34t35.5 -35.5t26.5 -29.5t10.5 -16.5z" />
    <glyph glyph-name="eacute" unicode="&#xe9;" horiz-adv-x="506" 
d="M435 43q0 -5 -1.5 -8.5t-3.5 -7.5l-9 -25q-5 -14 -11 -17t-20 -6q-19 -4 -38 -5.5t-38 -1.5q-66 0 -111 16.5t-73 49t-40 80.5t-12 111q0 47 3 97.5t14.5 99t34 91t62.5 74.5q26 20 62.5 23.5t67.5 3.5q18 0 34 -1.5t28.5 -7.5t19.5 -18.5t7 -34.5q0 -11 -8.5 -14
t-17.5 -3q-8 0 -15.5 1t-15.5 1q-20 0 -43 -1t-41 -7q-21 -7 -36.5 -30.5t-26 -53t-15.5 -60t-5 -49.5q35 4 68.5 5t68.5 1h16.5t25.5 -1.5t23 -5.5t10 -11q0 -8 -6.5 -15t-11.5 -13q-14 -17 -22 -24.5t-31 -10.5q-37 -5 -74 -6t-74 -1q0 -26 3.5 -51t12.5 -48t24 -42.5
t38 -34.5q35 -22 75 -23t78 -1q8 0 16 -2.5t8 -12.5zM451 753q0 -9 -19 -24t-45.5 -30.5t-55 -30.5t-47.5 -24q-8 -2 -16 -7.5t-17 -5.5q-4 0 -9.5 1t-11 3t-9.5 5.5t-4 8.5q0 3 10.5 15.5t26.5 29t35 35t36.5 34t31 26t18.5 10.5q9 0 22 -4.5t25 -11.5t20.5 -15t8.5 -15z
" />
    <glyph glyph-name="ecircumflex" unicode="&#xea;" horiz-adv-x="506" 
d="M435 43q0 -5 -1.5 -8.5t-3.5 -7.5l-9 -25q-5 -14 -11 -17t-20 -6q-19 -4 -38 -5.5t-38 -1.5q-66 0 -111 16.5t-73 49t-40 80.5t-12 111q0 47 3 97.5t14.5 99t34 91t62.5 74.5q26 20 62.5 23.5t67.5 3.5q18 0 34 -1.5t28.5 -7.5t19.5 -18.5t7 -34.5q0 -11 -8.5 -14
t-17.5 -3q-8 0 -15.5 1t-15.5 1q-20 0 -43 -1t-41 -7q-21 -7 -36.5 -30.5t-26 -53t-15.5 -60t-5 -49.5q35 4 68.5 5t68.5 1h16.5t25.5 -1.5t23 -5.5t10 -11q0 -8 -6.5 -15t-11.5 -13q-14 -17 -22 -24.5t-31 -10.5q-37 -5 -74 -6t-74 -1q0 -26 3.5 -51t12.5 -48t24 -42.5
t38 -34.5q35 -22 75 -23t78 -1q8 0 16 -2.5t8 -12.5zM493 668q0 -3 -4 -8t-9 -9.5t-10.5 -7.5t-8.5 -3t-20 11t-37 25t-37.5 27t-23.5 17q-10 -6 -32 -20.5t-46.5 -30t-46 -27t-29.5 -11.5q-9 0 -9 11q0 29 9.5 48t31.5 37q7 6 25.5 19.5t39 27.5t39 24.5t25.5 10.5
q6 0 18.5 -9t28.5 -23t33 -30.5t31 -32t23 -28.5t9 -18z" />
    <glyph glyph-name="edieresis" unicode="&#xeb;" horiz-adv-x="506" 
d="M435 43q0 -5 -1.5 -8.5t-3.5 -7.5l-9 -25q-5 -14 -11 -17t-20 -6q-19 -4 -38 -5.5t-38 -1.5q-66 0 -111 16.5t-73 49t-40 80.5t-12 111q0 47 3 97.5t14.5 99t34 91t62.5 74.5q26 20 62.5 23.5t67.5 3.5q18 0 34 -1.5t28.5 -7.5t19.5 -18.5t7 -34.5q0 -11 -8.5 -14
t-17.5 -3q-8 0 -15.5 1t-15.5 1q-20 0 -43 -1t-41 -7q-21 -7 -36.5 -30.5t-26 -53t-15.5 -60t-5 -49.5q35 4 68.5 5t68.5 1h16.5t25.5 -1.5t23 -5.5t10 -11q0 -8 -6.5 -15t-11.5 -13q-14 -17 -22 -24.5t-31 -10.5q-37 -5 -74 -6t-74 -1q0 -26 3.5 -51t12.5 -48t24 -42.5
t38 -34.5q35 -22 75 -23t78 -1q8 0 16 -2.5t8 -12.5zM478 719q0 -8 -5.5 -19.5t-14 -22t-18 -18t-17.5 -7.5q-12 0 -25.5 7.5t-25 18.5t-18.5 25t-7 26q0 6 9 15.5t20.5 18t23.5 14.5t18 6q7 0 17.5 -7.5t20 -17.5t16 -21t6.5 -18zM292 712q0 -9 -11 -19.5t-25.5 -19
t-29 -14.5t-22.5 -6q-6 0 -14.5 7t-16.5 16.5t-13.5 19.5t-5.5 16q0 7 8 19t19 24t22 21t18 9q8 0 20 -8.5t23.5 -20t19.5 -24t8 -20.5z" />
    <glyph glyph-name="igrave" unicode="&#xec;" horiz-adv-x="364" 
d="M254 567q0 -24 -5 -47.5t-7 -47.5q-4 -43 -6 -86t-4 -87q-2 -70 -1 -139.5t1 -139.5q0 -16 -9 -20.5t-22 -7.5q-12 -3 -25 -6t-26 -3q-8 0 -9.5 4.5t-1.5 10.5v97t-2 97q-2 53 -5.5 105.5t-8.5 105.5q-2 21 -4.5 39.5t-13.5 37.5q-6 10 -10.5 24.5t-4.5 25.5
q0 6 12.5 18.5t29 25t31.5 22t21 9.5q5 0 16.5 -3.5t23.5 -9.5t21 -12.5t9 -12.5zM315 648q0 -9 -13.5 -13t-20.5 -4t-33.5 13t-56.5 30t-56.5 32.5t-34.5 21.5q-19 14 -19 28q0 6 9 13.5t21 14t24.5 11t20.5 4.5q5 0 18.5 -10t31 -25.5t37 -34t35.5 -35.5t26.5 -29.5
t10.5 -16.5z" />
    <glyph glyph-name="iacute" unicode="&#xed;" horiz-adv-x="364" 
d="M254 567q0 -24 -5 -47.5t-7 -47.5q-4 -43 -6 -86t-4 -87q-2 -70 -1 -139.5t1 -139.5q0 -16 -9 -20.5t-22 -7.5q-12 -3 -25 -6t-26 -3q-8 0 -9.5 4.5t-1.5 10.5v97t-2 97q-2 53 -5.5 105.5t-8.5 105.5q-2 21 -4.5 39.5t-13.5 37.5q-6 10 -10.5 24.5t-4.5 25.5
q0 6 12.5 18.5t29 25t31.5 22t21 9.5q5 0 16.5 -3.5t23.5 -9.5t21 -12.5t9 -12.5zM299 753q0 -9 -19 -24t-45.5 -30.5t-55 -30.5t-47.5 -24q-8 -2 -16 -7.5t-17 -5.5q-4 0 -9.5 1t-11 3t-9.5 5.5t-4 8.5q0 3 10.5 15.5t26.5 29t35 35t36.5 34t31 26t18.5 10.5q9 0 22 -4.5
t25 -11.5t20.5 -15t8.5 -15z" />
    <glyph glyph-name="icircumflex" unicode="&#xee;" horiz-adv-x="364" 
d="M254 567q0 -24 -5 -47.5t-7 -47.5q-4 -43 -6 -86t-4 -87q-2 -70 -1 -139.5t1 -139.5q0 -16 -9 -20.5t-22 -7.5q-12 -3 -25 -6t-26 -3q-8 0 -9.5 4.5t-1.5 10.5v97t-2 97q-2 53 -5.5 105.5t-8.5 105.5q-2 21 -4.5 39.5t-13.5 37.5q-6 10 -10.5 24.5t-4.5 25.5
q0 6 12.5 18.5t29 25t31.5 22t21 9.5q5 0 16.5 -3.5t23.5 -9.5t21 -12.5t9 -12.5zM338 668q0 -3 -4 -8t-9 -9.5t-10.5 -7.5t-8.5 -3t-20 11t-37 25t-37.5 27t-23.5 17q-10 -6 -32 -20.5t-46.5 -30t-46 -27t-29.5 -11.5q-9 0 -9 11q0 29 9.5 48t31.5 37q7 6 25.5 19.5
t39 27.5t39 24.5t25.5 10.5q6 0 18.5 -9t28.5 -23t33 -30.5t31 -32t23 -28.5t9 -18z" />
    <glyph glyph-name="idieresis" unicode="&#xef;" horiz-adv-x="364" 
d="M254 567q0 -24 -5 -47.5t-7 -47.5q-4 -43 -6 -86t-4 -87q-2 -70 -1 -139.5t1 -139.5q0 -16 -9 -20.5t-22 -7.5q-12 -3 -25 -6t-26 -3q-8 0 -9.5 4.5t-1.5 10.5v97t-2 97q-2 53 -5.5 105.5t-8.5 105.5q-2 21 -4.5 39.5t-13.5 37.5q-6 10 -10.5 24.5t-4.5 25.5
q0 6 12.5 18.5t29 25t31.5 22t21 9.5q5 0 16.5 -3.5t23.5 -9.5t21 -12.5t9 -12.5zM344 719q0 -8 -5.5 -19.5t-14 -22t-18 -18t-17.5 -7.5q-12 0 -25.5 7.5t-25 18.5t-18.5 25t-7 26q0 6 9 15.5t20.5 18t23.5 14.5t18 6q7 0 17.5 -7.5t20 -17.5t16 -21t6.5 -18zM158 712
q0 -9 -11 -19.5t-25.5 -19t-29 -14.5t-22.5 -6q-6 0 -14.5 7t-16.5 16.5t-13.5 19.5t-5.5 16q0 7 8 19t19 24t22 21t18 9q8 0 20 -8.5t23.5 -20t19.5 -24t8 -20.5z" />
    <glyph glyph-name="eth" unicode="&#xf0;" horiz-adv-x="605" 
d="M37 270q0 25 11 41t27 21q5 2 18.5 2.5t30.5 2.5q-1 20 -1.5 38.5t-2.5 38.5t-5.5 39t-5.5 39q-13 6 -28.5 16.5t-15.5 25.5q0 11 7 15.5t16 8.5q17 7 44 15.5t56.5 15.5t57.5 11.5t46 4.5q24 0 51.5 -7.5t54.5 -20t51 -28.5t41 -33q30 -32 43.5 -74.5t13.5 -85.5
q0 -45 -2.5 -85.5t-13 -77t-32 -69t-60.5 -60.5q-21 -16 -49 -30.5t-58 -26t-60 -18t-57 -6.5q-26 0 -51 4.5t-51 9.5q-9 2 -19.5 5t-10.5 16q0 3 4.5 10.5t10 17.5t10.5 19.5t7 17.5q3 15 5 31t2.5 37t1 48t0.5 64q-28 -4 -42.5 -8.5t-26.5 -4.5q-18 0 -18 20zM436 327
q0 42 -13.5 84t-43.5 73q-21 22 -51 38t-61 16q-12 0 -24 -4.5t-22 -12.5v-7v-85t1 -84q42 5 64.5 10.5t37.5 5.5q11 0 16.5 -11.5t5.5 -22.5q0 -7 -2 -16t-6.5 -17.5t-11.5 -14t-16 -5.5q-11 0 -32 -0.5t-56 -2.5v-44v-61.5t0.5 -44.5t1 -32.5t1.5 -23.5q3 -1 6.5 -1h6.5
q73 0 119.5 27.5t63.5 102.5q8 32 11.5 66t3.5 67z" />
    <glyph glyph-name="ntilde" unicode="&#xf1;" horiz-adv-x="725" 
d="M659 547v-4.5t-2 -17.5q-1 -3 -1 -4t-0.5 -3t-1.5 -7t-2 -18l-3 -25l-4 -25q-9 -58 -14 -141t-7 -176q-1 -44 -9 -65.5t-28 -36.5q-10 -7 -25 -13.5t-22 -6.5q-8 0 -11.5 4t-5.5 15q-11 43 -36 79q-8 12 -22.5 29.5t-32.5 39t-39 45t-43 47.5q-33 35 -65 68t-66 67
q-2 -15 -2.5 -25t-1.5 -34q-1 -13 -1 -31t-1 -47q-2 -45 -2.5 -70t-0.5 -36v-24t0.5 -17.5t1 -20t1.5 -31.5q1 -8 1 -13.5v-8.5q0 -17 -7 -24.5t-28 -12.5q-16 -5 -33 -7.5t-31 -2.5q-21 0 -28.5 3t-7.5 11q0 5 1.5 7.5t6.5 10.5q11 15 25 55q4 13 7.5 26t5.5 31.5t4 44.5
t4 65q3 54 4 108t2 117l-29 24q-5 5 -10 7.5t-24 10.5q-15 6 -15 19q0 5 2 9t10 10q14 12 20 16.5t8 6.5l3 3t6 5q15 12 23 18.5t12.5 9t7 3t5.5 0.5q6 0 10.5 -2t10.5 -8q1 -1 0.5 -0.5t1 -1t5 -5.5t12.5 -14q16 -17 21 -22.5t11 -11.5t18 -19.5t41 -47.5l29 -34
q14 -17 34.5 -39t37.5 -42q15 -17 24 -27t12 -14q30 -35 53 -60.5t39 -41.5q5 -6 12 -12.5t18 -15.5q5 43 7 83.5t2 91.5t-5 91t-13 60q-3 8 -4 11t-1 6q0 19 27 22q15 2 35 3t33 1q30 0 30 -18zM567 736q0 -6 -10.5 -21.5t-25 -32t-28 -29t-19.5 -12.5q-16 0 -36.5 7.5
t-41.5 16t-40 16t-32 7.5q-6 0 -16 -7t-21.5 -15t-21.5 -15t-16 -7q-5 0 -8 5t-4.5 11.5t-2 13t-0.5 9.5q0 14 10 29t24 27.5t30.5 20.5t30.5 8q18 0 37.5 -6.5t37.5 -15t33 -15t24 -6.5q4 0 14 8t21.5 18t22.5 18t17 8q4 0 8 -5t7 -12t4.5 -13.5t1.5 -10.5z" />
    <glyph glyph-name="ograve" unicode="&#xf2;" horiz-adv-x="630" 
d="M577 334q0 -61 -18 -119.5t-53 -104t-86 -73.5t-118 -28q-56 0 -99.5 21t-74.5 57t-47 83t-16 100q0 59 18.5 117t54 103.5t86 73.5t115.5 28q57 0 101 -20t74.5 -55t46.5 -82t16 -101zM474 297q0 35 -6.5 72t-22.5 67t-43.5 49.5t-70.5 19.5q-42 0 -72.5 -17.5
t-50.5 -45.5t-29.5 -64t-9.5 -73q0 -36 10 -71.5t30 -63.5t50 -45.5t71 -17.5q42 0 69.5 16.5t44 43.5t23.5 61t7 69zM486 648q0 -9 -13.5 -13t-20.5 -4t-33.5 13t-56.5 30t-56.5 32.5t-34.5 21.5q-19 14 -19 28q0 6 9 13.5t21 14t24.5 11t20.5 4.5q5 0 18.5 -10t31 -25.5
t37 -34t35.5 -35.5t26.5 -29.5t10.5 -16.5z" />
    <glyph glyph-name="oacute" unicode="&#xf3;" horiz-adv-x="630" 
d="M577 334q0 -61 -18 -119.5t-53 -104t-86 -73.5t-118 -28q-56 0 -99.5 21t-74.5 57t-47 83t-16 100q0 59 18.5 117t54 103.5t86 73.5t115.5 28q57 0 101 -20t74.5 -55t46.5 -82t16 -101zM474 297q0 35 -6.5 72t-22.5 67t-43.5 49.5t-70.5 19.5q-42 0 -72.5 -17.5
t-50.5 -45.5t-29.5 -64t-9.5 -73q0 -36 10 -71.5t30 -63.5t50 -45.5t71 -17.5q42 0 69.5 16.5t44 43.5t23.5 61t7 69zM501 753q0 -9 -19 -24t-45.5 -30.5t-55 -30.5t-47.5 -24q-8 -2 -16 -7.5t-17 -5.5q-4 0 -9.5 1t-11 3t-9.5 5.5t-4 8.5q0 3 10.5 15.5t26.5 29t35 35
t36.5 34t31 26t18.5 10.5q9 0 22 -4.5t25 -11.5t20.5 -15t8.5 -15z" />
    <glyph glyph-name="ocircumflex" unicode="&#xf4;" horiz-adv-x="630" 
d="M577 334q0 -61 -18 -119.5t-53 -104t-86 -73.5t-118 -28q-56 0 -99.5 21t-74.5 57t-47 83t-16 100q0 59 18.5 117t54 103.5t86 73.5t115.5 28q57 0 101 -20t74.5 -55t46.5 -82t16 -101zM474 297q0 35 -6.5 72t-22.5 67t-43.5 49.5t-70.5 19.5q-42 0 -72.5 -17.5
t-50.5 -45.5t-29.5 -64t-9.5 -73q0 -36 10 -71.5t30 -63.5t50 -45.5t71 -17.5q42 0 69.5 16.5t44 43.5t23.5 61t7 69zM523 668q0 -3 -4 -8t-9 -9.5t-10.5 -7.5t-8.5 -3t-20 11t-37 25t-37.5 27t-23.5 17q-10 -6 -32 -20.5t-46.5 -30t-46 -27t-29.5 -11.5q-9 0 -9 11
q0 29 9.5 48t31.5 37q7 6 25.5 19.5t39 27.5t39 24.5t25.5 10.5q6 0 18.5 -9t28.5 -23t33 -30.5t31 -32t23 -28.5t9 -18z" />
    <glyph glyph-name="otilde" unicode="&#xf5;" horiz-adv-x="630" 
d="M577 334q0 -61 -18 -119.5t-53 -104t-86 -73.5t-118 -28q-56 0 -99.5 21t-74.5 57t-47 83t-16 100q0 59 18.5 117t54 103.5t86 73.5t115.5 28q57 0 101 -20t74.5 -55t46.5 -82t16 -101zM474 297q0 35 -6.5 72t-22.5 67t-43.5 49.5t-70.5 19.5q-42 0 -72.5 -17.5
t-50.5 -45.5t-29.5 -64t-9.5 -73q0 -36 10 -71.5t30 -63.5t50 -45.5t71 -17.5q42 0 69.5 16.5t44 43.5t23.5 61t7 69zM507 736q0 -6 -10.5 -21.5t-25 -32t-28 -29t-19.5 -12.5q-16 0 -36.5 7.5t-41.5 16t-40 16t-32 7.5q-6 0 -16 -7t-21.5 -15t-21.5 -15t-16 -7q-5 0 -8 5
t-4.5 11.5t-2 13t-0.5 9.5q0 14 10 29t24 27.5t30.5 20.5t30.5 8q18 0 37.5 -6.5t37.5 -15t33 -15t24 -6.5q4 0 14 8t21.5 18t22.5 18t17 8q4 0 8 -5t7 -12t4.5 -13.5t1.5 -10.5z" />
    <glyph glyph-name="odieresis" unicode="&#xf6;" horiz-adv-x="630" 
d="M577 334q0 -61 -18 -119.5t-53 -104t-86 -73.5t-118 -28q-56 0 -99.5 21t-74.5 57t-47 83t-16 100q0 59 18.5 117t54 103.5t86 73.5t115.5 28q57 0 101 -20t74.5 -55t46.5 -82t16 -101zM474 297q0 35 -6.5 72t-22.5 67t-43.5 49.5t-70.5 19.5q-42 0 -72.5 -17.5
t-50.5 -45.5t-29.5 -64t-9.5 -73q0 -36 10 -71.5t30 -63.5t50 -45.5t71 -17.5q42 0 69.5 16.5t44 43.5t23.5 61t7 69zM527 719q0 -8 -5.5 -19.5t-14 -22t-18 -18t-17.5 -7.5q-12 0 -25.5 7.5t-25 18.5t-18.5 25t-7 26q0 6 9 15.5t20.5 18t23.5 14.5t18 6q7 0 17.5 -7.5
t20 -17.5t16 -21t6.5 -18zM341 712q0 -9 -11 -19.5t-25.5 -19t-29 -14.5t-22.5 -6q-6 0 -14.5 7t-16.5 16.5t-13.5 19.5t-5.5 16q0 7 8 19t19 24t22 21t18 9q8 0 20 -8.5t23.5 -20t19.5 -24t8 -20.5z" />
    <glyph glyph-name="divide" unicode="&#xf7;" horiz-adv-x="592" 
d="M361 437q0 -27 -19 -46t-46 -19t-46 19t-19 46t19 46t46 19t46 -19t19 -46zM40 211v84h512v-84h-512zM361 70q0 -27 -19 -46t-46 -19t-46 19t-19 46t19 46t46 19t46 -19t19 -46z" />
    <glyph glyph-name="oslash" unicode="&#xf8;" horiz-adv-x="630" 
d="M607 334q0 -61 -18 -119.5t-53 -104t-86 -73.5t-118 -28q-48 0 -93 18q-5 -10 -9 -22.5t-10 -23.5t-14.5 -18.5t-22.5 -7.5q-5 0 -12.5 1.5t-15 4.5t-13 7t-5.5 10t8.5 14.5t12.5 13.5q10 11 17 24t13 27q-48 39 -70.5 96t-22.5 117t18.5 117.5t53.5 103t86 73.5t116 28
q26 0 51 -4.5t48 -15.5q8 7 16 23t17 32.5t19 29t21 12.5t19.5 -12t8.5 -22t-5.5 -23t-13 -26t-16 -25t-14.5 -21q48 -40 67.5 -93t19.5 -113zM504 297q0 37 -7 79t-29 73q-9 -12 -20 -32.5t-22.5 -43t-22.5 -44.5t-19 -37q-23 -43 -47.5 -84t-46.5 -85q31 -16 67 -16
q43 0 71 16t45 42.5t24 60.5t7 71zM426 488q-14 10 -31 13.5t-34 3.5q-42 0 -72.5 -17.5t-50.5 -45.5t-29.5 -64t-9.5 -73q0 -38 11.5 -76t35.5 -68q13 17 22.5 36t20.5 38q35 63 70 125.5t67 127.5z" />
    <glyph glyph-name="ugrave" unicode="&#xf9;" horiz-adv-x="717" 
d="M665 533q0 -7 -1 -16t-3 -22.5t-5 -32.5t-8 -46q-7 -37 -12 -63.5t-9.5 -46.5t-8.5 -36t-9 -32q-18 -60 -44.5 -102t-65.5 -74q-35 -29 -74.5 -43.5t-81.5 -14.5q-36 0 -67 12.5t-71 42.5q-17 13 -30 26.5t-23 30t-17.5 37t-14.5 47.5q-8 35 -13.5 69.5t-9.5 76.5
q0 5 -0.5 5.5t-1 5t-1.5 18.5t-3 46q-1 8 -2 18.5t-3 21.5l-1 11l-2 11l-2 10q-2 10 -2.5 20t-0.5 18q0 52 41 52q14 0 30.5 -5t30.5 -13q17 -10 28.5 -21.5t11.5 -19.5q0 -4 -3 -11q-12 -24 -16.5 -52t-4.5 -74q0 -7 1 -29.5t3 -55.5q1 -20 2.5 -34.5t3.5 -26t5 -21
t8 -19.5q22 -46 64.5 -74.5t89.5 -28.5q61 0 101 34.5t56 100.5q6 25 9.5 61t3.5 75v30t-2 23l-3 20l-2 20l-2 19q-2 20 -3.5 34t-1.5 22q0 11 4.5 19.5t12.5 11.5q6 3 17.5 4t34.5 1q20 0 29.5 -3t23.5 -14q8 -7 11 -11.5t3 -11.5zM452 648q0 -9 -13.5 -13t-20.5 -4
t-33.5 13t-56.5 30t-56.5 32.5t-34.5 21.5q-19 14 -19 28q0 6 9 13.5t21 14t24.5 11t20.5 4.5q5 0 18.5 -10t31 -25.5t37 -34t35.5 -35.5t26.5 -29.5t10.5 -16.5z" />
    <glyph glyph-name="uacute" unicode="&#xfa;" horiz-adv-x="717" 
d="M665 533q0 -7 -1 -16t-3 -22.5t-5 -32.5t-8 -46q-7 -37 -12 -63.5t-9.5 -46.5t-8.5 -36t-9 -32q-18 -60 -44.5 -102t-65.5 -74q-35 -29 -74.5 -43.5t-81.5 -14.5q-36 0 -67 12.5t-71 42.5q-17 13 -30 26.5t-23 30t-17.5 37t-14.5 47.5q-8 35 -13.5 69.5t-9.5 76.5
q0 5 -0.5 5.5t-1 5t-1.5 18.5t-3 46q-1 8 -2 18.5t-3 21.5l-1 11l-2 11l-2 10q-2 10 -2.5 20t-0.5 18q0 52 41 52q14 0 30.5 -5t30.5 -13q17 -10 28.5 -21.5t11.5 -19.5q0 -4 -3 -11q-12 -24 -16.5 -52t-4.5 -74q0 -7 1 -29.5t3 -55.5q1 -20 2.5 -34.5t3.5 -26t5 -21
t8 -19.5q22 -46 64.5 -74.5t89.5 -28.5q61 0 101 34.5t56 100.5q6 25 9.5 61t3.5 75v30t-2 23l-3 20l-2 20l-2 19q-2 20 -3.5 34t-1.5 22q0 11 4.5 19.5t12.5 11.5q6 3 17.5 4t34.5 1q20 0 29.5 -3t23.5 -14q8 -7 11 -11.5t3 -11.5zM497 753q0 -9 -19 -24t-45.5 -30.5
t-55 -30.5t-47.5 -24q-8 -2 -16 -7.5t-17 -5.5q-4 0 -9.5 1t-11 3t-9.5 5.5t-4 8.5q0 3 10.5 15.5t26.5 29t35 35t36.5 34t31 26t18.5 10.5q9 0 22 -4.5t25 -11.5t20.5 -15t8.5 -15z" />
    <glyph glyph-name="ucircumflex" unicode="&#xfb;" horiz-adv-x="717" 
d="M665 533q0 -7 -1 -16t-3 -22.5t-5 -32.5t-8 -46q-7 -37 -12 -63.5t-9.5 -46.5t-8.5 -36t-9 -32q-18 -60 -44.5 -102t-65.5 -74q-35 -29 -74.5 -43.5t-81.5 -14.5q-36 0 -67 12.5t-71 42.5q-17 13 -30 26.5t-23 30t-17.5 37t-14.5 47.5q-8 35 -13.5 69.5t-9.5 76.5
q0 5 -0.5 5.5t-1 5t-1.5 18.5t-3 46q-1 8 -2 18.5t-3 21.5l-1 11l-2 11l-2 10q-2 10 -2.5 20t-0.5 18q0 52 41 52q14 0 30.5 -5t30.5 -13q17 -10 28.5 -21.5t11.5 -19.5q0 -4 -3 -11q-12 -24 -16.5 -52t-4.5 -74q0 -7 1 -29.5t3 -55.5q1 -20 2.5 -34.5t3.5 -26t5 -21
t8 -19.5q22 -46 64.5 -74.5t89.5 -28.5q61 0 101 34.5t56 100.5q6 25 9.5 61t3.5 75v30t-2 23l-3 20l-2 20l-2 19q-2 20 -3.5 34t-1.5 22q0 11 4.5 19.5t12.5 11.5q6 3 17.5 4t34.5 1q20 0 29.5 -3t23.5 -14q8 -7 11 -11.5t3 -11.5zM526 668q0 -3 -4 -8t-9 -9.5t-10.5 -7.5
t-8.5 -3t-20 11t-37 25t-37.5 27t-23.5 17q-10 -6 -32 -20.5t-46.5 -30t-46 -27t-29.5 -11.5q-9 0 -9 11q0 29 9.5 48t31.5 37q7 6 25.5 19.5t39 27.5t39 24.5t25.5 10.5q6 0 18.5 -9t28.5 -23t33 -30.5t31 -32t23 -28.5t9 -18z" />
    <glyph glyph-name="udieresis" unicode="&#xfc;" horiz-adv-x="717" 
d="M665 533q0 -7 -1 -16t-3 -22.5t-5 -32.5t-8 -46q-7 -37 -12 -63.5t-9.5 -46.5t-8.5 -36t-9 -32q-18 -60 -44.5 -102t-65.5 -74q-35 -29 -74.5 -43.5t-81.5 -14.5q-36 0 -67 12.5t-71 42.5q-17 13 -30 26.5t-23 30t-17.5 37t-14.5 47.5q-8 35 -13.5 69.5t-9.5 76.5
q0 5 -0.5 5.5t-1 5t-1.5 18.5t-3 46q-1 8 -2 18.5t-3 21.5l-1 11l-2 11l-2 10q-2 10 -2.5 20t-0.5 18q0 52 41 52q14 0 30.5 -5t30.5 -13q17 -10 28.5 -21.5t11.5 -19.5q0 -4 -3 -11q-12 -24 -16.5 -52t-4.5 -74q0 -7 1 -29.5t3 -55.5q1 -20 2.5 -34.5t3.5 -26t5 -21
t8 -19.5q22 -46 64.5 -74.5t89.5 -28.5q61 0 101 34.5t56 100.5q6 25 9.5 61t3.5 75v30t-2 23l-3 20l-2 20l-2 19q-2 20 -3.5 34t-1.5 22q0 11 4.5 19.5t12.5 11.5q6 3 17.5 4t34.5 1q20 0 29.5 -3t23.5 -14q8 -7 11 -11.5t3 -11.5zM535 719q0 -8 -5.5 -19.5t-14 -22
t-18 -18t-17.5 -7.5q-12 0 -25.5 7.5t-25 18.5t-18.5 25t-7 26q0 6 9 15.5t20.5 18t23.5 14.5t18 6q7 0 17.5 -7.5t20 -17.5t16 -21t6.5 -18zM349 712q0 -9 -11 -19.5t-25.5 -19t-29 -14.5t-22.5 -6q-6 0 -14.5 7t-16.5 16.5t-13.5 19.5t-5.5 16q0 7 8 19t19 24t22 21t18 9
q8 0 20 -8.5t23.5 -20t19.5 -24t8 -20.5z" />
    <glyph glyph-name="yacute" unicode="&#xfd;" horiz-adv-x="570" 
d="M572 531q0 -5 -2 -9.5t-8 -12.5q-11 -14 -30 -44.5t-42 -70.5q-50 -85 -83 -147.5t-55 -110.5q-7 -16 -12 -27t-9 -22t-8.5 -24t-10.5 -32l-7 -22l-11 -32l-6 -18q-16 -48 -45 -48q-24 0 -73 34q-17 11 -21.5 16.5t-4.5 13.5q0 22 34 29q13 2 20.5 9.5t24.5 30.5
q6 9 11.5 22t10 28t7 30.5t2.5 27.5q0 7 -2 15t-7.5 19t-15.5 27.5t-26 41.5q-9 14 -21.5 32.5t-27 38.5l-29 40t-27.5 38l-50 62q-41 50 -41 67q0 5 2.5 9.5t12.5 14.5q20 23 44 39t36 16q14 0 26 -16q6 -9 8 -19l3 -10l3 -11l2 -10q2 -11 10 -27.5t19 -33.5
q6 -10 16 -24.5t27 -39.5q18 -26 34 -49t33 -50q7 -11 11.5 -18t8 -13.5t7.5 -14t10 -18.5q10 19 17 33.5t17 31.5l48 90q9 16 17 35t14.5 38t11 37t6.5 32q4 29 31 29q8 0 20 -4t36 -16q21 -11 27.5 -17.5t6.5 -15.5zM435 753q0 -9 -19 -24t-45.5 -30.5t-55 -30.5
t-47.5 -24q-8 -2 -16 -7.5t-17 -5.5q-4 0 -9.5 1t-11 3t-9.5 5.5t-4 8.5q0 3 10.5 15.5t26.5 29t35 35t36.5 34t31 26t18.5 10.5q9 0 22 -4.5t25 -11.5t20.5 -15t8.5 -15z" />
    <glyph glyph-name="thorn" unicode="&#xfe;" horiz-adv-x="497" 
d="M466 320q0 -36 -14 -66.5t-36 -56.5t-50.5 -46.5t-56.5 -36.5q-7 2 -21 6.5t-28.5 11.5t-25 15t-10.5 17q0 11 10.5 13.5t18.5 4.5q47 14 77 48.5t30 84.5q0 41 -26 63.5t-65 22.5q-23 0 -37 -8t-30 -23q-2 -75 -1.5 -149.5t-4.5 -149.5q-1 -11 -2 -23t-1 -23
q0 -12 -1 -22t-12 -18q-11 -9 -30.5 -15t-34.5 -6q-5 0 -12 2.5t-7 9.5q0 10 2 19.5t3 19.5q2 25 3 49.5t1 49.5q0 75 -1 148.5t-1 148.5q0 15 -1 32.5t-3.5 36t-6.5 35.5t-11 30q-2 5 -4 8.5t-2 8.5q0 7 11 18.5t25 22t28.5 18t20.5 7.5q5 0 15 -4.5t19.5 -10.5t17 -13
t7.5 -12q0 -8 -2 -16.5t-4 -16.5q-4 -20 -5.5 -39.5t-1.5 -39.5q11 2 22.5 3t22.5 1q37 0 75.5 -8.5t69.5 -27.5t50.5 -49.5t19.5 -74.5z" />
    <glyph glyph-name="ydieresis" unicode="&#xff;" horiz-adv-x="570" 
d="M572 531q0 -5 -2 -9.5t-8 -12.5q-11 -14 -30 -44.5t-42 -70.5q-50 -85 -83 -147.5t-55 -110.5q-7 -16 -12 -27t-9 -22t-8.5 -24t-10.5 -32l-7 -22l-11 -32l-6 -18q-16 -48 -45 -48q-24 0 -73 34q-17 11 -21.5 16.5t-4.5 13.5q0 22 34 29q13 2 20.5 9.5t24.5 30.5
q6 9 11.5 22t10 28t7 30.5t2.5 27.5q0 7 -2 15t-7.5 19t-15.5 27.5t-26 41.5q-9 14 -21.5 32.5t-27 38.5l-29 40t-27.5 38l-50 62q-41 50 -41 67q0 5 2.5 9.5t12.5 14.5q20 23 44 39t36 16q14 0 26 -16q6 -9 8 -19l3 -10l3 -11l2 -10q2 -11 10 -27.5t19 -33.5
q6 -10 16 -24.5t27 -39.5q18 -26 34 -49t33 -50q7 -11 11.5 -18t8 -13.5t7.5 -14t10 -18.5q10 19 17 33.5t17 31.5l48 90q9 16 17 35t14.5 38t11 37t6.5 32q4 29 31 29q8 0 20 -4t36 -16q21 -11 27.5 -17.5t6.5 -15.5zM469 719q0 -8 -5.5 -19.5t-14 -22t-18 -18t-17.5 -7.5
q-12 0 -25.5 7.5t-25 18.5t-18.5 25t-7 26q0 6 9 15.5t20.5 18t23.5 14.5t18 6q7 0 17.5 -7.5t20 -17.5t16 -21t6.5 -18zM283 712q0 -9 -11 -19.5t-25.5 -19t-29 -14.5t-22.5 -6q-6 0 -14.5 7t-16.5 16.5t-13.5 19.5t-5.5 16q0 7 8 19t19 24t22 21t18 9q8 0 20 -8.5
t23.5 -20t19.5 -24t8 -20.5z" />
    <glyph glyph-name="dotlessi" unicode="&#x131;" horiz-adv-x="364" 
d="M254 567q0 -24 -5 -47.5t-7 -47.5q-4 -43 -6 -86t-4 -87q-2 -70 -1 -139.5t1 -139.5q0 -16 -9 -20.5t-22 -7.5q-12 -3 -25 -6t-26 -3q-8 0 -9.5 4.5t-1.5 10.5v97t-2 97q-2 53 -5.5 105.5t-8.5 105.5q-2 21 -4.5 39.5t-13.5 37.5q-6 10 -10.5 24.5t-4.5 25.5
q0 6 12.5 18.5t29 25t31.5 22t21 9.5q5 0 16.5 -3.5t23.5 -9.5t21 -12.5t9 -12.5z" />
    <glyph glyph-name="OE" unicode="&#x152;" horiz-adv-x="875" 
d="M835 56q0 -10 -8.5 -20.5t-14.5 -17.5q-9 -10 -15.5 -16t-13 -9t-15.5 -4t-22 -1q-42 0 -81 6.5t-71.5 23.5t-56.5 46t-37 74q-16 -63 -62 -100.5t-112 -37.5q-58 0 -102 28.5t-74 73t-45 98.5t-15 105q0 59 20 108t60 92q32 35 75 60t92 25q25 0 50 -7t46.5 -20t39 -32
t27.5 -42q10 35 32.5 56.5t51 33t61 15.5t64.5 4q49 0 99 -9q9 -2 17 -5t8 -14q0 -10 -5 -23.5t-13 -19.5q-7 -6 -24.5 -6.5t-40 -0.5t-48 -1t-50.5 -7.5t-46 -20t-35 -38.5q-22 -40 -22 -88q21 -1 42.5 -1h42.5q35 0 70.5 2.5t70.5 2.5q8 0 15 -3.5t7 -12.5q0 -8 -4 -18
t-7 -17q-8 -16 -13.5 -19.5t-22.5 -6.5q-49 -8 -98.5 -6.5t-98.5 -3.5q4 -50 16.5 -90t36.5 -67.5t61 -42t91 -14.5q12 0 23.5 2t23.5 2q8 0 19 -2.5t11 -13.5zM454 341q0 27 -5.5 56t-19 53.5t-35.5 40t-55 15.5q-41 0 -67.5 -24t-42 -59t-21.5 -75t-6 -72q0 -29 5 -63.5
t18 -64.5t36.5 -50.5t61.5 -20.5q27 0 47 14t34.5 37t24 51.5t15 58t8 56.5t2.5 47z" />
    <glyph glyph-name="oe" unicode="&#x153;" horiz-adv-x="875" 
d="M835 56q0 -10 -8.5 -20.5t-14.5 -17.5q-9 -10 -15.5 -16t-13 -9t-15.5 -4t-22 -1q-42 0 -81 6.5t-71.5 23.5t-56.5 46t-37 74q-16 -63 -62 -100.5t-112 -37.5q-58 0 -102 28.5t-74 73t-45 98.5t-15 105q0 59 20 108t60 92q32 35 75 60t92 25q25 0 50 -7t46.5 -20t39 -32
t27.5 -42q10 35 32.5 56.5t51 33t61 15.5t64.5 4q49 0 99 -9q9 -2 17 -5t8 -14q0 -10 -5 -23.5t-13 -19.5q-7 -6 -24.5 -6.5t-40 -0.5t-48 -1t-50.5 -7.5t-46 -20t-35 -38.5q-22 -40 -22 -88q21 -1 42.5 -1h42.5q35 0 70.5 2.5t70.5 2.5q8 0 15 -3.5t7 -12.5q0 -8 -4 -18
t-7 -17q-8 -16 -13.5 -19.5t-22.5 -6.5q-49 -8 -98.5 -6.5t-98.5 -3.5q4 -50 16.5 -90t36.5 -67.5t61 -42t91 -14.5q12 0 23.5 2t23.5 2q8 0 19 -2.5t11 -13.5zM454 341q0 27 -5.5 56t-19 53.5t-35.5 40t-55 15.5q-41 0 -67.5 -24t-42 -59t-21.5 -75t-6 -72q0 -29 5 -63.5
t18 -64.5t36.5 -50.5t61.5 -20.5q27 0 47 14t34.5 37t24 51.5t15 58t8 56.5t2.5 47z" />
    <glyph glyph-name="Scaron" unicode="&#x160;" horiz-adv-x="417" 
d="M373 608q0 -9 -4.5 -24.5t-9.5 -23.5q-3 -4 -16 -5t-31.5 -2t-39.5 -3t-38.5 -8.5t-29 -19.5t-11.5 -35q0 -13 9.5 -38t24 -56.5t31 -66.5t31 -68.5t24 -63t9.5 -48.5q0 -24 -7.5 -46.5t-16.5 -44.5q-9 -23 -19.5 -39t-24 -26.5t-32 -15t-43.5 -4.5q-18 0 -45 3.5
t-43 10.5q-12 5 -18 14.5t-8.5 21t-3 23.5t-0.5 23q0 7 4 12.5t12 5.5q13 0 25.5 -3.5t26 -8t27 -8t27.5 -3.5q20 0 35.5 11t15.5 34q0 8 -7.5 25.5t-19 40.5t-25.5 48.5t-27 49.5t-24.5 42.5t-16.5 27.5q-15 25 -24.5 47t-9.5 51q0 33 17.5 67t44.5 62.5t61 46.5t67 18
q6 0 23 -0.5t35 -2.5t31.5 -7t13.5 -14zM381 818q0 -19 -3 -38q-1 -7 -10.5 -17.5t-24.5 -22.5t-32 -24.5t-34 -22.5t-30.5 -16t-20.5 -6q-10 0 -30 14t-40.5 32.5t-36 37.5t-15.5 29q0 4 4.5 14t11.5 20t14 18t12 8q8 0 11 -6t8 -11q13 -16 22.5 -26t17.5 -18t16.5 -14.5
t19.5 -15.5q13 6 28.5 15.5t30 19.5t26.5 19t18 14l15 12t10 4q12 0 12 -19z" />
    <glyph glyph-name="scaron" unicode="&#x161;" horiz-adv-x="417" 
d="M373 608q0 -9 -4.5 -24.5t-9.5 -23.5q-3 -4 -16 -5t-31.5 -2t-39.5 -3t-38.5 -8.5t-29 -19.5t-11.5 -35q0 -13 9.5 -38t24 -56.5t31 -66.5t31 -68.5t24 -63t9.5 -48.5q0 -24 -7.5 -46.5t-16.5 -44.5q-9 -23 -19.5 -39t-24 -26.5t-32 -15t-43.5 -4.5q-18 0 -45 3.5
t-43 10.5q-12 5 -18 14.5t-8.5 21t-3 23.5t-0.5 23q0 7 4 12.5t12 5.5q13 0 25.5 -3.5t26 -8t27 -8t27.5 -3.5q20 0 35.5 11t15.5 34q0 8 -7.5 25.5t-19 40.5t-25.5 48.5t-27 49.5t-24.5 42.5t-16.5 27.5q-15 25 -24.5 47t-9.5 51q0 33 17.5 67t44.5 62.5t61 46.5t67 18
q6 0 23 -0.5t35 -2.5t31.5 -7t13.5 -14zM389 818q0 -19 -3 -38q-1 -7 -10.5 -17.5t-24.5 -22.5t-32 -24.5t-34 -22.5t-30.5 -16t-20.5 -6q-10 0 -30 14t-40.5 32.5t-36 37.5t-15.5 29q0 4 4.5 14t11.5 20t14 18t12 8q8 0 11 -6t8 -11q13 -16 22.5 -26t17.5 -18t16.5 -14.5
t19.5 -15.5q13 6 28.5 15.5t30 19.5t26.5 19t18 14l15 12t10 4q12 0 12 -19z" />
    <glyph glyph-name="Ydieresis" unicode="&#x178;" horiz-adv-x="807" 
d="M851 520q0 -8 -13.5 -33.5t-34.5 -60t-46.5 -73.5t-49 -75t-42.5 -64t-27 -40q-20 -30 -29.5 -52.5t-12.5 -44t-2.5 -46t0.5 -58.5q0 -13 -1.5 -22t-13.5 -17q-13 -8 -34 -11.5t-36 -3.5q-14 0 -24.5 3.5t-21.5 11.5q11 26 17 54.5t6 56.5q0 21 -8.5 39t-21.5 33.5
t-29 29.5t-30 27q-89 80 -181.5 153.5t-188.5 145.5q-6 4 -15 11t-18 15t-15.5 16t-6.5 16q0 11 12 25t28.5 26t33.5 20t28 8q10 0 14.5 -8t8.5 -15q21 -35 51 -62.5t61 -53.5l233 -202q25 -21 49.5 -42.5t43.5 -47.5q19 43 46.5 83.5t55.5 80.5t52 81.5t37 87.5q2 7 3 17
t3.5 19.5t7.5 16t16 6.5q7 0 23 -5t32 -12.5t28 -16.5t12 -17zM652 719q0 -8 -5.5 -19.5t-14 -22t-18 -18t-17.5 -7.5q-12 0 -25.5 7.5t-25 18.5t-18.5 25t-7 26q0 6 9 15.5t20.5 18t23.5 14.5t18 6q7 0 17.5 -7.5t20 -17.5t16 -21t6.5 -18zM466 712q0 -9 -11 -19.5
t-25.5 -19t-29 -14.5t-22.5 -6q-6 0 -14.5 7t-16.5 16.5t-13.5 19.5t-5.5 16q0 7 8 19t19 24t22 21t18 9q8 0 20 -8.5t23.5 -20t19.5 -24t8 -20.5z" />
    <glyph glyph-name="Zcaron" unicode="&#x17d;" horiz-adv-x="639" 
d="M737 -9q-6 -9 -16.5 -23.5t-23 -28t-26 -23t-25.5 -9.5q-42 0 -83 8.5t-83 16.5q-22 4 -60.5 11.5t-83.5 17t-92.5 22t-89.5 26.5t-73.5 29.5t-44.5 31.5q-8 10 -12.5 21.5t-4.5 24.5q0 23 14 43q10 14 23.5 26t26.5 23q42 38 80.5 78.5t80.5 78.5q30 29 58 57.5t50 64.5
l-175 9h-20.5t-21 2t-16 8.5t-6.5 20.5q0 7 4 22.5t10.5 31t14.5 27t17 11.5t17 -4.5t16.5 -9.5t17.5 -10.5t18 -6.5q52 -8 108.5 -12t109.5 -4q11 0 21 5t21 5q6 0 12.5 -7.5t12.5 -18t9.5 -21t3.5 -15.5q0 -10 -27 -40.5t-67.5 -71.5t-88 -87t-88 -86.5t-67.5 -70.5
t-27 -38t13 -16.5t29.5 -16t33 -13.5t23.5 -8q76 -26 160 -47.5t165 -21.5h22t16.5 1.5t15.5 4.5t20 9q8 4 16 7.5t17 3.5q17 0 28.5 -11.5t16.5 -26.5zM511 788q0 -19 -3 -38q-1 -7 -10.5 -17.5t-24.5 -22.5t-32 -24.5t-34 -22.5t-30.5 -16t-20.5 -6q-10 0 -30 14
t-40.5 32.5t-36 37.5t-15.5 29q0 4 4.5 14t11.5 20t14 18t12 8q8 0 11 -6t8 -11q13 -16 22.5 -26t17.5 -18t16.5 -14.5t19.5 -15.5q13 6 28.5 15.5t30 19.5t26.5 19t18 14l15 12t10 4q12 0 12 -19z" />
    <glyph glyph-name="zcaron" unicode="&#x17e;" horiz-adv-x="639" 
d="M607 111q0 -11 -4 -28.5t-11 -36.5q-8 -23 -16.5 -31.5t-22.5 -8.5h-3.5t-4 0.5t-8 1t-16.5 2.5q-20 2 -63 3.5t-102 1.5q-66 0 -115.5 -1.5t-101.5 -5.5q-17 -1 -26 -2.5t-20 -4.5q-16 -4 -21 -4q-9 0 -15.5 5.5t-18.5 22.5q-19 28 -19 41q0 7 3.5 12t23.5 22l31 29
q5 6 10.5 11.5t13.5 14.5t19.5 22t29.5 33l33 38l38 43l38 44l66 76l28 32l28 33l16 17l-44 -3l-73 -4q-10 -1 -17.5 -1h-12.5l-50 -2q-17 -1 -24 -1h-10h-3.5h-4.5h-33q-37 0 -37 29q0 24 16 66q10 29 26 29q5 0 8.5 -1.5t13.5 -6.5q20 -11 33 -13.5t33 -3.5h19.5t26.5 -1
q18 -1 32.5 -1h20.5q5 0 23.5 0.5t50.5 0.5h60q16 0 25.5 0.5t15.5 1.5t10.5 3t9.5 6q4 2 6 2q10 0 36 -21q25 -19 25 -31q0 -6 -3.5 -12t-19.5 -23q-11 -13 -22.5 -25.5t-18.5 -19.5l-63 -63q-10 -10 -17.5 -18t-15.5 -17t-18.5 -20.5t-26.5 -29.5q-24 -27 -34.5 -38.5
t-14.5 -16t-5 -6t-7 -7.5q-16 -18 -26.5 -30.5t-18.5 -21.5t-14.5 -17t-13.5 -17q-17 -23 -25 -35.5t-15 -28.5q76 1 147.5 3t125.5 7q29 2 46 8t43 23q10 6 19 6q26 0 26 -31zM489 788q0 -19 -3 -38q-1 -7 -10.5 -17.5t-24.5 -22.5t-32 -24.5t-34 -22.5t-30.5 -16t-20.5 -6
q-10 0 -30 14t-40.5 32.5t-36 37.5t-15.5 29q0 4 4.5 14t11.5 20t14 18t12 8q8 0 11 -6t8 -11q13 -16 22.5 -26t17.5 -18t16.5 -14.5t19.5 -15.5q13 6 28.5 15.5t30 19.5t26.5 19t18 14l15 12t10 4q12 0 12 -19z" />
    <glyph glyph-name="florin" unicode="&#x192;" horiz-adv-x="490" 
d="M450 538q0 -8 -9 -12.5t-15 -4.5q-11 0 -19.5 5.5t-19.5 5.5q-42 0 -61.5 -26t-28.5 -62l-27 -104q29 0 57.5 -0.5t57.5 -0.5q5 0 10.5 -1.5t5.5 -8.5q0 -8 -4.5 -16.5t-11.5 -16.5t-14.5 -15t-13.5 -11l-104 -4q-15 -45 -27 -90t-19 -92q-8 -48 -16.5 -83.5t-27 -59
t-51 -35t-86.5 -11.5q-18 0 -28 2t-15.5 8t-7 17t-1.5 29q0 10 2.5 22t15.5 12q9 0 14.5 -4t10.5 -8.5t10 -8t12 -3.5q10 0 21 3q18 5 24.5 17.5t11.5 28.5q21 63 35.5 126t26.5 128q-20 0 -39.5 -0.5t-39.5 -0.5q-9 0 -19.5 2t-10.5 15q0 5 3.5 16.5t9 23t12 20.5t13.5 9h8
q20 0 39.5 -1.5t39.5 -3.5l13 74q4 28 8 50t12.5 40t22.5 34t40 33q17 11 41.5 24t44.5 13q37 0 65.5 -17t28.5 -57z" />
    <glyph glyph-name="circumflex" unicode="&#x2c6;" 
d="M329 668q0 -3 -4 -8t-9 -9.5t-10.5 -7.5t-8.5 -3t-20 11t-37 25t-37.5 27t-23.5 17q-10 -6 -32 -20.5t-46.5 -30t-46 -27t-29.5 -11.5q-9 0 -9 11q0 29 9.5 48t31.5 37q7 6 25.5 19.5t39 27.5t39 24.5t25.5 10.5q6 0 18.5 -9t28.5 -23t33 -30.5t31 -32t23 -28.5t9 -18z
" />
    <glyph glyph-name="caron" unicode="&#x2c7;" 
d="M311 788q0 -19 -3 -38q-1 -7 -10.5 -17.5t-24.5 -22.5t-32 -24.5t-34 -22.5t-30.5 -16t-20.5 -6q-10 0 -30 14t-40.5 32.5t-36 37.5t-15.5 29q0 4 4.5 14t11.5 20t14 18t12 8q8 0 11 -6t8 -11q13 -16 22.5 -26t17.5 -18t16.5 -14.5t19.5 -15.5q13 6 28.5 15.5t30 19.5
t26.5 19t18 14l15 12t10 4q12 0 12 -19z" />
    <glyph glyph-name="ring" unicode="&#x2da;" 
d="M295 740q0 -58 -30.5 -80t-84.5 -22q-28 0 -51.5 2.5t-41 12t-27.5 29t-10 52.5q0 17 14.5 31.5t34.5 25t42 16.5t36 6q15 0 35.5 -4t39 -13t31 -23t12.5 -33zM225 733q0 15 -7.5 19.5t-21.5 4.5h-16q-15 0 -24 -4.5t-16 -15.5q-6 -10 -7.5 -17t-1.5 -10q0 -5 6 -8
t14 -4.5t15.5 -2t11.5 -0.5q17 0 32 9.5t15 28.5z" />
    <glyph glyph-name="tilde" unicode="&#x2dc;" 
d="M334 736q0 -6 -10.5 -21.5t-25 -32t-28 -29t-19.5 -12.5q-16 0 -36.5 7.5t-41.5 16t-40 16t-32 7.5q-6 0 -16 -7t-21.5 -15t-21.5 -15t-16 -7q-5 0 -8 5t-4.5 11.5t-2 13t-0.5 9.5q0 14 10 29t24 27.5t30.5 20.5t30.5 8q18 0 37.5 -6.5t37.5 -15t33 -15t24 -6.5q4 0 14 8
t21.5 18t22.5 18t17 8q4 0 8 -5t7 -12t4.5 -13.5t1.5 -10.5z" />
    <glyph glyph-name="endash" unicode="&#x2013;" horiz-adv-x="500" 
d="M519 258q0 -23 -3.5 -37t-15.5 -14q-7 0 -34.5 1t-66.5 2t-84.5 2t-87.5 1q-39 0 -76 -1t-68 -2t-53 -2t-30 -1q-21 0 -31.5 4.5t-10.5 17.5q0 12 4 26t10.5 26t14 20t13.5 8q11 0 28.5 -1.5t55 -3.5t101 -3.5t167.5 -1.5q40 0 64.5 1.5t39.5 3.5t24 3.5t20 1.5
q8 0 13.5 -14.5t5.5 -36.5z" />
    <glyph glyph-name="emdash" unicode="&#x2014;" horiz-adv-x="1000" 
d="M866 258q0 -23 -3.5 -37t-15.5 -14q-7 0 -31 1t-74.5 2t-132.5 2t-206 1q-60 0 -100.5 -1t-66 -2t-39 -2t-21.5 -1q-21 0 -31.5 4.5t-10.5 17.5q0 12 4 26t10.5 26t14 20t13.5 8q7 0 16 -0.5t27.5 -2t50 -2.5t85 -2.5t132.5 -2t191 -0.5q40 0 67.5 1.5t46.5 3.5t31.5 3.5
t23.5 1.5q8 0 13.5 -14.5t5.5 -36.5z" />
    <glyph glyph-name="quoteleft" unicode="&#x2018;" horiz-adv-x="287" 
d="M228 587q0 -9 -7.5 -31t-16.5 -48t-16.5 -51.5t-7.5 -41.5q0 -10 2.5 -19t2.5 -19q0 -6 -9 -13t-20.5 -13t-23.5 -10.5t-18 -7.5l-15 7.5t-18 9.5t-15.5 11.5t-6.5 14.5t8.5 29t22 48t29.5 56.5t31.5 53.5t27.5 40t18 16q3 0 8.5 -3.5t11 -9t9 -11t3.5 -8.5z" />
    <glyph glyph-name="quoteright" unicode="&#x2019;" horiz-adv-x="287" 
d="M228 576q0 -8 -8.5 -29t-22 -48t-29.5 -56.5t-31.5 -53.5t-28 -40t-17.5 -16q-3 0 -8.5 3.5t-11 9t-9 11t-3.5 8.5q0 9 7.5 31t16.5 48t16.5 51.5t7.5 41.5q0 10 -2.5 19t-2.5 19q0 7 9 13.5t21 12.5t23.5 11t17.5 7q6 -3 15.5 -7t18 -9.5t15 -12.5t6.5 -14z" />
    <glyph glyph-name="quotesinglbase" unicode="&#x201a;" horiz-adv-x="292" 
d="M228 141q0 -8 -8.5 -29t-22 -48t-29.5 -56.5t-31.5 -53.5t-28 -40t-17.5 -16q-3 0 -8.5 3.5t-11 9t-9 11t-3.5 8.5q0 9 7.5 31.5t16.5 48.5t16.5 51t7.5 41q0 10 -2.5 18.5t-2.5 18.5q0 7 9 14t20.5 13t23.5 11t18 7l15 -7.5t18 -9.5t15.5 -12t6.5 -14z" />
    <glyph glyph-name="quotedblleft" unicode="&#x201c;" horiz-adv-x="465" 
d="M406 568q0 -5 -1.5 -10.5t-3.5 -10.5q-14 -50 -24.5 -99.5t-22.5 -100.5q-3 -11 -12.5 -18t-21.5 -12t-25 -7.5t-23 -2.5q-5 3 -12 6.5t-13.5 8t-11 10t-4.5 12.5q0 11 6 21.5t12 19.5q15 23 28 47.5t24 50.5q5 12 11.5 29t15.5 33t20.5 27.5t27.5 11.5q8 0 19 -2.5
t11 -13.5zM228 559q0 -9 -7.5 -31.5t-16.5 -48.5t-16.5 -51.5t-7.5 -40.5q0 -10 2.5 -19t2.5 -19q0 -6 -9 -13t-20.5 -13t-23.5 -10.5t-18 -7.5q-5 3 -14.5 7t-18.5 9.5t-15.5 11.5t-6.5 13q0 8 8.5 29.5t22 49t29.5 57t31 53.5t27.5 40t18.5 16q3 0 8.5 -3.5t11 -9t9 -11
t3.5 -8.5z" />
    <glyph glyph-name="quotedblright" unicode="&#x201d;" horiz-adv-x="465" 
d="M406 550q0 -9 -8.5 -30t-21.5 -48.5t-29 -57t-31 -53.5t-27.5 -40t-18.5 -16q-3 0 -8.5 3.5t-11 9t-9 11t-3.5 8.5t1 6l2 6q4 11 11 34t14.5 47.5t13 46.5t5.5 32t-2 19t-2 19q0 12 10 16.5t19 8.5q11 5 21 10.5t21 8.5q5 -2 14 -6.5t18 -10t15.5 -12t6.5 -12.5zM234 553
q0 -12 -6 -22l-12 -20q-15 -23 -28 -47.5t-24 -50.5q-5 -12 -11.5 -29t-15.5 -33t-20.5 -27.5t-27.5 -11.5q-8 0 -19 2.5t-11 13.5q0 3 3.5 18.5t8.5 37.5t11.5 48t12.5 49.5t10.5 41.5l6.5 26q3 11 12 18.5t21 12t25 7t23 2.5q4 -3 11 -6.5t14 -8t11.5 -10t4.5 -11.5z" />
    <glyph glyph-name="quotedblbase" unicode="&#x201e;" horiz-adv-x="454" 
d="M390 142q0 -8 -8.5 -29.5t-21.5 -48.5t-29 -56.5t-31.5 -54t-27.5 -40t-18 -15.5q-3 0 -8.5 3.5t-11 9t-9 11t-3.5 8.5t1 6l2 6q4 11 11 33.5t14.5 47.5t13 47t5.5 32q0 9 -2 18.5t-2 18.5q0 8 9 15t20.5 13t23.5 10t18 7q5 -3 14 -7.5t18 -10t15.5 -11.5t6.5 -13z
M218 145q0 -11 -6 -21.5t-12 -19.5q-15 -23 -28 -48t-24 -51q-5 -12 -11.5 -29t-15.5 -32.5t-20.5 -27t-27.5 -11.5q-8 0 -19 2.5t-11 13.5q0 2 3.5 17.5t8.5 38.5t11.5 49l12.5 50l10.5 42t6.5 24q3 11 12.5 18t21.5 11.5t24.5 6.5t22.5 4q4 -3 11 -6.5t14 -8.5t11.5 -10.5
t4.5 -11.5z" />
    <glyph glyph-name="dagger" unicode="&#x2020;" horiz-adv-x="547" 
d="M509 372q0 -12 -15 -24t-25 -16q-24 11 -49.5 15.5t-51.5 4.5h-27t-27 -1q-4 -58 -3.5 -115t0.5 -115q0 -11 -1 -39t-3.5 -58.5t-6.5 -56t-11 -31.5q-7 -7 -18.5 -16.5t-21.5 -9.5q-8 0 -11 6t-4 13q-13 91 -13.5 184.5t-0.5 185.5q0 14 -1.5 27.5t-3.5 27.5
q-16 -2 -29 -2.5t-25 -2t-24.5 -5.5t-27.5 -11l-12 -6t-13 -3q-6 0 -12 4.5t-12 10.5t-11.5 12.5t-9.5 10.5q3 9 6.5 21.5t9 23t13 18t19.5 7.5q13 0 25 -2t24 -3q42 -3 84 -3v6v22t-1 22q-1 8 -4.5 19t-7 21.5l-6.5 19.5t-3 12q0 7 9.5 16.5t22 18.5t25 16.5t18.5 10.5
q5 -2 16 -7t22 -11.5t19 -13.5t8 -13q-7 -20 -11 -36.5t-6 -32t-2.5 -32t-1.5 -37.5h19q34 0 65.5 2.5t64.5 12.5q1 0 3.5 1t3.5 1q8 0 14.5 -8.5t11.5 -20t7.5 -23.5t2.5 -18z" />
    <glyph glyph-name="daggerdbl" unicode="&#x2021;" horiz-adv-x="548" 
d="M518 432q-9 -15 -21 -28t-25 -24q-11 -10 -18.5 -11t-21.5 -2q-30 -2 -59.5 -2.5t-59.5 -1.5v-11q0 -17 -0.5 -35t-1.5 -35h24q24 0 47.5 2t47.5 2q7 0 21.5 -4t29 -11t25.5 -15t11 -16q0 -10 -7.5 -24.5t-18.5 -14.5q-35 0 -71 3t-71 3q-11 0 -22 -0.5t-22 -0.5
q0 -56 -1.5 -111t-3.5 -110q0 -9 -4.5 -21t-11.5 -23t-16 -19t-19 -8q-7 0 -11 5t-6 11.5t-2.5 14t-0.5 12.5q-6 73 -6 146q0 25 1 50t3 50q-24 0 -49 -1.5t-49 -6.5q-11 -2 -17 -8t-11 -12t-10 -10.5t-13 -4.5q-9 0 -15.5 10.5t-10.5 25t-6 28.5t-2 21q0 14 2.5 22t18.5 11
q25 5 51.5 6t52.5 1q14 0 28.5 -0.5t28.5 -1.5q-5 38 -3 78q-42 2 -82 4t-82 6q-5 11 -15.5 27.5t-10.5 27.5q0 5 5.5 13t13 16t15 14t12.5 6q11 0 22.5 -8.5t19.5 -15.5q26 -3 50.5 -5t50.5 -2q-5 30 -6.5 60t-8.5 59q-1 3 -1.5 5.5t-0.5 5.5q0 8 9 16t21.5 14t25 10
t19.5 4q5 0 14.5 -2t19.5 -5.5t17 -9t7 -11.5q0 -3 -2.5 -10t-5.5 -15.5t-6 -17.5t-4 -15q-2 -22 -1 -43t-3 -43h122q16 0 31.5 2.5t31.5 2.5q8 0 11.5 -6t5.5 -13z" />
    <glyph glyph-name="bullet" unicode="&#x2022;" horiz-adv-x="500" 
d="M406 292q0 -22 -22.5 -48t-53 -48.5t-63.5 -37.5t-54 -15q-15 0 -36 23.5t-39.5 54.5t-31.5 59.5t-13 39.5q0 12 10 25.5t26.5 27t36 26t39 22.5t36 16t26.5 6q12 0 35.5 -14.5t46.5 -37t40 -49t17 -50.5z" />
    <glyph glyph-name="ellipsis" unicode="&#x2026;" horiz-adv-x="1000" 
d="M916 79q-8 -32 -29.5 -50t-46.5 -35q-12 3 -27.5 6.5t-29.5 10t-23.5 17t-9.5 25.5q0 5 11 19.5t25 29.5t27.5 27t18.5 12q6 0 18 -8t25.5 -18.5t24.5 -20.5t16 -15zM583 79q-8 -32 -29.5 -50t-46.5 -35q-12 3 -27.5 6.5t-29.5 10t-23.5 17t-9.5 25.5q0 5 11 19.5
t25 29.5t27.5 27t18.5 12q6 0 18 -8t25.5 -18.5t24.5 -20.5t16 -15zM250 79q-8 -32 -29.5 -50t-46.5 -35q-12 3 -27.5 6.5t-29.5 10t-23.5 17t-9.5 25.5q0 5 11 19.5t25 29.5t27.5 27t18.5 12q6 0 18 -8t25.5 -18.5t24.5 -20.5t16 -15z" />
    <glyph glyph-name="perthousand" unicode="&#x2030;" horiz-adv-x="1113" 
d="M1076 176q0 -17 -5 -34l-10 -34t-10.5 -36t-16.5 -32q-12 -14 -28.5 -22.5t-35.5 -13.5t-38 -7t-36 -2q-22 0 -42.5 10.5t-36 27t-25 37.5t-9.5 42q0 35 10.5 69.5t33.5 60.5q17 20 44 37t54 17q22 0 39.5 -6.5t36.5 -16.5q16 -8 30 -16t24 -18t15.5 -23.5t5.5 -34.5v-5z
M757 172q0 -20 -7 -47.5t-14 -45.5q-9 -23 -26 -39t-38 -26t-45 -14.5t-47 -4.5q-29 0 -52.5 11.5t-40.5 30.5t-26 44t-9 53q0 35 9.5 63t39.5 48q10 7 25 15t31 15t32 11.5t29 4.5q21 0 45.5 -10t45 -26.5t34.5 -38t14 -44.5zM629 603q0 -6 -3 -10.5t-7 -9.5
q-21 -28 -38.5 -58t-34.5 -60q-19 -32 -38.5 -62.5t-39.5 -62.5q-55 -88 -101.5 -176t-91.5 -182q-7 -14 -15 -19t-21 -12q-8 -5 -18 -9t-19 -4q-5 0 -12 6t-13 14.5t-10.5 16.5t-4.5 13t8 13t11 12q67 76 117.5 164.5t99.5 176.5q20 37 40.5 73.5t43.5 72.5q8 13 16.5 25.5
t16.5 26.5q10 18 14.5 28.5t10 16.5t16 9.5t32.5 7.5q13 3 28 3q5 0 9 -4.5t4 -9.5zM374 451q0 -32 -16.5 -63.5t-43 -57.5t-58.5 -42t-63 -16q-29 0 -53.5 10.5t-42.5 29t-28 43t-10 53.5q0 27 12.5 59t33.5 59t48 45t57 18q25 0 54 -11.5t53.5 -31t40.5 -44t16 -51.5z
M997 154q0 35 -20.5 52t-53.5 17q-15 0 -27 -11.5t-20.5 -27t-13 -33t-4.5 -29.5q0 -30 14.5 -47.5t46.5 -17.5q19 0 33.5 9t24.5 23t15 31t5 34zM674 126q0 16 -2.5 33t-9.5 30.5t-20 22t-33 8.5t-34 -8t-23 -21t-13 -29.5t-4 -34.5q0 -28 13.5 -51.5t45.5 -23.5
q15 0 29.5 5.5t25.5 15.5t18 23.5t7 29.5zM281 480q0 7 -5.5 13t-13.5 10.5t-16.5 7.5t-14.5 3q-47 0 -65.5 -28t-18.5 -69q0 -18 2 -31.5t8.5 -22.5t19 -13t32.5 -4t29.5 7t17.5 24q11 22 18 50.5t7 52.5z" />
    <glyph glyph-name="guilsinglleft" unicode="&#x2039;" horiz-adv-x="345" 
d="M291 432q0 -5 -13 -17.5t-30 -27t-32.5 -29.5t-19.5 -25q-4 -9 -5.5 -27.5t-1.5 -28.5q0 -24 12.5 -45.5t27.5 -39.5t27.5 -32.5t12.5 -24.5q0 -9 -12.5 -19.5t-21.5 -10.5t-25.5 11t-35.5 28t-38.5 37.5t-35.5 41t-26 38t-10 27.5q0 12 12 31t30 39.5t40 41.5t42 37.5
t35.5 27t21.5 10.5q7 0 15 -4t15 -10.5t11.5 -14t4.5 -14.5z" />
    <glyph glyph-name="guilsinglright" unicode="&#x203a;" horiz-adv-x="345" 
d="M281 292q0 -13 -12 -31.5t-30 -39.5t-40 -41.5t-42 -37t-35.5 -27t-21.5 -10.5t-14 4.5t-15 11t-12 14t-5 13.5q0 5 13 17t29.5 26.5t32 29.5t20.5 26q4 9 5.5 27.5t1.5 28.5q0 24 -12.5 45.5t-27.5 39.5t-27.5 32.5t-12.5 24.5q0 9 12.5 19.5t21.5 10.5t25.5 -11
t35.5 -28t38.5 -37.5t35.5 -41t26 -38t10 -27.5z" />
    <glyph glyph-name="Euro" unicode="&#x20ac;" horiz-adv-x="629" 
d="M582 106q0 -11 -8 -21t-15 -17q-23 -26 -46.5 -41t-48.5 -22.5t-53 -10t-61 -2.5q-38 0 -70 14t-60 38q-62 53 -76 147h-7q-19 0 -35.5 -3t-35.5 -3q-6 0 -9.5 6.5t-5.5 15t-3 17t-1 12.5q0 9 8 9q6 0 11.5 -1.5t11.5 -1.5h61q-2 27 0 53q-17 -1 -33 -3.5t-33 -2.5
q-6 0 -9.5 6.5t-5.5 15t-3 17t-1 12.5q0 9 8 9q6 0 11.5 -1.5t11.5 -1.5h59q11 71 45.5 127.5t107.5 91.5q30 14 55 18.5t53 3.5q11 0 23.5 -1t26.5 -2q21 -2 38.5 -9.5t35.5 -12.5q8 -2 18.5 -12.5t10.5 -20.5q0 -8 -8.5 -19t-20.5 -21.5t-24 -18t-19 -7.5q-11 0 -19.5 5.5
t-18 12t-21.5 12.5t-28 7q-40 1 -65.5 -11t-42 -33t-25.5 -48.5t-16 -55.5l-1 -5l120 1h80q5 0 14 -0.5t17.5 -2t15 -6t6.5 -11.5q0 -20 -8.5 -27.5t-28.5 -7.5h-38.5t-58 0.5t-65 1t-59.5 0.5q-1 -12 -0.5 -24.5t0.5 -24.5v-3l113 1h80q5 0 14 -0.5t17.5 -2t15 -6
t6.5 -11.5q0 -20 -8.5 -27.5t-28.5 -7.5h-34t-51.5 0.5t-59 1t-57.5 0.5q6 -24 16.5 -47t27 -40t38.5 -27.5t49 -10.5q32 0 61 12.5t51.5 27t36.5 27t17 12.5q4 0 10 -4.5t11 -11t9 -13t4 -10.5z" />
    <glyph glyph-name="trademark" unicode="&#x2122;" horiz-adv-x="830" 
d="M750 302q0 -11 -10.5 -14.5t-27.5 -3.5q-55 0 -55 20q0 5 1 10t1 13t-3 24t-7 40q-4 22 -6.5 42t-3.5 42q-17 -23 -33.5 -48t-24.5 -37l-2 -4l-5 -10t-6 -11.5t-4 -8.5q-5 -8 -10.5 -13.5t-16.5 -5.5q-8 0 -20.5 4.5t-15.5 8.5q-4 5 -6.5 15t-7.5 24l-10 25t-7.5 19
t-8 18.5t-10.5 22.5q-6 -24 -11.5 -50.5t-10.5 -48.5t-8 -36.5t-3 -15.5q0 -5 1 -11.5t1 -9.5q0 -5 -9 -9.5t-17 -4.5q-19 0 -38.5 5t-19.5 16q0 14 11 33q6 10 10.5 21.5t10 28.5t11.5 42t15 61q6 26 7 34.5t1 10.5q0 8 -5 13.5t-5 13.5q0 7 6 11t14 4q11 0 26 -4t27 -9
q11 -5 14.5 -8.5t8.5 -19.5q2 -9 11 -27t18 -37q11 -22 24 -47q10 12 21.5 27.5t29.5 44.5l25 41q9 14 13 19t12 5q3 0 14 -3t22.5 -8t20.5 -10.5t9 -11.5t-1.5 -10t-1.5 -11q0 -20 1 -38t4 -35l17 -85q6 -28 11 -36q5 -7 8.5 -9.5t3.5 -7.5zM335 568q0 -2 -2.5 -5t-4.5 -7
l-9 -16q-4 -5 -15 -7t-25 -2q-29 0 -51 -3q-5 -36 -6.5 -72t-1.5 -72q0 -30 9 -42q7 -4 13.5 -5t12.5 -1q8 0 13 1.5t10 1.5q8 0 9.5 -4.5t1.5 -9.5q0 -7 -2 -15t-7 -12q-15 -11 -53 -11q-16 0 -30 5.5t-24.5 14.5t-17 21t-6.5 25q0 9 3 20q5 21 6.5 41t1.5 43q0 17 -1 35
t-3 35h-27q-8 0 -17 -1t-17 -1q-17 0 -21 9t-4 20q0 6 8 15t18 9q4 -2 16 -3t25.5 -1.5t26 -1t18.5 -0.5q39 0 61.5 1t35.5 2.5t21 3t19 1.5q9 0 12.5 -3.5t3.5 -8.5z" />
    <glyph glyph-name="uniE300" unicode="&#xe300;" 
d="M290 648q0 -9 -13.5 -13t-20.5 -4t-33.5 13t-56.5 30t-56.5 32.5t-34.5 21.5q-19 14 -19 28q0 6 9 13.5t21 14t24.5 11t20.5 4.5q5 0 18.5 -10t31 -25.5t37 -34t35.5 -35.5t26.5 -29.5t10.5 -16.5z" />
    <glyph glyph-name="uniE301" unicode="&#xe301;" 
d="M290 753q0 -9 -19 -24t-45.5 -30.5t-55 -30.5t-47.5 -24q-8 -2 -16 -7.5t-17 -5.5q-4 0 -9.5 1t-11 3t-9.5 5.5t-4 8.5q0 3 10.5 15.5t26.5 29t35 35t36.5 34t31 26t18.5 10.5q9 0 22 -4.5t25 -11.5t20.5 -15t8.5 -15z" />
    <glyph glyph-name="uniE302" unicode="&#xe302;" 
d="M329 668q0 -3 -4 -8t-9 -9.5t-10.5 -7.5t-8.5 -3t-20 11t-37 25t-37.5 27t-23.5 17q-10 -6 -32 -20.5t-46.5 -30t-46 -27t-29.5 -11.5q-9 0 -9 11q0 29 9.5 48t31.5 37q7 6 25.5 19.5t39 27.5t39 24.5t25.5 10.5q6 0 18.5 -9t28.5 -23t33 -30.5t31 -32t23 -28.5t9 -18z
" />
    <glyph glyph-name="uniE303" unicode="&#xe303;" 
d="M311 788q0 -19 -3 -38q-1 -7 -10.5 -17.5t-24.5 -22.5t-32 -24.5t-34 -22.5t-30.5 -16t-20.5 -6q-10 0 -30 14t-40.5 32.5t-36 37.5t-15.5 29q0 4 4.5 14t11.5 20t14 18t12 8q8 0 11 -6t8 -11q13 -16 22.5 -26t17.5 -18t16.5 -14.5t19.5 -15.5q13 6 28.5 15.5t30 19.5
t26.5 19t18 14l15 12t10 4q12 0 12 -19z" />
    <glyph glyph-name="uniE304" unicode="&#xe304;" 
d="M334 736q0 -6 -10.5 -21.5t-25 -32t-28 -29t-19.5 -12.5q-16 0 -36.5 7.5t-41.5 16t-40 16t-32 7.5q-6 0 -16 -7t-21.5 -15t-21.5 -15t-16 -7q-5 0 -8 5t-4.5 11.5t-2 13t-0.5 9.5q0 14 10 29t24 27.5t30.5 20.5t30.5 8q18 0 37.5 -6.5t37.5 -15t33 -15t24 -6.5q4 0 14 8
t21.5 18t22.5 18t17 8q4 0 8 -5t7 -12t4.5 -13.5t1.5 -10.5z" />
    <glyph glyph-name="uniE305" unicode="&#xe305;" 
d="M335 719q0 -8 -5.5 -19.5t-14 -22t-18 -18t-17.5 -7.5q-12 0 -25.5 7.5t-25 18.5t-18.5 25t-7 26q0 6 9 15.5t20.5 18t23.5 14.5t18 6q7 0 17.5 -7.5t20 -17.5t16 -21t6.5 -18zM149 712q0 -9 -11 -19.5t-25.5 -19t-29 -14.5t-22.5 -6q-6 0 -14.5 7t-16.5 16.5t-13.5 19.5
t-5.5 16q0 7 8 19t19 24t22 21t18 9q8 0 20 -8.5t23.5 -20t19.5 -24t8 -20.5z" />
    <glyph glyph-name="uniE308" unicode="&#xe308;" 
d="M295 740q0 -58 -30.5 -80t-84.5 -22q-28 0 -51.5 2.5t-41 12t-27.5 29t-10 52.5q0 17 14.5 31.5t34.5 25t42 16.5t36 6q15 0 35.5 -4t39 -13t31 -23t12.5 -33zM225 733q0 15 -7.5 19.5t-21.5 4.5h-16q-15 0 -24 -4.5t-16 -15.5q-6 -10 -7.5 -17t-1.5 -10q0 -5 6 -8
t14 -4.5t15.5 -2t11.5 -0.5q17 0 32 9.5t15 28.5z" />
    </font>
</defs>
</svg>
