<svg width="38" height="4" viewBox="0 0 38 4" xmlns="http://www.w3.org/2000/svg">
  <path d="M2.902 2.683H1.55l-.226.594a.343.343 0 00-.026.12c0 .064.02.12.06.17a.33.33 0 00.16.104l.138.042v.048H.572v-.048l.01-.005a.946.946 0 00.366-.202.833.833 0 00.229-.345L2.355 0h.153L3.76 3.166c.056.151.135.273.239.366a.756.756 0 00.355.181v.048H2.865v-.048a.735.735 0 00.253-.078.153.153 0 00.074-.137.648.648 0 00-.053-.216l-.237-.6zm-1.315-.1H2.86L2.203.905l-.616 1.678zm4.419-1.19c.06.043.11.096.152.159a.363.363 0 01.063.205c0 .08-.026.16-.079.237a.32.32 0 01-.136.115.417.417 0 01-.18.042.224.224 0 01-.125-.031.334.334 0 00.02-.095.325.325 0 00-.163-.263.308.308 0 00-.163-.053c-.14 0-.27.132-.389.395v1.304a.276.276 0 00.221.274l.158.031v.048H4.07v-.048l.158-.031a.276.276 0 00.22-.274V1.694a.276.276 0 00-.22-.274L4.07 1.39V1.34h.936V1.9c.08-.176.19-.317.329-.424a.676.676 0 01.413-.16c.095 0 .18.026.258.079zM8.04 2.72c.147 0 .256.044.326.132.07.088.105.187.105.3a.503.503 0 01-.144.347.997.997 0 01-.382.25c-.157.061-.324.09-.5.086a1.275 1.275 0 01-.502-.078 1.074 1.074 0 01-.402-.258c-.252-.242-.379-.558-.379-.947 0-.396.118-.717.353-.963.098-.101.218-.181.36-.239a1.18 1.18 0 01.45-.087c.158 0 .308.03.45.087.142.058.263.138.365.24.175.178.284.412.326.7H6.795c-.01.083-.016.17-.016.257 0 .319.06.592.179.818.119.226.285.339.5.339.119 0 .225-.046.318-.137a.424.424 0 00.139-.31.284.284 0 00-.058-.166.248.248 0 00-.152-.102c0-.067.034-.128.102-.184a.359.359 0 01.234-.085zM7.3 1.38c-.137 0-.245.075-.324.228a1.65 1.65 0 00-.16.539h.957c-.028-.256-.08-.444-.158-.563-.088-.137-.193-.205-.315-.205zm2.956-.038V1.5H9.53v1.573c0 .182.038.33.115.442a.35.35 0 00.3.168c.14 0 .247-.038.321-.113.074-.076.12-.196.137-.36h.2a.644.644 0 01-.219.46.74.74 0 01-.502.17c-.273 0-.493-.065-.66-.197a.623.623 0 01-.25-.512V1.5h-.536V1.34c.157 0 .302-.04.434-.118a.875.875 0 00.315-.329.938.938 0 00.119-.468h.226v.915h.726zm3.282 2.372v.048h-1.284v-.048l.132-.031a.306.306 0 00.155-.097.255.255 0 00.06-.171V2.05c0-.217-.039-.385-.118-.505a.373.373 0 00-.329-.178.544.544 0 00-.27.084.752.752 0 00-.24.218.473.473 0 00-.094.276v1.468c0 .066.02.123.06.17.04.048.092.08.155.098l.132.031v.048h-1.284v-.048l.158-.031a.276.276 0 00.22-.274l.001-2.977a.276.276 0 00-.22-.273l-.159-.032V.08h.937v1.457a.913.913 0 01.7-.326c.129 0 .25.02.362.058a.853.853 0 01.284.157.733.733 0 01.263.574v1.41a.276.276 0 00.221.273l.158.031zm2.62 0v.048h-.937v-.247a.945.945 0 01-.363.263.78.78 0 01-.337.063c-.294 0-.525-.058-.691-.174a.556.556 0 01-.25-.484.5.5 0 01.105-.297.97.97 0 01.305-.26c.144-.084.324-.148.542-.192.217-.044.447-.066.689-.066v-.316c0-.235-.03-.403-.092-.505-.061-.101-.18-.152-.355-.152a.484.484 0 00-.303.087c-.075.058-.113.143-.113.255 0 .056.02.111.058.165.039.055.09.089.153.103 0 .067-.034.128-.103.184a.359.359 0 01-.234.084c-.147 0-.256-.044-.326-.131a.467.467 0 01-.105-.3c0-.116.047-.217.142-.305a.953.953 0 01.368-.203c.15-.047.305-.07.463-.07.308 0 .553.071.734.215.18.144.27.335.27.573v1.357a.276.276 0 00.221.274l.158.031zM15.22 2.53c-.302 0-.531.059-.69.176-.157.118-.236.29-.236.518 0 .13.037.238.11.324a.341.341 0 00.269.129.396.396 0 00.208-.056c.061-.036.127-.09.197-.16a.624.624 0 00.142-.216V2.53zM18.766.168a.234.234 0 00-.147.09.28.28 0 00-.058.179v2.966c0 .07.021.13.063.179.042.05.097.08.163.095l.184.036v.048H17.52v-.048l.184-.036a.286.286 0 00.163-.095.265.265 0 00.063-.179V.437c0-.07-.021-.13-.063-.18a.286.286 0 00-.163-.094L17.52.126V.08h1.451v.047l-.205.042zm.337 3.014a.47.47 0 01.108-.292.355.355 0 01.297-.14c.14 0 .236.037.286.109.051.072.075.148.071.229a.39.39 0 00-.192.102.245.245 0 00-.086.182c0 .09.051.169.155.234.103.065.24.097.407.097a.848.848 0 00.46-.124c.132-.082.198-.188.198-.318a.339.339 0 00-.095-.231 1.05 1.05 0 00-.3-.21 4.482 4.482 0 00-.22-.1 2.241 2.241 0 01-.158-.069c-.323-.13-.549-.275-.679-.437a.504.504 0 01-.126-.347c0-.077.022-.151.066-.223a.704.704 0 01.186-.198.89.89 0 01.295-.131c.126-.035.254-.053.384-.053.214 0 .397.028.55.085a.799.799 0 01.347.226.462.462 0 01.118.3c0 .077-.03.149-.09.215a.302.302 0 01-.236.1.397.397 0 01-.074-.005.323.323 0 01-.184-.113c-.052-.062-.075-.119-.068-.171a.238.238 0 00.158-.074.223.223 0 00.068-.163c0-.091-.05-.163-.15-.216a.752.752 0 00-.355-.078.662.662 0 00-.384.115c-.112.077-.168.17-.168.28 0 .076.032.146.097.21.065.063.166.126.303.189.07.035.201.091.394.168.326.13.556.282.69.458.083.098.125.22.125.368a.47.47 0 01-.073.247.779.779 0 01-.21.221 1.036 1.036 0 01-.34.155c-.142.04-.287.06-.434.06-.172 0-.345-.023-.52-.07a1.16 1.16 0 01-.442-.219.458.458 0 01-.18-.368zm5.05.531v.048h-1.347v-.048a.173.173 0 00.113-.076.259.259 0 00.04-.144.468.468 0 00-.1-.28l-.485-.683-.147.121v.763c0 .066.02.123.06.17.04.048.093.08.156.098l.131.031v.048h-1.283v-.048l.158-.031a.276.276 0 00.22-.274V.431a.276.276 0 00-.22-.273L21.29.126V.08h.936v2.409l.452-.379c.127-.112.226-.229.298-.35a.646.646 0 00.107-.318.212.212 0 00-.055-.152c-.037-.039-.09-.058-.16-.058a.345.345 0 01.12-.197.379.379 0 01.259-.087c.105 0 .188.03.25.092.06.061.091.15.091.265 0 .102-.056.212-.168.33a5.71 5.71 0 01-.505.449c.01-.007-.044.037-.163.131l.82 1.142c.13.182.307.298.532.347l.047.01zm2.366 0v.048h-.936v-.247a.945.945 0 01-.363.263.78.78 0 01-.337.063c-.294 0-.525-.058-.691-.174a.556.556 0 01-.25-.484.5.5 0 01.105-.297.97.97 0 01.305-.26c.144-.084.324-.148.542-.192.217-.044.447-.066.689-.066v-.316c0-.235-.03-.403-.092-.505-.061-.101-.18-.152-.355-.152a.484.484 0 00-.303.087c-.075.058-.113.143-.113.255 0 .056.02.111.058.165.039.055.09.089.153.103 0 .067-.034.128-.103.184a.359.359 0 01-.234.084c-.147 0-.256-.044-.326-.131a.467.467 0 01-.105-.3c0-.116.047-.217.142-.305a.953.953 0 01.368-.203c.15-.047.305-.07.463-.07.308 0 .553.071.734.215.18.144.27.335.27.573v1.357a.276.276 0 00.221.274l.158.031zm-.936-1.183c-.302 0-.531.059-.69.176-.157.118-.236.29-.236.518 0 .13.037.238.11.324a.341.341 0 00.269.129.396.396 0 00.208-.056c.061-.036.127-.09.197-.16a.624.624 0 00.142-.216V2.53zm3.871 1.183v.048h-1.283v-.048l.131-.031a.306.306 0 00.155-.097.255.255 0 00.061-.171V2.05c0-.21-.04-.368-.121-.473a.39.39 0 00-.326-.158.563.563 0 00-.274.08.757.757 0 00-.236.202.403.403 0 00-.095.244v1.468c0 .066.02.123.06.17.04.048.093.08.156.098l.131.031v.048H26.53v-.048l.158-.031a.276.276 0 00.22-.274V1.694a.276.276 0 00-.22-.274l-.158-.031V1.34h.936v.247a.827.827 0 01.308-.236.92.92 0 01.392-.09c.263 0 .48.073.652.219a.712.712 0 01.258.57v1.357a.276.276 0 00.22.274l.158.031zm2.43-.305a.276.276 0 00.221.274l.158.031v.048h-.936v-.247a.945.945 0 01-.363.263.78.78 0 01-.337.063 1 1 0 01-.418-.092 1.152 1.152 0 01-.355-.25 1.349 1.349 0 01-.358-.947c0-.393.121-.71.363-.952a1.2 1.2 0 01.831-.337c.123 0 .244.02.363.06.12.041.21.093.274.156V.431a.276.276 0 00-.221-.273l-.158-.032V.08h.936v3.33zm-1.062-1.935c-.158 0-.295.079-.41.236-.13.183-.195.463-.195.842 0 .361.063.642.19.842.101.157.22.236.357.236.112 0 .22-.043.32-.129a.857.857 0 00.232-.302V1.762a.675.675 0 00-.215-.213.529.529 0 00-.28-.076zm4.092 2.24v.048h-.936v-.247a.945.945 0 01-.363.263.78.78 0 01-.337.063c-.294 0-.525-.058-.691-.174a.556.556 0 01-.25-.484.5.5 0 01.105-.297.97.97 0 01.305-.26c.144-.084.324-.148.542-.192.217-.044.447-.066.689-.066v-.316c0-.235-.03-.403-.092-.505-.062-.101-.18-.152-.355-.152a.484.484 0 00-.303.087c-.075.058-.113.143-.113.255 0 .056.02.111.058.165.039.055.09.089.153.103 0 .067-.035.128-.103.184a.359.359 0 01-.234.084c-.147 0-.256-.044-.326-.131a.467.467 0 01-.105-.3c0-.116.047-.217.142-.305a.953.953 0 01.368-.203c.15-.047.305-.07.463-.07.308 0 .553.071.733.215.181.144.271.335.271.573v1.357a.276.276 0 00.221.274l.158.031zm-.936-1.183c-.302 0-.531.059-.69.176-.157.118-.236.29-.236.518 0 .13.037.238.11.324a.341.341 0 00.269.129.396.396 0 00.207-.056c.062-.036.128-.09.198-.16a.624.624 0 00.142-.216V2.53zm2.882-1.136c.06.042.11.095.153.158a.363.363 0 01.063.205c0 .08-.026.16-.08.237a.32.32 0 01-.136.115.417.417 0 01-.179.042.224.224 0 01-.126-.031.334.334 0 00.021-.095.325.325 0 00-.163-.263.308.308 0 00-.163-.053c-.14 0-.27.132-.39.395v1.304a.276.276 0 00.222.274l.158.031v.048h-1.315v-.048l.157-.031a.276.276 0 00.22-.274l.001-1.714a.276.276 0 00-.22-.274l-.158-.031V1.34h.936V1.9c.08-.176.19-.317.329-.424a.676.676 0 01.412-.16c.095 0 .181.026.258.079z" fill="#ffffff" fill-rule="evenodd"/>
</svg>
