<svg width="1001" height="106" viewBox="0 0 1001 106" xmlns="http://www.w3.org/2000/svg">
  <path d="M64.744 73.48H27.736l-6.192 16.272c-.48 1.248-.72 2.352-.72 3.312 0 1.728.552 3.264 1.656 4.608 1.104 1.344 2.568 2.304 4.392 2.88l3.744 1.152V103H.952v-1.296l.288-.144c3.84-1.152 7.176-3 10.008-5.544 2.832-2.544 4.92-5.688 6.264-9.432L49.768.04h4.176l34.272 86.688c1.536 4.128 3.72 7.464 6.552 10.008 2.832 2.544 6.072 4.2 9.72 4.968V103H63.736v-1.296c3.264-.576 5.568-1.296 6.912-2.16 1.344-.864 2.016-2.112 2.016-3.744 0-1.44-.48-3.408-1.44-5.904l-6.48-16.416zm-36-2.736h34.848l-18-45.936-16.848 45.936zM149.704 38.2c1.632 1.152 3.024 2.592 4.176 4.32 1.152 1.728 1.728 3.6 1.728 5.616 0 2.208-.72 4.368-2.16 6.48-.864 1.344-2.112 2.4-3.744 3.168-1.632.768-3.264 1.152-4.896 1.152-1.44 0-2.592-.288-3.456-.864.384-1.152.576-2.016.576-2.592 0-1.344-.408-2.688-1.224-4.032a8.91 8.91 0 00-3.24-3.168c-1.536-.96-3.024-1.44-4.464-1.44-3.84 0-7.392 3.6-10.656 10.8v35.712c0 1.824.552 3.432 1.656 4.824 1.104 1.392 2.568 2.28 4.392 2.664l4.32.864V103h-36v-1.296l4.32-.864c1.824-.384 3.288-1.272 4.392-2.664 1.104-1.392 1.656-3 1.656-4.824V46.408c0-1.824-.552-3.432-1.656-4.824-1.104-1.392-2.568-2.28-4.392-2.664l-4.32-.864V36.76h25.632v15.264c2.208-4.8 5.208-8.664 9-11.592 3.792-2.928 7.56-4.392 11.304-4.392 2.592 0 4.944.72 7.056 2.16zm55.728 36.288c4.032 0 7.008 1.2 8.928 3.6 1.92 2.4 2.88 5.136 2.88 8.208 0 3.456-1.32 6.624-3.96 9.504-2.64 2.88-6.12 5.16-10.44 6.84-4.32 1.68-8.88 2.472-13.68 2.376-4.8.192-9.384-.528-13.752-2.16-4.368-1.632-8.04-3.984-11.016-7.056-6.912-6.624-10.368-15.264-10.368-25.92 0-10.848 3.216-19.632 9.648-26.352 2.688-2.784 5.976-4.968 9.864-6.552 3.888-1.584 7.992-2.376 12.312-2.376 4.32 0 8.424.792 12.312 2.376 3.888 1.584 7.224 3.768 10.008 6.552 4.8 4.896 7.776 11.28 8.928 19.152h-45.792a56.84 56.84 0 00-.432 7.056c0 8.736 1.632 16.2 4.896 22.392 3.264 6.192 7.824 9.288 13.68 9.288 3.264 0 6.168-1.248 8.712-3.744 2.544-2.496 3.816-5.328 3.816-8.496 0-1.536-.528-3.048-1.584-4.536-1.056-1.488-2.448-2.424-4.176-2.808 0-1.824.936-3.504 2.808-5.04 1.872-1.536 4.008-2.304 6.408-2.304zm-20.304-36.72c-3.744 0-6.696 2.088-8.856 6.264s-3.624 9.096-4.392 14.76h26.208c-.768-7.008-2.208-12.144-4.32-15.408-2.4-3.744-5.28-5.616-8.64-5.616zm80.928-1.008v4.32h-19.872v43.056c0 4.992 1.056 9.024 3.168 12.096 2.112 3.072 4.848 4.608 8.208 4.608 3.84 0 6.768-1.032 8.784-3.096 2.016-2.064 3.264-5.352 3.744-9.864h5.472c-.384 5.28-2.376 9.48-5.976 12.6-3.6 3.12-8.184 4.68-13.752 4.68-7.488 0-13.512-1.8-18.072-5.4-4.56-3.6-6.84-8.28-6.84-14.04V41.08h-14.688v-4.32c4.32 0 8.28-1.08 11.88-3.24 3.6-2.16 6.48-5.16 8.64-9s3.24-8.112 3.24-12.816h6.192V36.76h19.872zm89.856 64.944V103h-35.136v-1.296l3.6-.864c1.728-.48 3.144-1.368 4.248-2.664s1.656-2.856 1.656-4.68V56.2c0-5.952-1.08-10.56-3.24-13.824-2.16-3.264-5.16-4.896-9-4.896-2.304 0-4.776.768-7.416 2.304-2.64 1.536-4.824 3.528-6.552 5.976-1.728 2.448-2.592 4.968-2.592 7.56v40.176c0 1.824.552 3.384 1.656 4.68 1.104 1.296 2.52 2.184 4.248 2.664l3.6.864V103h-35.136v-1.296l4.32-.864c1.824-.384 3.288-1.272 4.392-2.664 1.104-1.392 1.656-3 1.656-4.824V11.848c0-1.824-.552-3.432-1.656-4.824-1.104-1.392-2.568-2.28-4.392-2.664l-4.32-.864V2.2h25.632v39.888c2.112-2.688 4.896-4.848 8.352-6.48 3.456-1.632 7.056-2.448 10.8-2.448 3.552 0 6.864.528 9.936 1.584s5.664 2.496 7.776 4.32c4.8 4.224 7.2 9.456 7.2 15.696v38.592c0 1.824.552 3.432 1.656 4.824 1.104 1.392 2.568 2.28 4.392 2.664l4.32.864zm71.712 0V103h-25.632v-6.768c-2.304 2.88-5.616 5.28-9.936 7.2-2.4 1.152-5.472 1.728-9.216 1.728-8.064 0-14.376-1.584-18.936-4.752-4.56-3.168-6.84-7.584-6.84-13.248 0-2.784.96-5.496 2.88-8.136 1.92-2.64 4.704-5.016 8.352-7.128 3.936-2.304 8.88-4.056 14.832-5.256 5.952-1.2 12.24-1.8 18.864-1.8V56.2c0-6.432-.84-11.04-2.52-13.824-1.68-2.784-4.92-4.176-9.72-4.176-3.456 0-6.216.792-8.28 2.376-2.064 1.584-3.096 3.912-3.096 6.984 0 1.536.528 3.048 1.584 4.536 1.056 1.488 2.448 2.424 4.176 2.808 0 1.824-.936 3.504-2.808 5.04-1.872 1.536-4.008 2.304-6.408 2.304-4.032 0-7.008-1.2-8.928-3.6-1.92-2.4-2.88-5.136-2.88-8.208 0-3.168 1.296-5.952 3.888-8.352 2.592-2.4 5.952-4.248 10.08-5.544a42.063 42.063 0 0112.672-1.944c8.448 0 15.144 1.968 20.088 5.904 4.944 3.936 7.416 9.168 7.416 15.696v37.152c0 1.824.552 3.432 1.656 4.824 1.104 1.392 2.568 2.28 4.392 2.664l4.32.864zm-25.632-32.4c-8.256 0-14.544 1.608-18.864 4.824-4.32 3.216-6.48 7.944-6.48 14.184 0 3.552 1.008 6.504 3.024 8.856 2.016 2.352 4.464 3.528 7.344 3.528 2.112 0 4.008-.504 5.688-1.512 1.68-1.008 3.48-2.472 5.4-4.392 1.728-1.728 3.024-3.696 3.888-5.904V69.304zm97.056-64.656c-1.632.288-2.976 1.104-4.032 2.448-1.056 1.344-1.584 2.976-1.584 4.896v81.216c0 1.92.576 3.552 1.728 4.896 1.152 1.344 2.64 2.208 4.464 2.592l5.04 1.008V103H464.92v-1.296l5.04-1.008c1.824-.384 3.312-1.248 4.464-2.592 1.152-1.344 1.728-2.976 1.728-4.896V11.992c0-1.92-.576-3.552-1.728-4.896-1.152-1.344-2.64-2.208-4.464-2.592l-5.04-1.008V2.2h39.744v1.296l-5.616 1.152zm9.216 82.512c0-2.784.984-5.448 2.952-7.992 1.968-2.544 4.68-3.816 8.136-3.816 3.84 0 6.456.984 7.848 2.952 1.392 1.968 2.04 4.056 1.944 6.264-1.92.384-3.672 1.32-5.256 2.808-1.584 1.488-2.376 3.144-2.376 4.968 0 2.496 1.416 4.632 4.248 6.408 2.832 1.776 6.552 2.664 11.16 2.664 4.8 0 9-1.128 12.6-3.384 3.6-2.256 5.4-5.16 5.4-8.712 0-2.304-.864-4.416-2.592-6.336-1.728-1.92-4.464-3.84-8.208-5.76-1.344-.672-3.36-1.584-6.048-2.736-1.92-.768-3.36-1.392-4.32-1.872-8.832-3.552-15.024-7.536-18.576-11.952-2.304-2.592-3.456-5.76-3.456-9.504 0-2.112.6-4.152 1.8-6.12 1.2-1.968 2.904-3.768 5.112-5.4 1.92-1.44 4.608-2.64 8.064-3.6 3.456-.96 6.96-1.44 10.512-1.44 5.856 0 10.872.768 15.048 2.304 4.176 1.536 7.344 3.6 9.504 6.192 2.16 2.592 3.24 5.328 3.24 8.208 0 2.112-.816 4.08-2.448 5.904-1.632 1.824-3.792 2.736-6.48 2.736-.864 0-1.536-.048-2.016-.144-1.92-.384-3.6-1.416-5.04-3.096-1.44-1.68-2.064-3.24-1.872-4.68 1.632-.096 3.072-.768 4.32-2.016 1.248-1.248 1.872-2.736 1.872-4.464 0-2.496-1.368-4.464-4.104-5.904-2.736-1.44-5.976-2.16-9.72-2.16-3.936 0-7.44 1.056-10.512 3.168s-4.608 4.656-4.608 7.632c0 2.112.888 4.032 2.664 5.76 1.776 1.728 4.536 3.456 8.28 5.184 1.92.96 5.52 2.496 10.8 4.608 8.928 3.552 15.216 7.728 18.864 12.528 2.304 2.688 3.456 6.048 3.456 10.08 0 2.304-.672 4.56-2.016 6.768-1.344 2.208-3.264 4.224-5.76 6.048-2.304 1.728-5.4 3.144-9.288 4.248a43.286 43.286 0 01-11.88 1.656c-4.704 0-9.456-.648-14.256-1.944-4.8-1.296-8.832-3.288-12.096-5.976-3.264-2.688-4.896-6.048-4.896-10.08zm138.24 14.544V103H609.64v-1.296c1.344-.288 2.376-.984 3.096-2.088.72-1.104 1.08-2.424 1.08-3.96 0-2.592-.912-5.136-2.736-7.632l-13.248-18.72-4.032 3.312v20.88c0 1.824.552 3.384 1.656 4.68 1.104 1.296 2.52 2.184 4.248 2.664l3.6.864V103h-35.136v-1.296l4.32-.864c1.824-.384 3.288-1.272 4.392-2.664 1.104-1.392 1.656-3 1.656-4.824V11.848c0-1.824-.552-3.432-1.656-4.824-1.104-1.392-2.568-2.28-4.392-2.664l-4.32-.864V2.2H593.8v65.952l12.384-10.368c3.456-3.072 6.168-6.264 8.136-9.576 1.968-3.312 2.952-6.216 2.952-8.712 0-1.728-.504-3.12-1.512-4.176s-2.472-1.584-4.392-1.584c.384-2.016 1.488-3.816 3.312-5.4 1.824-1.584 4.176-2.376 7.056-2.376s5.16.84 6.84 2.52c1.68 1.68 2.52 4.104 2.52 7.272 0 2.784-1.536 5.784-4.608 9-3.072 3.216-7.68 7.32-13.824 12.312.288-.192-1.2 1.008-4.464 3.6l22.464 31.248c3.552 4.992 8.4 8.16 14.544 9.504l1.296.288zm64.8 0V103h-25.632v-6.768c-2.304 2.88-5.616 5.28-9.936 7.2-2.4 1.152-5.472 1.728-9.216 1.728-8.064 0-14.376-1.584-18.936-4.752-4.56-3.168-6.84-7.584-6.84-13.248 0-2.784.96-5.496 2.88-8.136 1.92-2.64 4.704-5.016 8.352-7.128 3.936-2.304 8.88-4.056 14.832-5.256 5.952-1.2 12.24-1.8 18.864-1.8V56.2c0-6.432-.84-11.04-2.52-13.824-1.68-2.784-4.92-4.176-9.72-4.176-3.456 0-6.216.792-8.28 2.376-2.064 1.584-3.096 3.912-3.096 6.984 0 1.536.528 3.048 1.584 4.536 1.056 1.488 2.448 2.424 4.176 2.808 0 1.824-.936 3.504-2.808 5.04-1.872 1.536-4.008 2.304-6.408 2.304-4.032 0-7.008-1.2-8.928-3.6-1.92-2.4-2.88-5.136-2.88-8.208 0-3.168 1.296-5.952 3.888-8.352 2.592-2.4 5.952-4.248 10.08-5.544a42.063 42.063 0 0112.672-1.944c8.448 0 15.144 1.968 20.088 5.904 4.944 3.936 7.416 9.168 7.416 15.696v37.152c0 1.824.552 3.432 1.656 4.824 1.104 1.392 2.568 2.28 4.392 2.664l4.32.864zm-25.632-32.4c-8.256 0-14.544 1.608-18.864 4.824-4.32 3.216-6.48 7.944-6.48 14.184 0 3.552 1.008 6.504 3.024 8.856 2.016 2.352 4.464 3.528 7.344 3.528 2.112 0 4.008-.504 5.688-1.512 1.68-1.008 3.48-2.472 5.4-4.392 1.728-1.728 3.024-3.696 3.888-5.904V69.304zm105.984 32.4V103H756.52v-1.296l3.6-.864c1.728-.48 3.144-1.368 4.248-2.664s1.656-2.856 1.656-4.68V56.2c0-5.76-1.104-10.08-3.312-12.96-2.208-2.88-5.184-4.32-8.928-4.32-2.4 0-4.896.72-7.488 2.16-2.592 1.44-4.752 3.288-6.48 5.544-1.728 2.256-2.592 4.488-2.592 6.696v40.176c0 1.824.552 3.384 1.656 4.68 1.104 1.296 2.52 2.184 4.248 2.664l3.6.864V103h-35.136v-1.296l4.32-.864c1.824-.384 3.288-1.272 4.392-2.664 1.104-1.392 1.656-3 1.656-4.824V46.408c0-1.824-.552-3.432-1.656-4.824-1.104-1.392-2.568-2.28-4.392-2.664l-4.32-.864V36.76h25.632v6.768c2.112-2.688 4.92-4.848 8.424-6.48 3.504-1.632 7.08-2.448 10.728-2.448 7.2 0 13.152 1.992 17.856 5.976 4.704 3.984 7.056 9.192 7.056 15.624v37.152c0 1.824.552 3.432 1.656 4.824 1.104 1.392 2.568 2.28 4.392 2.664l4.32.864zm66.528-8.352c0 1.824.552 3.432 1.656 4.824 1.104 1.392 2.568 2.28 4.392 2.664l4.32.864V103H842.92v-6.768c-2.304 2.88-5.616 5.28-9.936 7.2-2.4 1.152-5.472 1.728-9.216 1.728-3.936 0-7.752-.84-11.448-2.52a31.544 31.544 0 01-9.72-6.84c-6.528-7.104-9.792-15.744-9.792-25.92 0-10.752 3.312-19.44 9.936-26.064 2.976-2.88 6.432-5.136 10.368-6.768 3.936-1.632 8.064-2.448 12.384-2.448 3.36 0 6.672.552 9.936 1.656 3.264 1.104 5.76 2.52 7.488 4.248V11.848c0-1.824-.552-3.432-1.656-4.824-1.104-1.392-2.568-2.28-4.392-2.664l-4.32-.864V2.2h25.632v91.152zM829.096 40.36c-4.32 0-8.064 2.16-11.232 6.48-3.552 4.992-5.328 12.672-5.328 23.04 0 9.888 1.728 17.568 5.184 23.04 2.784 4.32 6.048 6.48 9.792 6.48 3.072 0 6-1.176 8.784-3.528 2.784-2.352 4.896-5.112 6.336-8.28V48.28c-1.632-2.496-3.6-4.44-5.904-5.832-2.304-1.392-4.848-2.088-7.632-2.088zm112.032 61.344V103h-25.632v-6.768c-2.304 2.88-5.616 5.28-9.936 7.2-2.4 1.152-5.472 1.728-9.216 1.728-8.064 0-14.376-1.584-18.936-4.752-4.56-3.168-6.84-7.584-6.84-13.248 0-2.784.96-5.496 2.88-8.136 1.92-2.64 4.704-5.016 8.352-7.128 3.936-2.304 8.88-4.056 14.832-5.256 5.952-1.2 12.24-1.8 18.864-1.8V56.2c0-6.432-.84-11.04-2.52-13.824-1.68-2.784-4.92-4.176-9.72-4.176-3.456 0-6.216.792-8.28 2.376-2.064 1.584-3.096 3.912-3.096 6.984 0 1.536.528 3.048 1.584 4.536 1.056 1.488 2.448 2.424 4.176 2.808 0 1.824-.936 3.504-2.808 5.04-1.872 1.536-4.008 2.304-6.408 2.304-4.032 0-7.008-1.2-8.928-3.6-1.92-2.4-2.88-5.136-2.88-8.208 0-3.168 1.296-5.952 3.888-8.352 2.592-2.4 5.952-4.248 10.08-5.544a42.063 42.063 0 0112.672-1.944c8.448 0 15.144 1.968 20.088 5.904 4.944 3.936 7.416 9.168 7.416 15.696v37.152c0 1.824.552 3.432 1.656 4.824 1.104 1.392 2.568 2.28 4.392 2.664l4.32.864zm-25.632-32.4c-8.256 0-14.544 1.608-18.864 4.824-4.32 3.216-6.48 7.944-6.48 14.184 0 3.552 1.008 6.504 3.024 8.856 2.016 2.352 4.464 3.528 7.344 3.528 2.112 0 4.008-.504 5.688-1.512 1.68-1.008 3.48-2.472 5.4-4.392 1.728-1.728 3.024-3.696 3.888-5.904V69.304zM994.408 38.2c1.632 1.152 3.024 2.592 4.176 4.32 1.152 1.728 1.728 3.6 1.728 5.616 0 2.208-.72 4.368-2.16 6.48-.864 1.344-2.112 2.4-3.744 3.168-1.632.768-3.264 1.152-4.896 1.152-1.44 0-2.592-.288-3.456-.864.384-1.152.576-2.016.576-2.592 0-1.344-.408-2.688-1.224-4.032a8.91 8.91 0 00-3.24-3.168c-1.536-.96-3.024-1.44-4.464-1.44-3.84 0-7.392 3.6-10.656 10.8v35.712c0 1.824.552 3.432 1.656 4.824 1.104 1.392 2.568 2.28 4.392 2.664l4.32.864V103h-36v-1.296l4.32-.864c1.824-.384 3.288-1.272 4.392-2.664 1.104-1.392 1.656-3 1.656-4.824V46.408c0-1.824-.552-3.432-1.656-4.824-1.104-1.392-2.568-2.28-4.392-2.664l-4.32-.864V36.76h25.632v15.264c2.208-4.8 5.208-8.664 9-11.592 3.792-2.928 7.56-4.392 11.304-4.392 2.592 0 4.944.72 7.056 2.16z" fill="#91FCCA" fill-rule="evenodd"/>
</svg>
